<svg width="66" height="72" viewBox="0 0 66 72" fill="none" xmlns="http://www.w3.org/2000/svg">
<path d="M57.4723 40.1495V51.2444C57.4723 56.7491 55.3081 62.0284 51.4559 65.9208C47.6037 69.8133 42.379 72 36.9311 72C31.4833 72 26.2585 69.8133 22.4063 65.9208C18.5541 62.0284 16.39 56.7491 16.39 51.2444V48.8042C11.8257 48.0853 7.6659 45.7422 4.66063 42.1975C1.65537 38.6527 0.00246513 34.1396 0 29.4721V13.7949C0.000664929 12.2786 0.375431 10.7864 1.0904 9.45325C1.80536 8.12012 2.83797 6.98812 4.09481 6.15966C4.18414 4.70525 4.75124 3.32255 5.70627 2.23065C6.6613 1.13875 7.94962 0.400108 9.36711 0.131753C10.7846 -0.136601 12.2502 0.0806836 13.5316 0.749177C14.8131 1.41767 15.8371 2.49914 16.4414 3.82223C17.0458 5.14531 17.1959 6.63434 16.868 8.05338C16.54 9.47241 15.7528 10.7403 14.6311 11.6561C13.5094 12.572 12.1172 13.0834 10.6753 13.1093C9.23338 13.1352 7.82413 12.6742 6.67084 11.7993C6.20386 12.3573 5.94723 13.0642 5.94633 13.7949V29.4666C5.94633 33.0622 7.35988 36.5104 9.87602 39.0528C12.3922 41.5952 15.8048 43.0235 19.3631 43.0235C22.9215 43.0235 26.3341 41.5952 28.8503 39.0528C31.3664 36.5104 32.78 33.0622 32.78 29.4666V13.7949C32.7801 13.1446 32.5773 12.5108 32.2003 11.9837C31.0039 12.7981 29.5727 13.186 28.1335 13.0859C26.6942 12.9859 25.3291 12.4037 24.2543 11.4314C23.1794 10.4591 22.4562 9.15236 22.1991 7.71799C21.9421 6.28362 22.1658 4.80359 22.835 3.51219C23.5041 2.22079 24.5805 1.19181 25.8936 0.588135C27.2067 -0.0155387 28.6816 -0.159414 30.0847 0.179288C31.4879 0.517989 32.7392 1.31991 33.6404 2.45812C34.5417 3.59632 35.0416 5.00576 35.0608 6.46333C36.1969 7.31032 37.1205 8.41493 37.7571 9.6883C38.3937 10.9617 38.7257 12.3683 38.7263 13.7949V29.4666C38.7238 34.1342 37.0709 38.6473 34.0656 42.1921C31.0604 45.7368 26.9005 48.0799 22.3363 48.7988V51.239C22.3363 55.1495 23.8737 58.8998 26.6102 61.6649C29.3468 64.43 33.0584 65.9835 36.9284 65.9835C40.7985 65.9835 44.5101 64.43 47.2466 61.6649C49.9832 58.8998 51.5206 55.1495 51.5206 51.239V40.1495C48.8234 39.4205 46.4806 37.7255 44.9287 35.3804C43.3768 33.0352 42.7218 30.1999 43.0856 27.4029C43.4494 24.6059 44.8073 22.0379 46.9062 20.1776C49.0051 18.3173 51.7018 17.2915 54.4937 17.2915C57.2857 17.2915 59.9824 18.3173 62.0813 20.1776C64.1802 22.0379 65.538 24.6059 65.9019 27.4029C66.2657 30.1999 65.6106 33.0352 64.0587 35.3804C62.5068 37.7255 60.164 39.4205 57.4669 40.1495H57.4723ZM60.0483 28.9244C60.0483 27.8143 59.7225 26.7292 59.1122 25.8062C58.5018 24.8832 57.6343 24.1639 56.6194 23.739C55.6044 23.3142 54.4876 23.2031 53.4101 23.4197C52.3326 23.6362 51.3429 24.1708 50.5661 24.9557C49.7892 25.7406 49.2602 26.7407 49.0459 27.8294C48.8316 28.9181 48.9416 30.0466 49.362 31.0722C49.7824 32.0978 50.4943 32.9743 51.4078 33.591C52.3212 34.2077 53.3951 34.5369 54.4937 34.5369C55.9669 34.5355 57.3795 33.9439 58.4217 32.8918C59.4639 31.8397 60.0508 30.413 60.0536 28.9244H60.0483Z" fill="white"/>
</svg>
