<svg width="126" height="109" viewBox="0 0 126 109" fill="none" xmlns="http://www.w3.org/2000/svg">
<g clip-path="url(#clip0_651_9)">
<path d="M122.4 42.5998C121.7 42.2998 120.9 42.4998 120.6 43.1998C117.3 49.9998 113.1 53.9998 108.1 55.2998C105.9 55.8998 103.8 55.7998 101.9 55.4998C101.7 56.1998 101.3 56.9998 100.9 57.5998C100.8 57.6998 100.7 57.7998 100.6 57.9998C101.8 58.2998 103.1 58.3998 104.5 58.3998C105.8 58.3998 107.2 58.1998 108.6 57.8998C114.3 56.3998 119.1 51.8998 122.8 44.3998C123.3 43.6998 123.1 42.8998 122.4 42.5998Z" fill="#024E87"/>
<path d="M89.3 44.7C88.7 43 88.3 41.1 88.5 39C88.8 33.9 92 29 98 24.4C98.6 24 98.7 23.1 98.3 22.5C97.9 21.9 97 21.8 96.4 22.2C89.8 27.3 86.2 32.8 85.8 38.7C85.6 41.6 86.2 44.1 87 46.2C87.7 45.6 88.4 45.1 89.3 44.7Z" fill="#024E87"/>
<path d="M97.2 26.7998C99.0777 26.7998 100.6 25.2328 100.6 23.2998C100.6 21.3668 99.0777 19.7998 97.2 19.7998C95.3222 19.7998 93.8 21.3668 93.8 23.2998C93.8 25.2328 95.3222 26.7998 97.2 26.7998Z" fill="#024E87"/>
<path d="M121.2 46.7998C123.078 46.7998 124.6 45.2328 124.6 43.2998C124.6 41.3668 123.078 39.7998 121.2 39.7998C119.322 39.7998 117.8 41.3668 117.8 43.2998C117.8 45.2328 119.322 46.7998 121.2 46.7998Z" fill="#024E87"/>
<path d="M89.9 58.1998C91.3 59.0998 93.1 59.3998 94.7 58.9998C98.1 58.1998 100.3 54.7998 99.5 51.2998C99.1 49.5998 98.1 48.1998 96.7 47.2998C95.7 46.6998 94.5 46.2998 93.3 46.2998C92.8 46.2998 92.3 46.3998 91.9 46.4998C90.2 46.8998 88.8 47.8998 87.9 49.2998C87 50.6998 86.7 52.4998 87.1 54.0998C87.5 55.8998 88.5 57.2998 89.9 58.1998Z" fill="#4CDEC3"/>
<path d="M85.9 58C83.3 60.8 81.8 64.6 80.2 68.4C77.4 75.2 74.8 81.7 66.8 82.7C61.1 83.4 56.7 82.1 53.7 79C46.6 71.5 49.3 55.8 49.3 55.6C49.4 54.9 48.9 54.2 48.2 54C47.5 53.9 46.8 54.4 46.6 55.1C46.5 55.8 43.7 72.3 51.7 80.8C54.7 84 58.8 85.6 63.8 85.6C64.8 85.6 65.9 85.5 67.1 85.4C76.7 84.2 79.9 76.4 82.7 69.5C84.2 65.8 85.6 62.4 87.7 60C87 59.4 86.4 58.7 85.9 58Z" fill="#4CDEC3"/>
<path d="M89.9 58.1998C91.3 59.0998 93.1 59.3998 94.7 58.9998C98.1 58.1998 100.3 54.7998 99.5 51.2998C99.1 49.5998 98.1 48.1998 96.7 47.2998C95.7 46.6998 94.5 46.2998 93.3 46.2998C92.8 46.2998 92.3 46.3998 91.9 46.4998C90.2 46.8998 88.8 47.8998 87.9 49.2998C87 50.6998 86.7 52.4998 87.1 54.0998C87.5 55.8998 88.5 57.2998 89.9 58.1998Z" fill="#4CDEC3"/>
<path d="M85.9 58C83.3 60.8 81.8 64.6 80.2 68.4C77.4 75.2 74.8 81.7 66.8 82.7C61.1 83.4 56.7 82.1 53.7 79C46.6 71.5 49.3 55.8 49.3 55.6C49.4 54.9 48.9 54.2 48.2 54C47.5 53.9 46.8 54.4 46.6 55.1C46.5 55.8 43.7 72.3 51.7 80.8C54.7 84 58.8 85.6 63.8 85.6C64.8 85.6 65.9 85.5 67.1 85.4C76.7 84.2 79.9 76.4 82.7 69.5C84.2 65.8 85.6 62.4 87.7 60C87 59.4 86.4 58.7 85.9 58Z" fill="#4CDEC3"/>
<path d="M63.1 0.1C44.8 0.1 45.1 16.6 45.1 16.6C45.1 16.6 42.8 0 28 0C9.10001 0 2.00001 21.1 10.3 34.7C18.6 48.3 47.4 66.8 47.4 66.8C47.4 66.8 71.4 45.1 79.8 31.5C88.2 18 77.8 0.1 63.1 0.1Z" fill="#4CDEC3"/>
<path d="M65.4 0C50.6 0 48 14.7 48 14.7C48 14.7 45.3 0 30.6 0C15.9 0 4.90002 15.9 13.2 29.5C21.5 43.1 48 65.3 48 65.3C48 65.3 74.3 43 82.7 29.5C91.1 15.9 80.1 0 65.4 0Z" fill="#024E87"/>
<path d="M60.2 11.5996C52.9 11.5996 49.9 16.6996 48.7 19.6996C48.5 20.2996 47.6 20.2996 47.4 19.6996C46.2 16.6996 43.1 11.5996 35.9 11.5996C25.6 11.5996 17.9 22.7996 23.8 32.2996C28.5 39.8996 41.2 51.2996 46.1 55.5996C47.3 56.5996 49 56.5996 50.2 55.5996C55.2 51.2996 67.8 39.7996 72.5 32.2996C78.2 22.6996 70.5 11.5996 60.2 11.5996Z" fill="white"/>
<path d="M48.7 45.4002H47.3C45.1 45.4002 43.4 43.6002 43.4 41.5002V26.1002C43.4 23.9002 45.2 22.2002 47.3 22.2002H48.7C50.9 22.2002 52.6 24.0002 52.6 26.1002V41.4002C52.6 43.6002 50.8 45.4002 48.7 45.4002Z" fill="#024E87"/>
<path d="M36.4 34.5002V33.1002C36.4 30.9002 38.2 29.2002 40.3 29.2002H55.5C57.7 29.2002 59.4 31.0002 59.4 33.1002V34.5002C59.4 36.7002 57.6 38.4002 55.5 38.4002H40.4C38.2 38.4002 36.4 36.6002 36.4 34.5002Z" fill="#024E87"/>
<path d="M2.10003 90.5996C2.30003 90.5996 2.60002 90.6996 2.90002 90.7996C3.20002 90.8996 3.40002 91.0996 3.50002 91.2996L9.80002 101L8.50002 100.9L14.9 91.2996C15.2 90.7996 15.6 90.5996 16.2 90.5996C16.6 90.5996 17 90.6996 17.3 90.9996C17.6 91.2996 17.8 91.6996 17.8 92.0996V107.1C17.8 107.5 17.7 107.9 17.4 108.2C17.1 108.5 16.7 108.7 16.2 108.7C15.7 108.7 15.3 108.5 15 108.2C14.7 107.9 14.5 107.5 14.5 107.1V94.9996L15.5 95.1996L10.2 103.3C10 103.5 9.90003 103.7 9.60003 103.8C9.40003 103.9 9.10002 104 8.90002 104C8.70002 104 8.40003 104 8.20003 103.8C8.00003 103.7 7.80003 103.5 7.60003 103.3L2.70003 95.4996L3.40002 94.0996V107.2C3.40002 107.6 3.30002 108 3.00002 108.3C2.70002 108.6 2.40002 108.8 1.90002 108.8C1.50002 108.8 1.10002 108.6 0.800024 108.3C0.500024 108 0.400024 107.6 0.400024 107.2V92.1996C0.400024 91.7996 0.600024 91.3996 0.900024 91.0996C1.20002 90.6996 1.60003 90.5996 2.10003 90.5996Z" fill="#024E87"/>
<path d="M23.2 90.5996H31.8C32.2 90.5996 32.6 90.6996 32.9 90.9996C33.2 91.2996 33.4 91.6996 33.4 92.0996C33.4 92.4996 33.2 92.8996 32.9 93.0996C32.6 93.2996 32.2 93.4996 31.8 93.4996H24.6L24.8 93.0996V98.0996L24.6 97.9996H30.6C31 97.9996 31.4 98.0996 31.7 98.3996C32 98.6996 32.2 99.0996 32.2 99.4996C32.2 99.8996 32 100.3 31.7 100.5C31.4 100.8 31 100.9 30.6 100.9H24.6L24.7 100.7V105.9L24.5 105.7H31.7C32.1 105.7 32.5 105.9 32.8 106.2C33.1 106.5 33.3 106.9 33.3 107.2C33.3 107.6 33.1 108 32.8 108.3C32.5 108.6 32.1 108.7 31.7 108.7H23.1C22.7 108.7 22.3 108.5 22 108.2C21.7 107.9 21.5 107.5 21.5 107.1V92.0996C21.5 91.6996 21.7 91.2996 22 90.9996C22.3 90.7996 22.7 90.5996 23.2 90.5996Z" fill="#024E87"/>
<path d="M44.1 90.5996C45.3 90.5996 46.4001 90.7996 47.4001 91.2996C48.4001 91.7996 49.2001 92.3996 49.8001 93.2996C50.5001 94.0996 51.0001 95.0996 51.3001 96.1996C51.6001 97.2996 51.8001 98.4996 51.8001 99.6996C51.8001 101.4 51.5001 102.9 50.9001 104.3C50.3001 105.7 49.4001 106.8 48.3001 107.6C47.2001 108.4 45.7 108.8 44.1 108.8H37.9001C37.5001 108.8 37.1 108.6 36.8 108.3C36.5 108 36.3 107.6 36.3 107.2V92.1996C36.3 91.7996 36.5 91.3996 36.8 91.0996C37.1 90.7996 37.5001 90.5996 37.9001 90.5996H44.1ZM43.8001 105.8C44.9001 105.8 45.8 105.5 46.5 105C47.2 104.5 47.7 103.7 48 102.8C48.3 101.9 48.5 100.9 48.5 99.7996C48.5 98.9996 48.4 98.1996 48.2 97.4996C48 96.7996 47.7001 96.0996 47.4001 95.5996C47.0001 94.9996 46.5 94.5996 46 94.2996C45.4 93.9996 44.7001 93.7996 43.9001 93.7996H39.4001L39.7001 93.5996V106L39.5 105.7H43.8001V105.8Z" fill="#024E87"/>
<path d="M58 107.2C58 107.6 57.8 108 57.5 108.3C57.2 108.6 56.8 108.8 56.4 108.8C55.9 108.8 55.5 108.6 55.2 108.3C54.9 108 54.8 107.6 54.8 107.2V92.1996C54.8 91.7996 55 91.3996 55.3 91.0996C55.6 90.7996 56 90.5996 56.5 90.5996C56.9 90.5996 57.3 90.7996 57.6 91.0996C57.9 91.3996 58.1 91.7996 58.1 92.1996V107.2H58Z" fill="#024E87"/>
<path d="M74.5 91.4998C74.9 91.6998 75.2 92.0998 75.3 92.5998C75.4 93.0998 75.3 93.4998 74.9 93.8998C74.7 94.1998 74.4 94.3998 74 94.3998C73.6 94.3998 73.3 94.3998 72.9 94.1998C72.5 93.9998 72.1 93.8998 71.6 93.7998C71.1 93.6998 70.7 93.5998 70.2 93.5998C69.3 93.5998 68.4 93.6998 67.7 93.9998C67 94.2998 66.3 94.6998 65.8 95.2998C65.3 95.7998 64.9 96.4998 64.6 97.1998C64.3 97.8998 64.2 98.7998 64.2 99.6998C64.2 100.8 64.4 101.7 64.7 102.4C65 103.2 65.4 103.8 66 104.3C66.5 104.8 67.2 105.2 67.9 105.5C68.6 105.8 69.4 105.9 70.2 105.9C70.7 105.9 71.1 105.9 71.6 105.8C72.1 105.7 72.5 105.6 72.9 105.3C73.3 105.1 73.6 105.1 74 105.1C74.4 105.2 74.6 105.3 74.9 105.6C75.2 106 75.4 106.5 75.3 106.9C75.2 107.4 74.9 107.7 74.5 107.9C74.1 108.1 73.6 108.3 73.1 108.5C72.6 108.6 72.1 108.8 71.7 108.8C71.3 108.8 70.7 108.9 70.2 108.9C69 108.9 67.8 108.7 66.7 108.3C65.6 107.9 64.6 107.3 63.7 106.5C62.8 105.7 62.1 104.8 61.6 103.6C61.1 102.4 60.9 101.1 60.9 99.4998C60.9 98.1998 61.1 96.8998 61.6 95.7998C62.1 94.6998 62.7 93.6998 63.5 92.8998C64.3 92.0998 65.3 91.3998 66.5 90.9998C67.6 90.4998 68.9 90.2998 70.2 90.2998C71 90.2998 71.7 90.3998 72.4 90.5998C73.2 90.8998 73.9 91.1998 74.5 91.4998Z" fill="#024E87"/>
<path d="M84.7 94.6998L79.1 107.9C79 108.2 78.8 108.5 78.5 108.7C78.3 108.9 78 109 77.7 109C77.2 109 76.9 108.9 76.7 108.6C76.5 108.3 76.4 108 76.4 107.6C76.4 107.4 76.4 107.3 76.5 107.1L82.9 91.5998C83 91.2998 83.2 90.9998 83.5 90.7998C83.8 90.5998 84.1 90.4998 84.4 90.5998C84.7 90.5998 85 90.6998 85.3 90.8998C85.6 91.0998 85.8 91.2998 85.9 91.6998L92.2 106.9C92.3 107.1 92.3 107.3 92.3 107.5C92.3 108 92.1 108.3 91.8 108.6C91.5 108.9 91.2 109 90.8 109C90.5 109 90.2 108.9 90 108.7C89.7 108.5 89.6 108.3 89.4 107.9L83.9 94.8998L84.7 94.6998ZM79.9 104.7L81.3 101.7H88.3L88.8 104.7H79.9Z" fill="#024E87"/>
<path d="M104.5 105.7C104.9 105.7 105.3 105.8 105.6 106.1C105.9 106.4 106.1 106.8 106.1 107.2C106.1 107.6 105.9 108 105.6 108.3C105.3 108.6 104.9 108.7 104.5 108.7H96.1C95.7 108.7 95.3 108.5 95 108.2C94.7 107.9 94.5 107.5 94.5 107.1V92.1C94.5 91.7 94.7 91.3 95 91C95.3 90.7 95.7 90.5 96.2 90.5C96.6 90.5 97 90.7 97.3 91C97.6 91.3 97.8 91.7 97.8 92.1V106.1L97.2 105.7H104.5Z" fill="#024E87"/>
<path d="M125.4 99.6994C125.4 100.999 125.2 102.199 124.8 103.299C124.4 104.399 123.8 105.399 123 106.299C122.2 107.199 121.3 107.799 120.2 108.299C119.1 108.799 118 108.999 116.7 108.999C115.4 108.999 114.3 108.799 113.2 108.299C112.1 107.799 111.2 107.099 110.4 106.299C109.6 105.399 109 104.499 108.6 103.299C108.2 102.199 108 100.999 108 99.6994C108 98.3994 108.2 97.1994 108.6 96.0994C109 94.9994 109.6 93.9994 110.4 93.0994C111.2 92.1994 112.1 91.5994 113.2 91.0994C114.3 90.5994 115.4 90.3994 116.7 90.3994C118 90.3994 119.1 90.5994 120.2 91.0994C121.3 91.5994 122.2 92.2994 123 93.0994C123.8 93.9994 124.4 94.8994 124.8 96.0994C125.2 97.1994 125.4 98.3994 125.4 99.6994ZM122.1 99.6994C122.1 98.4994 121.9 97.4994 121.4 96.5994C120.9 95.6994 120.3 94.8994 119.5 94.3994C118.7 93.7994 117.8 93.5994 116.7 93.5994C115.6 93.5994 114.7 93.8994 113.9 94.3994C113.1 94.9994 112.5 95.6994 112 96.5994C111.5 97.4994 111.3 98.5994 111.3 99.7994C111.3 100.999 111.5 101.999 112 102.899C112.5 103.799 113.1 104.599 113.9 105.099C114.7 105.699 115.6 105.899 116.7 105.899C117.8 105.899 118.7 105.599 119.5 105.099C120.3 104.499 120.9 103.799 121.4 102.899C121.9 101.899 122.1 100.799 122.1 99.6994Z" fill="#024E87"/>
</g>
<defs>
<clipPath id="clip0_651_9">
<rect width="126" height="109" fill="white"/>
</clipPath>
</defs>
</svg>
