<svg width="196" height="60" viewBox="0 0 196 60" fill="none" xmlns="http://www.w3.org/2000/svg">
<g clip-path="url(#clip0_4_3)">
<mask id="mask0_4_3" style="mask-type:luminance" maskUnits="userSpaceOnUse" x="0" y="0" width="196" height="60">
<path d="M196 0H0V59.2474H196V0Z" fill="white"/>
</mask>
<g mask="url(#mask0_4_3)">
<path d="M49.9525 58.0587C45.801 58.0587 40.8112 56.667 35.4621 54.0028C29.5541 50.9808 24.1252 47.1635 19.2951 42.5907C15.7423 39.3301 12.5488 35.7117 9.71462 31.8149C7.27959 28.5543 5.24375 24.9756 3.68692 21.198C2.28977 17.6989 1.61116 14.5576 1.65108 11.7741C1.691 8.91116 2.52928 6.60489 4.12603 4.89506C5.12399 3.86121 6.32155 3.06595 7.67878 2.62855C9.19568 2.11163 10.7525 1.87305 12.3492 1.87305C15.1036 1.87305 18.2572 2.4695 21.6503 3.70216C25.3627 5.05412 28.9154 6.84347 32.2287 8.95092C27.5183 6.76394 23.0075 5.57104 19.2152 5.57104C15.5028 5.57104 12.5089 6.68441 10.5928 8.83163C7.59894 12.132 7.35943 17.5796 9.8743 24.061C12.3892 30.5424 17.4189 37.4215 24.0055 43.3065C32.9073 51.2989 43.326 56.2296 51.2299 56.2296C54.623 56.2296 57.4572 55.2752 59.3733 53.4859C59.0539 54.0426 58.6547 54.5595 58.2156 55.0367C57.2576 56.0705 56.0201 56.826 54.7028 57.3032C53.1061 57.8599 51.5492 58.0984 49.9525 58.0587ZM42.3281 52.4123C39.2943 51.2591 36.46 49.7481 33.8254 47.8793L34.0649 47.9588C35.3822 48.6348 36.7794 49.2312 38.1765 49.7084C40.3721 50.5036 43.6055 51.458 46.5195 51.458C48.9545 51.458 50.8307 50.782 52.1081 49.4698C53.5053 47.9985 54.144 45.6923 53.9843 42.6305L55.581 40.6423L55.3814 33.4054C57.6169 36.825 59.0539 40.2447 59.4531 43.3462C59.6527 44.7777 59.6128 46.2092 59.3334 47.6407C59.0539 48.9131 58.4551 50.106 57.6169 51.0603C55.9802 52.969 53.3855 53.9631 50.1521 53.9631C47.4776 53.9233 44.803 53.3666 42.3281 52.4123ZM42.7672 23.9019L41.4898 22.4705V17.8579L48.1562 23.9417L42.7672 23.9019ZM24.5643 9.78596L22.289 11.8934C18.6564 11.8537 17.7782 11.297 13.427 13.6032C16.381 7.32063 24.5643 9.78596 24.5643 9.78596Z" fill="white"/>
<path d="M14.3452 25.1343H23.0475V13.8415C23.0475 11.6545 25.5224 11.8533 25.5224 11.8533H37.2585C37.2585 11.8533 39.5338 11.7738 39.5737 13.8415V25.1343H50.9904C53.5851 25.2138 53.5452 28.1961 53.5452 28.1961V39.1708C53.5452 39.1708 53.7049 41.7951 50.9904 41.8747H39.5737V48.9526C20.9717 41.3578 14.3452 25.1343 14.3452 25.1343Z" fill="#07CCEC"/>
<path d="M74.7819 16.029C75.9794 16.029 77.177 16.2676 78.2947 16.705C79.3725 17.1424 80.3705 17.7388 81.2886 18.4943C82.1269 17.6593 83.1648 17.0231 84.2426 16.6255C85.3204 16.2278 86.478 15.9893 87.6356 15.9893C88.953 15.9893 90.2303 16.2676 91.4279 16.7845C92.5855 17.3014 93.6234 18.0172 94.5016 18.892C95.3798 19.7668 96.0984 20.8404 96.5774 21.9538C97.0963 23.1069 97.3758 24.3793 97.3758 25.6518V43.2272C97.3758 44.102 97.0165 44.937 96.3778 45.5334C95.779 46.1299 94.9407 46.4878 94.1024 46.4878C93.2242 46.4878 92.386 46.1696 91.7872 45.5334C91.1485 44.937 90.8291 44.102 90.8291 43.2272V26.0494C90.8291 25.2144 90.5098 24.3793 89.911 23.7829C89.3122 23.1864 88.4739 22.8286 87.5957 22.8683C86.7574 22.8683 85.9591 23.1864 85.3603 23.7829C84.7615 24.3793 84.4022 25.2144 84.4422 26.0494V29.9462C84.4422 30.821 84.1228 31.6163 83.524 32.2525C82.9253 32.8887 82.1269 33.2068 81.2487 33.2068C80.3705 33.2466 79.5322 32.8887 78.9334 32.2525C78.3346 31.656 77.9754 30.821 78.0153 29.9462V26.0494C78.0153 25.1746 77.656 24.3793 77.0173 23.7829C76.4185 23.1864 75.5802 22.8286 74.742 22.8683C73.9037 22.8683 73.0654 23.1864 72.4666 23.7829C71.8279 24.3793 71.4686 25.1746 71.4686 26.0494V43.2669C71.4686 44.102 71.1493 44.937 70.5505 45.5732C69.9517 46.2094 69.1134 46.5673 68.2352 46.5275C67.3969 46.5275 66.5587 46.2094 65.9998 45.5732C65.401 44.9767 65.0817 44.1417 65.0817 43.2669V25.7313C65.1615 24.4191 65.4809 23.1069 65.9998 21.914C66.4788 20.7609 67.1574 19.727 68.0356 18.8522C68.8739 17.9774 69.8719 17.3014 70.9896 16.7845C72.2271 16.2676 73.5045 16.029 74.7819 16.029ZM111.906 23.425C113.423 23.425 114.94 23.7431 116.297 24.3793C117.694 25.0155 118.932 25.8506 120.01 26.9242C121.087 27.9978 121.926 29.2305 122.564 30.5824C123.203 31.9344 123.522 33.4454 123.522 34.9564C123.562 35.7119 123.203 36.4674 122.604 36.9048C121.926 37.3819 121.127 37.6205 120.289 37.5808H107.555C108.593 39.4099 110.07 40.2847 111.906 40.2847C112.345 40.2847 112.784 40.2449 113.184 40.1256C113.503 40.0461 113.822 39.9268 114.102 39.8075C114.381 39.6882 114.621 39.5689 114.9 39.4894C115.219 39.3701 115.499 39.3303 115.818 39.3303C116.457 39.3303 117.056 39.5292 117.575 39.887C118.054 40.2051 118.453 40.6823 118.692 41.1992C118.932 41.7162 119.012 42.3126 118.932 42.909C118.852 43.5453 118.533 44.1417 118.093 44.5791C117.255 45.2551 116.257 45.772 115.219 46.0504C114.142 46.3287 112.984 46.4878 111.866 46.4878C110.349 46.5673 108.832 46.2492 107.475 45.6527C106.078 45.0563 104.841 44.1815 103.763 43.1079C102.685 42.0343 101.807 40.7618 101.208 39.3701C100.609 37.9784 100.29 36.4674 100.29 34.9166C100.29 33.4056 100.609 31.9344 101.208 30.5824C101.807 29.1907 102.685 27.958 103.723 26.8844C104.801 25.8108 106.038 24.936 107.395 24.3396C108.832 23.7431 110.349 23.425 111.906 23.425ZM116.257 32.2922C115.818 31.4174 115.179 30.7017 114.341 30.2245C113.583 29.8269 112.744 29.6281 111.906 29.6281C111.028 29.6281 110.19 29.8269 109.431 30.2245C108.633 30.7415 107.954 31.4572 107.555 32.2922H116.257ZM145.198 16.1085C145.997 16.1085 146.795 16.4267 147.394 16.9833C148.032 17.5798 148.352 18.4148 148.312 19.2499V34.9564C148.312 36.4674 147.992 37.9784 147.394 39.4099C146.795 40.8016 145.917 42.0343 144.839 43.0681C143.761 44.102 142.524 44.9767 141.126 45.5732C139.729 46.2094 138.252 46.4878 136.735 46.4878C135.219 46.4878 133.702 46.1696 132.344 45.5732C130.947 44.9767 129.71 44.1417 128.632 43.1079C127.554 42.0343 126.676 40.8016 126.077 39.4496C125.439 38.0579 125.119 36.5071 125.119 34.9564C125.119 33.4454 125.438 31.9344 126.037 30.5029C126.636 29.1112 127.514 27.8785 128.592 26.8447C129.67 25.8108 130.907 24.936 132.304 24.3396C133.702 23.7033 135.219 23.3852 136.775 23.425C138.612 23.425 140.448 23.8624 142.085 24.6974V19.2101C142.085 18.8125 142.164 18.3751 142.364 18.0172C142.524 17.6593 142.763 17.3014 143.043 17.0231C143.322 16.7448 143.681 16.5062 144.041 16.3471C144.36 16.2278 144.799 16.1085 145.198 16.1085ZM136.696 29.6281C135.977 29.6281 135.258 29.7871 134.62 30.0655C133.981 30.3438 133.382 30.7415 132.903 31.2186C132.424 31.6958 132.025 32.2922 131.746 32.9284C131.466 33.5647 131.307 34.2406 131.307 34.9564C131.307 35.6721 131.466 36.3879 131.746 37.0241C132.025 37.6603 132.424 38.217 132.903 38.7339C133.422 39.2111 133.981 39.6087 134.62 39.887C135.258 40.1654 135.977 40.3244 136.696 40.3244C137.374 40.3244 138.093 40.1654 138.691 39.887C139.33 39.6087 139.889 39.2111 140.408 38.7339C140.887 38.2567 141.286 37.6603 141.566 37.0241C141.845 36.3879 142.005 35.6721 142.005 34.9564C142.005 34.2406 141.845 33.4851 141.566 32.8489C141.286 32.2127 140.887 31.656 140.408 31.1391C139.929 30.6619 139.33 30.2643 138.691 30.0257C138.093 29.7871 137.414 29.6281 136.696 29.6281ZM154.739 16.2676C155.537 16.2676 156.335 16.5857 156.854 17.1822C157.413 17.7786 157.733 18.5739 157.733 19.3691C157.733 20.1644 157.413 20.9597 156.854 21.5561C156.296 22.1526 155.537 22.5104 154.739 22.4707C153.9 22.4707 153.102 22.1526 152.463 21.5959C151.865 20.9597 151.505 20.1246 151.585 19.2499C151.625 18.4546 151.944 17.6991 152.583 17.1424C153.142 16.5857 153.9 16.2676 154.739 16.2676ZM154.739 23.5841C155.537 23.5841 156.296 23.9022 156.814 24.4986C157.373 25.0951 157.693 25.8903 157.733 26.6856V43.585C157.773 44.3803 157.453 45.1358 156.934 45.7323C156.335 46.3287 155.577 46.6468 154.739 46.6866C153.98 46.7263 153.222 46.448 152.623 45.9311C152.024 45.3744 151.665 44.6189 151.585 43.7838V26.4868C151.625 25.6915 151.984 24.9758 152.583 24.4191C153.142 23.9022 153.94 23.5841 154.739 23.5841ZM190.665 16.2676C191.464 16.2676 192.262 16.5857 192.781 17.1822C193.34 17.7786 193.659 18.5739 193.659 19.3691C193.659 20.1644 193.34 20.9597 192.781 21.5561C192.222 22.1526 191.464 22.5104 190.665 22.4707C189.827 22.4707 189.029 22.1526 188.39 21.5959C187.791 20.9597 187.432 20.1246 187.512 19.2499C187.552 18.4546 187.871 17.6991 188.51 17.1424C189.069 16.5857 189.827 16.2676 190.665 16.2676ZM190.665 23.5841C191.464 23.5841 192.222 23.9022 192.741 24.4986C193.3 25.0951 193.619 25.8903 193.659 26.6856V43.585C193.699 44.3803 193.38 45.1358 192.861 45.7323C192.262 46.3287 191.504 46.6468 190.665 46.6866C189.907 46.7263 189.148 46.448 188.55 45.9311C187.951 45.3744 187.592 44.6189 187.512 43.7838V26.4868C187.552 25.6915 187.911 24.9758 188.51 24.4191C189.069 23.9022 189.867 23.5841 190.665 23.5841Z" fill="white"/>
<path d="M179.249 23.9417C179.807 23.3452 180.566 23.0271 181.364 23.0669C182.203 23.0669 182.961 23.4248 183.56 23.9815C184.119 24.5381 184.438 25.3334 184.438 26.1287C184.438 26.9637 184.159 27.7192 183.56 28.3157L177.332 34.5585L183.56 40.8411C184.119 41.4376 184.478 42.1931 184.478 43.0281C184.558 44.6982 183.24 46.0899 181.564 46.1694C181.524 46.1694 181.444 46.1694 181.404 46.1694C180.526 46.1694 179.728 45.8115 179.129 45.1753L172.902 39.012L166.674 45.2549C166.075 45.7718 165.317 46.0899 164.519 46.1297C163.68 46.2092 162.842 45.8911 162.283 45.2549C161.724 44.6982 161.365 43.9427 161.365 43.1474C161.325 42.3124 161.605 41.5171 162.203 40.9206L168.59 34.5585L162.203 28.1964C161.605 27.6397 161.325 26.8842 161.405 26.0889C161.485 25.2936 161.804 24.5381 162.323 23.9417C162.882 23.3055 163.72 22.9476 164.559 22.9874C165.357 23.0669 166.115 23.385 166.714 23.9417L172.902 30.1845L179.249 23.9417Z" fill="#07CCEC"/>
</g>
</g>
<defs>
<clipPath id="clip0_4_3">
<rect width="196" height="60" fill="white"/>
</clipPath>
</defs>
</svg>
