<?xml version="1.0" encoding="utf-8"?>
<!-- Generator: Adobe Illustrator 26.3.1, SVG Export Plug-In . SVG Version: 6.00 Build 0)  -->
<svg width="139" height="42" version="1.1" id="Ebene_1" xmlns="http://www.w3.org/2000/svg" xmlns:xlink="http://www.w3.org/1999/xlink" x="0px" y="0px"
	 viewBox="0 0 491 149" style="enable-background:new 0 0 491 149;" xml:space="preserve">
<style type="text/css">
	.st0{clip-path:url(#SVGID_00000137832438552219165290000002202100209040932252_);}
	.st1{fill:#27467C;}
	.st2{fill:#07CCEC;}
</style>
<g>
	<defs>
		<rect id="SVGID_1_" width="491" height="149"/>
	</defs>
	<clipPath id="SVGID_00000140722143463290233580000009277906836899948220_">
		<use xlink:href="#SVGID_1_"  style="overflow:visible;"/>
	</clipPath>
	<g id="plus" style="clip-path:url(#SVGID_00000140722143463290233580000009277906836899948220_);">
		<g id="Component_1_1" transform="translate(4.136 4.711)">
			<path id="Path_8" class="st1" d="M121,141.3c-10.4,0-22.9-3.5-36.3-10.2c-14.8-7.6-28.4-17.2-40.5-28.7
				c-8.9-8.2-16.9-17.3-24-27.1C14.1,67.1,9,58.1,5.1,48.6C1.6,39.8-0.1,31.9,0,24.9c0.1-7.2,2.2-13,6.2-17.3C8.7,5,11.7,3,15.1,1.9
				c3.8-1.3,7.7-1.9,11.7-1.9c6.9,0,14.8,1.5,23.3,4.6c9.3,3.4,18.2,7.9,26.5,13.2c-11.8-5.5-23.1-8.5-32.6-8.5
				c-9.3,0-16.8,2.8-21.6,8.2c-7.5,8.3-8.1,22-1.8,38.3s18.9,33.6,35.4,48.4c22.3,20.1,48.4,32.5,68.2,32.5c8.5,0,15.6-2.4,20.4-6.9
				c-0.8,1.4-1.8,2.7-2.9,3.9c-2.4,2.6-5.5,4.5-8.8,5.7C128.9,140.8,125,141.4,121,141.3L121,141.3z M101.9,127.1
				c-7.6-2.9-14.7-6.7-21.3-11.4l0.6,0.2c3.3,1.7,6.8,3.2,10.3,4.4c5.5,2,13.6,4.4,20.9,4.4c6.1,0,10.8-1.7,14-5
				c3.5-3.7,5.1-9.5,4.7-17.2l4-5l-0.5-18.2c5.6,8.6,9.2,17.2,10.2,25c0.5,3.6,0.4,7.2-0.3,10.8c-0.7,3.2-2.2,6.2-4.3,8.6
				c-4.1,4.8-10.6,7.3-18.7,7.3C114.8,130.9,108.1,129.5,101.9,127.1z M103,55.4l-3.2-3.6V40.2l16.7,15.3L103,55.4z M57.4,19.9
				l-5.7,5.3c-9.1-0.1-11.3-1.5-22.2,4.3C36.9,13.7,57.4,19.9,57.4,19.9z"/>
			<path id="Path_4" class="st2" d="M31.8,58.5h21.8V30.1c0-5.5,6.2-5,6.2-5h29.4c0,0,5.7-0.2,5.8,5v28.4h28.6
				c6.5,0.2,6.4,7.7,6.4,7.7v27.6c0,0,0.4,6.6-6.4,6.8H95v17.8C48.4,99.3,31.8,58.5,31.8,58.5z"/>
			<path id="Path_6" class="st1" d="M183.2,35.6c3,0,6,0.6,8.8,1.7c2.7,1.1,5.2,2.6,7.5,4.5c2.1-2.1,4.7-3.7,7.4-4.7
				c2.7-1,5.6-1.6,8.5-1.6c3.3,0,6.5,0.7,9.5,2c2.9,1.3,5.5,3.1,7.7,5.3c2.2,2.2,4,4.9,5.2,7.7c1.3,2.9,2,6.1,2,9.3v44.2
				c0,2.2-0.9,4.3-2.5,5.8c-1.5,1.5-3.6,2.4-5.7,2.4c-2.2,0-4.3-0.8-5.8-2.4c-1.6-1.5-2.4-3.6-2.4-5.8V60.8c0-2.1-0.8-4.2-2.3-5.7
				c-1.5-1.5-3.6-2.4-5.8-2.3c-2.1,0-4.1,0.8-5.6,2.3c-1.5,1.5-2.4,3.6-2.3,5.7v9.8c0,2.2-0.8,4.2-2.3,5.8c-1.5,1.6-3.5,2.4-5.7,2.4
				c-2.2,0.1-4.3-0.8-5.8-2.4c-1.5-1.5-2.4-3.6-2.3-5.8v-9.8c0-2.2-0.9-4.2-2.5-5.7c-1.5-1.5-3.6-2.4-5.7-2.3
				c-2.1,0-4.2,0.8-5.7,2.3c-1.6,1.5-2.5,3.5-2.5,5.7v43.3c0,2.1-0.8,4.2-2.3,5.8c-1.5,1.6-3.6,2.5-5.8,2.4c-2.1,0-4.2-0.8-5.6-2.4
				c-1.5-1.5-2.3-3.6-2.3-5.8V60c0.2-3.3,1-6.6,2.3-9.6c1.2-2.9,2.9-5.5,5.1-7.7c2.1-2.2,4.6-3.9,7.4-5.2
				C176.8,36.2,180,35.6,183.2,35.6z M276.2,54.2c3.8,0,7.6,0.8,11,2.4c3.5,1.6,6.6,3.7,9.3,6.4c2.7,2.7,4.8,5.8,6.4,9.2
				c1.6,3.4,2.4,7.2,2.4,11c0.1,1.9-0.8,3.8-2.3,4.9c-1.7,1.2-3.7,1.8-5.8,1.7h-31.9c2.6,4.6,6.3,6.8,10.9,6.8
				c1.1,0,2.2-0.1,3.2-0.4c0.8-0.2,1.6-0.5,2.3-0.8c0.7-0.3,1.3-0.6,2-0.8c0.8-0.3,1.5-0.4,2.3-0.4c1.6,0,3.1,0.5,4.4,1.4
				c1.2,0.8,2.2,2,2.8,3.3c0.6,1.3,0.8,2.8,0.6,4.3c-0.2,1.6-1,3.1-2.1,4.2c-2.1,1.7-4.6,3-7.2,3.7c-2.7,0.7-5.6,1.1-8.4,1.1
				c-3.8,0.2-7.6-0.6-11-2.1c-3.5-1.5-6.6-3.7-9.3-6.4c-2.7-2.7-4.9-5.9-6.4-9.4c-1.5-3.5-2.3-7.3-2.3-11.2c0-3.8,0.8-7.5,2.3-10.9
				c1.5-3.5,3.7-6.6,6.3-9.3c2.7-2.7,5.8-4.9,9.2-6.4C268.5,55,272.3,54.2,276.2,54.2z M287.1,76.5c-1.1-2.2-2.7-4-4.8-5.2
				c-1.9-1-4-1.5-6.1-1.5c-2.2,0-4.3,0.5-6.2,1.5c-2,1.3-3.7,3.1-4.7,5.2H287.1z M359.6,35.8c2,0,4,0.8,5.5,2.2
				c1.6,1.5,2.4,3.6,2.3,5.7v39.5c0,3.8-0.8,7.6-2.3,11.2c-1.5,3.5-3.7,6.6-6.4,9.2c-2.7,2.6-5.8,4.8-9.3,6.3
				c-3.5,1.6-7.2,2.3-11,2.3c-3.8,0-7.6-0.8-11-2.3c-3.5-1.5-6.6-3.6-9.3-6.2c-2.7-2.7-4.9-5.8-6.4-9.2c-1.6-3.5-2.4-7.4-2.4-11.3
				c0-3.8,0.8-7.6,2.3-11.2c1.5-3.5,3.7-6.6,6.4-9.2c2.7-2.6,5.8-4.8,9.3-6.3c3.5-1.6,7.3-2.4,11.2-2.3c4.6,0,9.2,1.1,13.3,3.2V43.6
				c0-1,0.2-2.1,0.7-3c0.4-0.9,1-1.8,1.7-2.5c0.7-0.7,1.6-1.3,2.5-1.7C357.5,36.1,358.6,35.8,359.6,35.8z M338.3,69.8
				c-1.8,0-3.6,0.4-5.2,1.1c-1.6,0.7-3.1,1.7-4.3,2.9c-1.2,1.2-2.2,2.7-2.9,4.3c-0.7,1.6-1.1,3.3-1.1,5.1c0,1.8,0.4,3.6,1.1,5.2
				c0.7,1.6,1.7,3,2.9,4.3c1.3,1.2,2.7,2.2,4.3,2.9c1.6,0.7,3.4,1.1,5.2,1.1c1.7,0,3.5-0.4,5-1.1c1.6-0.7,3-1.7,4.3-2.9
				c1.2-1.2,2.2-2.7,2.9-4.3c0.7-1.6,1.1-3.4,1.1-5.2c0-1.8-0.4-3.7-1.1-5.3c-0.7-1.6-1.7-3-2.9-4.3c-1.2-1.2-2.7-2.2-4.3-2.8
				C341.8,70.2,340.1,69.8,338.3,69.8z M383.5,36.2c2,0,4,0.8,5.3,2.3C390.2,40,391,42,391,44c0,2-0.8,4-2.2,5.5
				c-1.4,1.5-3.3,2.4-5.3,2.3c-2.1,0-4.1-0.8-5.7-2.2c-1.5-1.6-2.4-3.7-2.2-5.9c0.1-2,0.9-3.9,2.5-5.3
				C379.5,37,381.4,36.2,383.5,36.2L383.5,36.2z M383.5,54.6c2,0,3.9,0.8,5.2,2.3c1.4,1.5,2.2,3.5,2.3,5.5v42.5c0.1,2-0.7,3.9-2,5.4
				c-1.5,1.5-3.4,2.3-5.5,2.4c-1.9,0.1-3.8-0.6-5.3-1.9c-1.5-1.4-2.4-3.3-2.6-5.4V61.9c0.1-2,1-3.8,2.5-5.2
				C379.5,55.4,381.5,54.6,383.5,54.6L383.5,54.6z M473.5,36.2c2,0,4,0.8,5.3,2.3C480.2,40,481,42,481,44c0,2-0.8,4-2.2,5.5
				c-1.4,1.5-3.3,2.4-5.3,2.3c-2.1,0-4.1-0.8-5.7-2.2c-1.5-1.6-2.4-3.7-2.2-5.9c0.1-2,0.9-3.9,2.5-5.3
				C469.5,37,471.4,36.2,473.5,36.2L473.5,36.2z M473.5,54.6c2,0,3.9,0.8,5.2,2.3c1.4,1.5,2.2,3.5,2.3,5.5v42.5c0.1,2-0.7,3.9-2,5.4
				c-1.5,1.5-3.4,2.3-5.5,2.4c-1.9,0.1-3.8-0.6-5.3-1.9c-1.5-1.4-2.4-3.3-2.6-5.4V61.9c0.1-2,1-3.8,2.5-5.2
				C469.5,55.4,471.5,54.6,473.5,54.6L473.5,54.6z"/>
			<path id="Path_7" class="st2" d="M444.9,55.5c1.4-1.5,3.3-2.3,5.3-2.2c2.1,0,4,0.9,5.5,2.3c1.4,1.4,2.2,3.4,2.2,5.4
				c0,2.1-0.7,4-2.2,5.5l-15.6,15.7L455.7,98c1.4,1.5,2.3,3.4,2.3,5.5c0.2,4.2-3.1,7.7-7.3,7.9c-0.1,0-0.3,0-0.4,0
				c-2.2,0-4.2-0.9-5.7-2.5L429,93.4l-15.6,15.7c-1.5,1.3-3.4,2.1-5.4,2.2c-2.1,0.2-4.2-0.6-5.6-2.2c-1.4-1.4-2.3-3.3-2.3-5.3
				c-0.1-2.1,0.6-4.1,2.1-5.6l16-16l-16-16c-1.5-1.4-2.2-3.3-2-5.3c0.2-2,1-3.9,2.3-5.4c1.4-1.6,3.5-2.5,5.6-2.4
				c2,0.2,3.9,1,5.4,2.4L429,71.2L444.9,55.5z"/>
		</g>
	</g>
</g>
</svg>
