<svg width="38" height="29" viewBox="0 0 38 29" fill="none" xmlns="http://www.w3.org/2000/svg">
<path d="M0 21.394C0 23.37 0.696667 25.042 2.09 26.41C3.48333 27.778 5.168 28.4747 7.144 28.5H30.894C32.8447 28.5 34.5167 27.8033 35.91 26.41C37.3033 25.0167 38 23.3447 38 21.394V7.144C38 5.168 37.3033 3.48333 35.91 2.09C34.5167 0.696667 32.8447 0 30.894 0H7.144C5.168 0 3.48333 0.696667 2.09 2.09C0.696667 3.48333 0 5.168 0 7.144L0 21.394ZM4.75 19V9.5L19 19L33.25 9.5V19L26.144 16.606L32.566 23.066C32.0847 23.522 31.5273 23.75 30.894 23.75H7.144C6.46 23.75 5.90267 23.522 5.472 23.066L11.894 16.644L4.75 19ZM5.624 5.358C6.08 4.95267 6.58667 4.75 7.144 4.75H30.894C31.4513 4.75 31.9453 4.95267 32.376 5.358L19 14.25L5.624 5.358Z" fill="#27467C"/>
</svg>
