<svg width="64" height="64" viewBox="0 0 64 64" fill="none" xmlns="http://www.w3.org/2000/svg">
<path fill-rule="evenodd" clip-rule="evenodd" d="M34.1536 60.721C32.259 60.721 30.2733 60.1455 28.3263 59.023C22.9355 55.9136 18.8064 51.7137 16.0545 46.5398C13.4889 41.7142 12.574 36.9605 12.1092 33.8055C11.4528 28.9513 12.0636 24.1771 13.8757 19.9887C16.0489 14.9678 15.1661 7.91779 15.157 7.84696C15.1103 7.48617 15.3648 7.15613 15.7245 7.10933C16.0843 7.06252 16.4141 7.31598 16.461 7.67685C16.5011 7.97947 17.4019 15.1539 15.0827 20.5117C13.3904 24.4226 12.7978 29.0781 13.4121 33.6205C14.4662 40.7859 17.2295 51.1051 28.984 57.8834C31.228 59.1771 33.41 59.6522 35.4689 59.2936C36.5892 59.0972 37.6442 58.6953 38.6045 58.0981C39.566 57.5008 40.3938 56.7324 41.0641 55.8154C45.3817 49.8993 54.2735 34.7818 43.6242 22.1879C43.389 21.9105 43.4244 21.4948 43.7018 21.2607C43.9794 21.0255 44.3938 21.0609 44.6279 21.3384C55.8802 34.6448 46.6273 50.4246 42.126 56.5908C41.3555 57.6458 40.4041 58.5285 39.2987 59.216C38.1948 59.9011 36.9819 60.3636 35.6949 60.5896C35.1903 60.6776 34.6752 60.721 34.1536 60.721Z" fill="white"/>
<path fill-rule="evenodd" clip-rule="evenodd" d="M12.7602 34.3662C12.7098 34.3662 12.6584 34.3605 12.6071 34.3479C12.2556 34.2634 12.0361 33.9117 12.1195 33.5589C12.1538 33.4127 13.0113 29.9288 17.1541 25.6513C19.5602 23.1666 22.5906 20.9182 26.1624 18.9678C30.6044 16.5413 35.9038 14.5704 41.9136 13.11C43.7237 12.6703 46.5326 12.1119 48.3767 11.7785C48.7343 11.7146 49.0767 11.9509 49.1406 12.3083C49.2057 12.6657 48.9682 13.0083 48.6108 13.0723C46.785 13.4023 44.0078 13.9549 42.2242 14.3889C28.966 17.6112 21.8312 22.7441 18.1806 26.4826C14.2434 30.5134 13.4075 33.8295 13.3995 33.8615C13.3264 34.1629 13.057 34.3662 12.7602 34.3662Z" fill="white"/>
<path fill-rule="evenodd" clip-rule="evenodd" d="M31.0933 50.9466C30.9574 50.9466 30.8213 50.9044 30.7037 50.8187C30.4114 50.6029 30.3486 50.1918 30.5633 49.8995C34.4847 44.568 34.5667 37.2851 34.2676 33.4187C34.1124 31.4044 34.6889 29.4266 35.8913 27.8497C40.6201 21.6412 50.0176 18.0739 50.4161 17.9255C50.7552 17.7976 51.1344 17.9712 51.2623 18.3103C51.3891 18.6506 51.2166 19.0297 50.8774 19.1576C50.7827 19.193 41.4329 22.7443 36.9372 28.6467C35.9314 29.9667 35.4494 31.6259 35.5796 33.317C35.8927 37.365 35.7954 45.0043 31.6229 50.6783C31.4951 50.8542 31.2952 50.9466 31.0933 50.9466Z" fill="white"/>
<path fill-rule="evenodd" clip-rule="evenodd" d="M45.6856 37.4366C45.3785 37.4366 45.1031 37.2208 45.0415 36.9079C44.9012 36.2068 44.3278 35.6187 43.8711 35.2487C43.6176 35.0432 43.3309 34.8536 43.0146 34.6846C42.7314 34.5328 42.422 34.398 42.0931 34.2827C41.5486 34.0931 41.038 33.8819 40.5778 33.6558C36.37 31.6096 36.2375 28.6064 36.3757 27.4097C36.4181 27.0489 36.7445 26.7885 37.1042 26.8319C37.4653 26.8741 37.7243 27.1996 37.682 27.5604C37.577 28.4785 37.7025 30.7942 41.1556 32.474C41.5701 32.6772 42.0314 32.8679 42.527 33.0415C42.92 33.1785 43.2932 33.3418 43.6358 33.5256C44.0253 33.7334 44.3837 33.9698 44.7 34.2279C45.608 34.9621 46.1571 35.7774 46.3318 36.651C46.4026 37.0072 46.1708 37.3533 45.8145 37.424C45.7712 37.4332 45.7277 37.4366 45.6856 37.4366Z" fill="white"/>
<path fill-rule="evenodd" clip-rule="evenodd" d="M32.6223 4.48298V4.48412C32.6223 4.48298 32.6221 4.48302 32.6223 4.48298ZM22.3417 22.7715C21.9982 22.7715 21.7079 22.5031 21.6862 22.1549C21.2831 15.702 24.4313 11.8493 25.8027 10.4928C26.1521 10.1456 26.3143 9.64433 26.2344 9.15104L25.8544 6.7793C25.7537 6.15701 26.159 5.56779 26.7768 5.4399C27.2508 5.34168 27.9335 5.16584 28.4885 4.89526C28.7853 4.7502 29.1325 4.73651 29.4397 4.85754C29.7458 4.9786 29.9889 5.22409 30.1066 5.53239L30.7233 7.15047C30.7233 7.15157 30.7231 7.15276 30.7231 7.1539C30.7267 7.15386 30.7288 7.1539 30.7311 7.15276L31.3331 4.22037C31.4518 3.63912 31.9861 3.23606 32.5799 3.28287C32.9442 3.31254 33.6521 3.35369 34.3166 3.30117C34.633 3.27486 34.9401 3.3754 35.1811 3.58205C35.421 3.78757 35.5659 4.07417 35.5887 4.38934L35.8059 7.37654C35.8046 7.37993 35.8148 7.38226 35.8193 7.38226L37.2595 4.96945C37.4558 4.64287 37.7983 4.43046 38.1774 4.40078C38.5555 4.37107 38.9288 4.52753 39.1731 4.81871C39.4575 5.15783 39.9347 5.6226 40.5856 5.91263C40.878 6.04167 41.1074 6.28948 41.2125 6.58977C41.319 6.8924 41.2936 7.23041 41.1452 7.51816C41.1419 7.52499 41.1372 7.53185 41.1338 7.53868C40.2409 9.25951 40.5879 11.4017 41.981 12.7491L42.5257 13.2767C42.7873 13.5291 42.7941 13.9447 42.5417 14.2062C42.2893 14.4676 41.8725 14.4745 41.6122 14.2221L41.0664 13.6946C39.2898 11.9749 38.8225 9.2618 39.9085 7.04767C39.1903 6.6994 38.6501 6.20839 38.2904 5.80873L36.943 8.05597C36.6452 8.55152 36.0672 8.79479 35.5042 8.66117C34.9413 8.52642 34.5359 8.04796 34.4937 7.47132L34.2871 4.62228C33.6692 4.66114 33.0515 4.63719 32.597 4.60404L32.0216 7.41304C31.9029 7.99429 31.4254 8.4168 30.8339 8.46478C30.2437 8.51272 29.7046 8.17245 29.4933 7.61863L28.9305 6.14099C28.3391 6.4105 27.6754 6.58977 27.1741 6.70054L27.5339 8.94205C27.6801 9.85442 27.3786 10.784 26.7277 11.4268C25.4842 12.6577 22.6306 16.1588 22.9994 22.0727C23.0213 22.4358 22.7459 22.7475 22.3839 22.7704C22.3692 22.7715 22.3554 22.7715 22.3417 22.7715Z" fill="white"/>
<path fill-rule="evenodd" clip-rule="evenodd" d="M48.8096 13.0312C48.7741 13.0312 48.7421 13.0358 48.7124 13.0461C48.3279 13.1819 48.0867 14.3592 48.6028 15.8243C48.852 16.5322 49.2365 17.1648 49.6579 17.56C49.9549 17.8397 50.2574 17.9801 50.4276 17.9196C50.599 17.8603 50.7461 17.5611 50.8032 17.158C50.8845 16.5859 50.7872 15.8505 50.5383 15.1426C50.0623 13.7883 49.2354 13.0312 48.8096 13.0312ZM50.3375 19.2511C49.8167 19.2511 49.2719 19.0022 48.7581 18.5203C48.1793 17.9778 47.6836 17.1751 47.3616 16.2605C46.6239 14.164 47.0167 12.249 48.2762 11.8048C49.5346 11.3629 51.0419 12.6087 51.7795 14.7052C52.1014 15.6199 52.2169 16.5562 52.1061 17.3419C51.9726 18.2805 51.5317 18.9256 50.8649 19.1609C50.6936 19.2214 50.5166 19.2511 50.3375 19.2511Z" fill="white"/>
<path fill-rule="evenodd" clip-rule="evenodd" d="M19.6584 6.76907C17.5642 6.76907 16.4667 7.50674 16.4667 7.76138C16.4669 8.01713 17.5641 8.75369 19.6583 8.75369C21.7536 8.75369 22.851 8.01716 22.851 7.76138C22.8512 7.50674 21.7536 6.76907 19.6584 6.76907ZM19.6584 10.0691C17.419 10.0691 15.1512 9.27666 15.1512 7.76138C15.1514 6.24724 17.419 5.45361 19.6583 5.45361C21.8988 5.45361 24.1664 6.24724 24.1664 7.76138C24.1667 9.27666 21.8987 10.0691 19.6584 10.0691Z" fill="white"/>
<path fill-rule="evenodd" clip-rule="evenodd" d="M24.0924 14.4996C23.7576 14.4996 23.471 14.245 23.4379 13.9047L22.8535 7.82413C22.8191 7.4633 23.0839 7.1413 23.4448 7.10705C23.807 7.07161 24.1276 7.33773 24.163 7.69852L24.7478 13.7791C24.7832 14.1411 24.5181 14.462 24.1562 14.4962C24.1345 14.4985 24.1139 14.4996 24.0924 14.4996Z" fill="white"/>
<path fill-rule="evenodd" clip-rule="evenodd" d="M28.7707 47.1372C28.468 47.1372 28.195 46.9271 28.1287 46.6188C28.0513 46.2637 28.2772 45.9143 28.6312 45.8366L33.4581 44.7884C33.8131 44.7119 34.1624 44.9368 34.2401 45.292C34.3167 45.6471 34.0917 45.9976 33.7365 46.0742L28.911 47.1224C28.8642 47.1327 28.8173 47.1372 28.7707 47.1372Z" fill="white"/>
<path fill-rule="evenodd" clip-rule="evenodd" d="M37.0048 46.6142C36.7767 46.6142 36.5549 46.4942 36.4327 46.2819L33.988 42.0021C33.8087 41.6869 33.9183 41.285 34.2334 41.1046C34.5486 40.9241 34.9506 41.0338 35.131 41.3501L37.5759 45.6299C37.7563 45.945 37.6465 46.347 37.3303 46.5274C37.2275 46.5856 37.1156 46.6142 37.0048 46.6142Z" fill="white"/>
<path fill-rule="evenodd" clip-rule="evenodd" d="M31.1845 39.4293C30.979 39.4293 30.7768 39.3334 30.6477 39.153C30.4376 38.8573 30.5062 38.4473 30.8019 38.2361L34.6478 35.4921C34.9425 35.2809 35.3535 35.3494 35.5647 35.6451C35.776 35.9409 35.7075 36.352 35.4117 36.5632L31.566 39.3072C31.4494 39.3894 31.3169 39.4293 31.1845 39.4293Z" fill="white"/>
<path fill-rule="evenodd" clip-rule="evenodd" d="M39.8767 37.7485C39.8243 37.7485 39.7716 37.7416 39.7179 37.7291C39.3664 37.6411 39.1504 37.2849 39.2372 36.932L40.2317 32.9069C40.3199 32.554 40.6759 32.3393 41.0288 32.4261C41.3817 32.5129 41.5963 32.8692 41.5095 33.222L40.5151 37.2483C40.4409 37.5475 40.1723 37.7485 39.8767 37.7485Z" fill="white"/>
<path fill-rule="evenodd" clip-rule="evenodd" d="M43.3263 34.7624C43.1483 34.7624 42.9711 34.6905 42.8408 34.5489C42.5954 34.2817 42.6137 33.8661 42.8808 33.6205L45.2411 31.4544C45.5097 31.2089 45.9251 31.2272 46.1706 31.4944C46.4164 31.7616 46.3978 32.1783 46.1307 32.4239L43.7705 34.5889C43.6449 34.7053 43.4849 34.7624 43.3263 34.7624Z" fill="white"/>
<path fill-rule="evenodd" clip-rule="evenodd" d="M20.5754 39.4304C20.5423 39.4304 20.509 39.4282 20.4759 39.4236C20.1176 39.3688 19.8695 39.0342 19.9232 38.6745C20.5821 34.2908 22.8499 30.8903 24.6346 28.8086C26.5656 26.558 28.3275 25.3476 28.4006 25.2974C28.7022 25.0929 29.1108 25.1706 29.3153 25.4709C29.5197 25.7701 29.442 26.1789 29.1416 26.3844C29.0743 26.4301 22.3965 31.0764 21.2238 38.871C21.1748 39.1964 20.8949 39.4305 20.5754 39.4304Z" fill="white"/>
<path fill-rule="evenodd" clip-rule="evenodd" d="M18.3211 37.2517C18.0437 37.2517 17.7867 37.0759 17.6953 36.7984C17.5825 36.4535 17.7708 36.0825 18.1156 35.9694L21.1691 34.9691C21.5152 34.8561 21.8861 35.0445 21.9991 35.3893C22.1123 35.7341 21.9238 36.1064 21.5789 36.2195L18.5256 37.2186C18.457 37.2415 18.3885 37.2517 18.3211 37.2517Z" fill="white"/>
<path fill-rule="evenodd" clip-rule="evenodd" d="M24.6736 36.7516C24.4418 36.7516 24.2167 36.6294 24.0968 36.4125L22.1716 32.9297C21.9959 32.6123 22.111 32.2115 22.4285 32.0357C22.7471 31.8597 23.1467 31.9751 23.3226 32.2937L25.2478 35.7765C25.4238 36.0939 25.3083 36.4935 24.9909 36.6694C24.8904 36.7254 24.7808 36.7516 24.6736 36.7516Z" fill="white"/>
<path fill-rule="evenodd" clip-rule="evenodd" d="M25.2788 29.7278H20.8472C20.4839 29.7278 20.1892 29.4332 20.1892 29.0701C20.1894 28.707 20.4838 28.4124 20.8469 28.4124H25.2788C25.6419 28.4124 25.9364 28.707 25.9364 29.0701C25.9366 29.4332 25.6417 29.7278 25.2788 29.7278Z" fill="white"/>
</svg>
