<svg width="60" height="60" viewBox="0 0 60 60" fill="none" xmlns="http://www.w3.org/2000/svg">
<path d="M40.5368 11.9879C36.2483 11.9879 33.1507 13.5531 30.7388 16.4862C28.317 13.5402 25.2119 11.9879 20.941 11.9879C13.7568 11.9879 7.91207 17.8326 7.91207 25.0167C7.91207 28.0894 8.67453 30.7752 9.97549 33.2466H4.44753C4.12895 33.2466 3.87061 33.5048 3.87061 33.8235C3.87061 34.1422 4.12895 34.4005 4.44753 34.4005H10.6302C14.4226 40.6324 21.5338 45.5561 28.4545 52.4767L30.3308 54.3533C30.5566 54.5789 30.922 54.5783 31.1467 54.3533L33.0235 52.4767C42.9391 42.5606 53.5771 36.5164 53.5771 25.0167C53.5771 17.8326 47.7274 11.9879 40.5368 11.9879ZM32.2076 51.6608L30.739 53.1295L29.2705 51.6608C22.5779 44.9682 15.7923 40.2016 12.0086 34.4003H13.8186C17.5388 39.6125 23.9392 44.2081 30.3311 50.6C30.5564 50.8256 30.9221 50.825 31.1468 50.6C40.9681 40.7787 50.9233 35.1162 50.9233 25.0166C50.9233 19.2958 46.264 14.6416 40.5368 14.6416C35.5301 14.6416 32.9725 17.1676 30.7388 21.3133C28.5053 17.1675 25.9478 14.6416 20.941 14.6416C15.2201 14.6416 10.5659 19.2958 10.5659 25.0166C10.5659 27.8878 11.3609 30.5464 13.0458 33.2465H11.3052C9.89887 30.7655 9.0658 28.0842 9.0658 25.0166C9.0658 18.4687 14.3929 13.1416 20.9408 13.1416C25.1053 13.1416 27.991 14.7161 30.2771 17.7665C30.5073 18.074 30.9695 18.0745 31.2004 17.7666C33.479 14.7269 36.3585 13.1415 40.5367 13.1415C47.0909 13.1415 52.4232 18.4686 52.4232 25.0165C52.4233 35.8946 42.0187 41.8488 32.2076 51.6608ZM34.8248 34.4005C35.1057 36.355 36.7905 37.862 38.8214 37.862C41.0482 37.862 42.8599 36.0503 42.8599 33.8235C42.8599 31.5967 41.0482 29.7851 38.8214 29.7851C36.7905 29.7851 35.1057 31.2921 34.8248 33.2466H32.8066L31.1144 30.3446C31.0025 30.1527 30.7898 30.0425 30.5689 30.0601C30.3473 30.0784 30.156 30.2221 30.0769 30.4297L28.6829 34.0891L27.6596 32.275C27.5418 32.0661 27.3071 31.952 27.0702 31.988C26.8332 32.0242 26.6433 32.2031 26.593 32.4375L25.6707 36.7414L23.7481 25.361C23.7027 25.0923 23.4755 24.892 23.2032 24.8806C22.9312 24.8699 22.6878 25.0503 22.6204 25.3141L20.5838 33.2826L19.5267 30.8081C19.4316 30.5856 19.2071 30.4455 18.9663 30.4587C18.7246 30.4711 18.5166 30.6331 18.4451 30.8641L17.7073 33.2467H14.4216C12.7267 30.7336 11.72 28.0848 11.72 25.0168C11.72 19.9323 15.8566 15.7957 20.9412 15.7957C25.1992 15.7957 27.6281 17.6352 30.2232 22.8253C30.3209 23.0208 30.5206 23.1442 30.7392 23.1442C30.9577 23.1442 31.1575 23.0208 31.2552 22.8253C33.8504 17.6352 36.2794 15.7957 40.5372 15.7957C45.6281 15.7957 49.7698 19.9323 49.7698 25.0168C49.7698 34.3776 40.3827 39.8456 30.7392 49.3788C24.7722 43.4796 18.8568 39.1008 15.2534 34.4006H18.1327C18.3856 34.4006 18.609 34.2358 18.6838 33.9943L19.0828 32.7057L20.1912 35.3001C20.2883 35.5274 20.5192 35.6671 20.7659 35.6487C21.0124 35.6298 21.2195 35.4558 21.2806 35.2163L23.0643 28.238L25.035 39.9038C25.0818 40.1808 25.3216 40.3846 25.6041 40.3846C25.8755 40.3846 26.111 40.1951 26.1681 39.9286L27.4027 34.1674L28.2824 35.7268C28.3924 35.9217 28.6051 36.0342 28.8281 36.0187C29.0512 36.0019 29.2445 35.8578 29.3241 35.6488L30.7261 31.9684L31.9775 34.1143C32.081 34.2915 32.2707 34.4006 32.4758 34.4006H34.8248V34.4005ZM37.1916 34.4005C37.4299 35.0715 38.0695 35.5543 38.8214 35.5543C39.7758 35.5543 40.5522 34.778 40.5522 33.8235C40.5522 32.8692 39.7758 32.0928 38.8214 32.0928C38.0695 32.0928 37.4299 32.5755 37.1916 33.2466H35.9948C36.2629 31.9316 37.4284 30.9389 38.8214 30.9389C40.412 30.9389 41.706 32.233 41.706 33.8235C41.706 35.4141 40.412 36.7081 38.8214 36.7081C37.4284 36.7081 36.2629 35.7155 35.9948 34.4005H37.1916ZM38.2445 33.8235C38.2445 33.5054 38.5033 33.2466 38.8214 33.2466C39.1395 33.2466 39.3983 33.5054 39.3983 33.8235C39.3983 34.1416 39.1395 34.4005 38.8214 34.4005C38.5033 34.4005 38.2445 34.1416 38.2445 33.8235Z" fill="white"/>
<path d="M52.6676 6.34607C50.7589 6.34607 49.2061 7.89892 49.2061 9.80761C49.2061 11.7163 50.7589 13.2691 52.6676 13.2691C54.5763 13.2691 56.1291 11.7163 56.1291 9.80761C56.1291 7.89892 54.5763 6.34607 52.6676 6.34607ZM52.6676 12.1153C51.3951 12.1153 50.3599 11.0801 50.3599 9.80761C50.3599 8.53515 51.3951 7.49992 52.6676 7.49992C53.9401 7.49992 54.9753 8.53515 54.9753 9.80761C54.9753 11.0801 53.9401 12.1153 52.6676 12.1153Z" fill="white"/>
<path d="M11.7062 45C9.47938 45 7.66772 46.8117 7.66772 49.0385C7.66772 51.2653 9.47938 53.0769 11.7062 53.0769C13.933 53.0769 15.7446 51.2653 15.7446 49.0385C15.7446 46.8117 13.9329 45 11.7062 45ZM11.7062 51.9231C10.1156 51.9231 8.82157 50.629 8.82157 49.0385C8.82157 47.4479 10.1156 46.1538 11.7062 46.1538C13.2968 46.1538 14.5908 47.4479 14.5908 49.0385C14.5908 50.629 13.2968 51.9231 11.7062 51.9231Z" fill="white"/>
<path d="M6.8024 12.6923C7.28034 12.6923 7.66778 12.3049 7.66778 11.8269C7.66778 11.349 7.28034 10.9615 6.8024 10.9615C6.32446 10.9615 5.93701 11.349 5.93701 11.8269C5.93701 12.3049 6.32446 12.6923 6.8024 12.6923Z" fill="white"/>
<path d="M22.3793 6.92303C22.8572 6.92303 23.2447 6.53558 23.2447 6.05765C23.2447 5.57971 22.8572 5.19226 22.3793 5.19226C21.9014 5.19226 21.5139 5.57971 21.5139 6.05765C21.5139 6.53558 21.9014 6.92303 22.3793 6.92303Z" fill="white"/>
<path d="M43.1483 9.23077C43.6263 9.23077 44.0137 8.84332 44.0137 8.36538C44.0137 7.88745 43.6263 7.5 43.1483 7.5C42.6704 7.5 42.283 7.88745 42.283 8.36538C42.283 8.84332 42.6704 9.23077 43.1483 9.23077Z" fill="white"/>
<path d="M51.2252 44.423C51.7032 44.423 52.0906 44.0356 52.0906 43.5576C52.0906 43.0797 51.7032 42.6923 51.2252 42.6923C50.7473 42.6923 50.3599 43.0797 50.3599 43.5576C50.3599 44.0356 50.7473 44.423 51.2252 44.423Z" fill="white"/>
<path d="M40.8407 54.8077C41.3187 54.8077 41.7061 54.4202 41.7061 53.9423C41.7061 53.4644 41.3187 53.0769 40.8407 53.0769C40.3628 53.0769 39.9753 53.4644 39.9753 53.9423C39.9753 54.4202 40.3628 54.8077 40.8407 54.8077Z" fill="white"/>
<path d="M21.8024 53.6537C22.2803 53.6537 22.6678 53.2663 22.6678 52.7884C22.6678 52.3104 22.2803 51.923 21.8024 51.923C21.3245 51.923 20.937 52.3104 20.937 52.7884C20.937 53.2663 21.3245 53.6537 21.8024 53.6537Z" fill="white"/>
<path d="M7.3793 39.2308C7.85724 39.2308 8.24469 38.8433 8.24469 38.3654C8.24469 37.8874 7.85724 37.5 7.3793 37.5C6.90136 37.5 6.51392 37.8874 6.51392 38.3654C6.51392 38.8433 6.90136 39.2308 7.3793 39.2308Z" fill="white"/>
</svg>
