<svg width="92" height="92" viewBox="0 0 92 92" fill="none" xmlns="http://www.w3.org/2000/svg">
<circle cx="46" cy="46" r="43" fill="#07CCEC" stroke="white" stroke-width="6"/>
<path d="M59.28 31.1283C58.663 31.4683 58.5808 32.5047 59.096 33.4428C59.6114 34.3818 60.5316 34.8682 61.1486 34.5284C61.7664 34.1903 61.8494 33.1538 61.3325 32.2139C60.818 31.275 59.8985 30.7885 59.28 31.1283Z" fill="white"/>
<path d="M37.2131 53.0883C36.7572 52.0857 36.4758 50.9748 36.4064 49.6155C36.392 49.34 36.3869 49.0518 36.3911 48.7545C36.3954 48.4569 36.1572 48.2128 35.8598 48.2078C35.5632 48.2053 35.3183 48.4426 35.3141 48.7408C35.3107 49.0603 35.3149 49.3697 35.331 49.6713C35.4054 51.1485 35.7191 52.4069 36.2335 53.5349C36.7487 54.6611 37.4597 55.6518 38.3122 56.6136C38.8097 57.1747 39.0267 57.8306 39.0614 58.4874C39.097 59.1577 38.9258 59.823 38.6742 60.2933C38.5352 60.5551 38.6343 60.8806 38.8971 61.0204C39.159 61.1603 39.4861 61.0612 39.625 60.7984C39.9718 60.1467 40.1802 59.3137 40.1369 58.4323C40.0945 57.5747 39.7962 56.6612 39.1183 55.8984C38.3106 54.9883 37.6707 54.0884 37.2131 53.0883Z" fill="white"/>
<path d="M45.4181 56.8207C46.1707 56.7817 46.7631 56.5165 47.1631 56.2614C47.5664 56.008 47.7834 55.7648 47.8079 55.7368C48.0046 55.5131 47.9835 55.1733 47.7589 54.9767C47.5376 54.7818 47.1987 54.8021 47.0029 55.0225H47.0011L46.9952 55.03C46.9613 55.0665 46.7885 55.2393 46.508 55.4013C46.2249 55.5665 45.841 55.7199 45.3639 55.7445C45.0461 55.7596 44.686 55.7207 44.2715 55.5791C43.5478 55.3326 42.9156 54.8826 42.3725 54.3309C41.5589 53.5021 40.9572 52.447 40.569 51.6012C40.3741 51.1784 40.2326 50.8071 40.1403 50.5462C40.0937 50.4156 40.0598 50.3123 40.0386 50.2419C40.0275 50.2072 40.0191 50.1809 40.0149 50.164L40.0089 50.1453L40.0072 50.1403C39.9267 49.8547 39.6292 49.6886 39.3427 49.7699C39.0563 49.8487 38.891 50.1471 38.9707 50.4335V50.4327C38.9792 50.4581 39.3182 51.6614 40.0902 53.031C40.4776 53.7158 40.9741 54.4428 41.6055 55.0861C42.2334 55.726 43.0012 56.2836 43.9233 56.598C44.4622 56.7834 44.9673 56.8427 45.4181 56.8207Z" fill="white"/>
<path d="M44.2369 61.9875C43.9844 61.7722 43.758 61.5986 43.5352 61.4697C43.4216 61.4053 43.3097 61.3528 43.1894 61.3121C43.0707 61.2731 42.9386 61.2477 42.7945 61.2545C42.6937 61.2596 42.5878 61.2824 42.4886 61.3274C42.3115 61.4037 42.175 61.5426 42.0904 61.6834C41.9623 61.8987 41.9158 62.1172 41.8861 62.363C41.8591 62.6096 41.8573 62.8876 41.8742 63.2105C41.8886 63.5071 42.1421 63.7351 42.4395 63.7207C42.7361 63.7046 42.9649 63.4529 42.9497 63.1554C42.9386 62.9376 42.9378 62.7529 42.9463 62.6079C42.9514 62.5172 42.9607 62.4478 42.9708 62.3884C43.0022 62.4062 43.0379 62.4257 43.0767 62.4512C43.2894 62.5885 43.597 62.8443 43.9691 63.202C44.3436 63.5587 44.7885 64.0189 45.3047 64.5698C45.5079 64.785 45.8495 64.7978 46.0656 64.5934C46.2817 64.3901 46.2945 64.0494 46.0901 63.8324C45.3462 63.0383 44.7395 62.423 44.2369 61.9875Z" fill="white"/>
<path d="M48.952 57.8648C48.7638 58.1089 48.5622 58.2368 48.324 58.3258C48.0867 58.4131 47.8104 58.4487 47.524 58.4639C47.3241 58.4733 47.1198 58.4733 46.9173 58.4843C46.7927 58.4902 46.669 58.5003 46.5402 58.5233C46.4452 58.5419 46.3444 58.5683 46.241 58.6131C46.163 58.6462 46.0824 58.6919 46.0071 58.7547C45.8918 58.8462 45.7927 58.9802 45.7393 59.1267C45.6843 59.2733 45.669 59.4233 45.6766 59.5657C45.6893 59.7954 45.7571 60.0013 45.8452 60.1954C46.0063 60.5344 46.241 60.8445 46.508 61.1462C46.9063 61.5971 47.3774 62.0208 47.7808 62.3597C47.9825 62.531 48.1648 62.6784 48.3104 62.7961C48.3841 62.8546 48.4478 62.9055 48.4969 62.9478C48.547 62.9877 48.5842 63.0199 48.5994 63.0335C48.8198 63.2309 49.1596 63.2139 49.3597 62.9937C49.5589 62.7716 49.541 62.4327 49.3207 62.2326C49.2579 62.1767 49.1843 62.1174 49.0842 62.0377C48.9139 61.8988 48.6792 61.7106 48.4207 61.4903C48.0334 61.1623 47.5952 60.7624 47.2656 60.3802C47.1021 60.1886 46.9647 60.0039 46.8757 59.8462C46.8138 59.7361 46.78 59.6437 46.763 59.5793C46.8164 59.57 46.8859 59.5641 46.9723 59.5598C47.135 59.5514 47.3452 59.5505 47.5792 59.5379C47.9121 59.5208 48.2987 59.4819 48.6944 59.337C49.0902 59.1946 49.4926 58.9336 49.8079 58.5175C49.9875 58.281 49.9427 57.9429 49.7063 57.764C49.4698 57.5835 49.1316 57.6285 48.952 57.8648Z" fill="white"/>
<path d="M46.587 23.0475L46.588 23.0496L46.5859 23.0444L46.587 23.0475Z" fill="white"/>
<path d="M64.5479 31.4962C64.1267 30.4378 63.4648 29.4683 62.6258 28.7115C62.2055 28.3344 61.736 28.0089 61.2147 27.7717C60.6978 27.5344 60.1198 27.3836 59.5089 27.3819H59.4902C58.8445 27.3819 58.1818 27.5607 57.5852 27.926C56.714 28.4582 55.8784 29.0226 55.0759 29.6141C55.1717 29.4158 55.2869 29.1938 55.4225 28.9515C55.6632 28.5124 55.9531 28.0022 56.2039 27.4066L56.2107 27.3946L56.2158 27.382C56.3268 27.1142 56.3819 26.8312 56.3837 26.5413C56.3828 26.1235 56.2676 25.754 56.1142 25.4464C55.8489 24.921 55.4685 24.521 55.0643 24.1787C54.4523 23.6668 53.7287 23.2533 52.9897 22.9439C52.6194 22.7897 52.2431 22.6617 51.8677 22.5702L51.8566 22.5668L51.8668 22.5685C51.8617 22.5676 51.8574 22.5676 51.8525 22.566C51.483 22.4761 51.1084 22.4177 50.7177 22.4168C50.4194 22.4177 50.088 22.4524 49.7415 22.5804C49.5669 22.6465 49.3838 22.7398 49.2101 22.872C49.0338 23.0059 48.8711 23.1762 48.7423 23.3804C48.6474 23.533 48.5728 23.677 48.4991 23.8229C48.3712 24.0779 48.238 24.3585 48.0932 24.6382L48.0881 24.6484L48.0924 24.639C47.8847 25.0459 47.6288 25.4603 47.4262 25.6857C47.094 26.0518 46.7627 23.3569 46.5881 23.0492C46.4008 22.7153 46.1448 22.4365 45.8509 22.1925C45.3499 21.7789 44.7806 21.5552 44.2237 21.4171C42.2593 20.9365 39.3983 21.0383 38.1551 22.9001C38.1547 22.9001 38.1547 22.901 38.1547 22.901L38.1534 22.9027L38.1542 22.9018C37.9025 23.2993 37.7517 23.7069 37.65 24.0865C37.5499 24.4654 37.4957 24.8289 37.4949 25.1841C37.4949 25.4332 37.5127 25.6637 37.5254 25.9145C37.5559 26.4603 37.5898 26.9951 37.4771 27.5213C36.8957 26.7425 36.5203 25.8298 35.9821 25.023C35.833 24.7959 35.6491 24.6273 35.4652 24.4984C35.1956 24.3129 34.9119 24.2036 34.6364 24.1349C34.3602 24.0655 34.0746 24.0357 33.7814 24.0349C33.2746 24.0357 32.7305 24.1282 32.1712 24.3231C31.6119 24.5189 31.0331 24.8196 30.4712 25.2409C29.8229 25.7281 29.3365 26.2324 28.9975 26.7722C28.6594 27.313 28.478 27.8968 28.478 28.479C28.4789 28.9231 28.5882 29.3332 28.7654 29.679C29.5949 31.2908 30.5603 33.0739 30.5578 34.94V34.9476C30.5569 35.5077 30.451 35.956 30.2391 36.3196L30.0289 36.679L30.1265 36.7358C28.8111 38.8544 27.707 41.6027 27.1408 45.2832C27.0197 46.0628 26.9629 46.862 26.9629 47.6721C26.9638 50.2679 27.5493 52.9824 28.5875 55.6103C30.1485 59.5484 32.729 63.3051 36.0281 66.1246C37.6799 67.5322 39.5129 68.7059 41.496 69.5296C43.4561 70.3449 45.5637 70.8144 47.7638 70.827H47.8282C49.0561 70.827 50.3095 70.6814 51.5756 70.3745L51.5892 70.3711C51.5892 70.3711 51.6078 70.366 51.612 70.3651C53.2145 69.9262 54.7001 69.0041 56.0374 67.7693C58.0416 65.9109 59.7365 63.3278 60.9544 60.3414C62.1704 57.3525 62.9035 53.9533 62.9042 50.4518C62.9042 46.8043 62.0899 43.045 60.1653 39.6051C60.2993 39.4932 60.4314 39.3805 60.5679 39.2721C61.5602 38.4772 62.6009 37.7604 63.5314 36.995C64.044 36.5713 64.4255 36.0433 64.6645 35.4764C64.9034 34.9094 65.0001 34.3162 65.0001 33.74C64.9987 32.9615 64.8259 32.2047 64.5479 31.4962ZM30.9964 28.0207C31.1395 27.7927 31.4108 27.4817 31.8853 27.1267C32.2582 26.8462 32.6209 26.6623 32.9472 26.5487C33.2744 26.4351 33.5649 26.3919 33.7811 26.3927C33.9192 26.3919 34.0234 26.4096 34.0827 26.4267C34.2768 26.7309 34.4912 27.1106 34.7149 27.5207C35.0912 28.2055 35.487 28.9554 35.9362 29.5903C36.1302 29.8623 36.3344 30.1131 36.5767 30.3377C36.0387 30.9064 35.3497 31.5088 34.5844 32.2063C34.0302 32.7106 33.4379 33.2715 32.8386 33.9072C32.7022 32.9276 32.4005 31.9886 32.0709 31.1564C31.8489 30.5954 31.6116 30.0834 31.3963 29.6462C31.1819 29.2107 30.9896 28.8479 30.8633 28.6021C30.8481 28.5717 30.8353 28.5352 30.8353 28.4707C30.8362 28.3902 30.8548 28.2513 30.9964 28.0207ZM62.491 34.5605C62.3901 34.7944 62.2495 34.9927 62.0301 35.1757C60.9436 36.0749 59.4462 37.0546 58.0183 38.3392C57.3038 38.9824 56.6064 39.7062 55.9895 40.5452C55.3725 41.3833 54.8377 42.3393 54.4564 43.4324C54.2793 43.94 54.5453 44.4925 55.0521 44.6696C55.5572 44.8476 56.1115 44.5807 56.2894 44.0739C56.6021 43.1798 57.0368 42.4002 57.5538 41.695C57.7555 41.4205 57.9708 41.1578 58.1954 40.9052C59.8402 43.9136 60.5454 47.2069 60.5462 50.4577C60.5496 54.6746 59.3521 58.8085 57.5318 62.0186C56.6225 63.6237 55.5606 64.9975 54.4352 66.0373C53.3149 67.0754 52.1379 67.7745 51.0031 68.0864C49.9261 68.3466 48.8667 68.4678 47.8277 68.4678C45.3184 68.4678 42.9191 67.7593 40.7082 66.5322C37.3963 64.6932 34.5269 61.678 32.5066 58.2594C28.9413 52.2408 28.2736 44.912 31.7202 38.6747C33.1726 36.051 34.9616 34.4816 36.5455 33.0494C37.3371 32.3324 38.0803 31.6527 38.6836 30.8604C38.9852 30.4629 39.2497 30.0374 39.4513 29.5681C39.6548 29.0986 39.7938 28.5884 39.8462 28.0418C39.8954 27.5621 39.9106 27.1333 39.9106 26.7536C39.9106 25.1926 39.5268 23.9893 41.4242 23.6749C41.7691 23.6164 42.1496 23.5842 42.5208 23.5842C42.9344 23.5833 43.3361 23.6257 43.6606 23.7053C43.9868 23.7842 44.2276 23.9053 44.3411 24.0036C44.4335 24.0799 44.4842 24.1358 44.5096 24.1698C44.5453 24.2206 44.535 24.2087 44.5436 24.235C44.5503 24.2596 44.5589 24.3393 44.5579 24.4951C44.5579 24.5418 44.5579 24.5926 44.5579 24.6511C44.5579 24.8375 44.5724 25.0562 44.6062 25.3069C44.7986 26.7171 45.6122 28.2493 47.2494 28.2426C47.5681 28.2443 47.8731 28.1697 48.1358 28.0527C48.6001 27.846 48.9451 27.5307 49.2316 27.2002C49.6595 26.7019 49.9688 26.1418 50.2214 25.6553C50.3451 25.4121 50.4543 25.1867 50.5434 25.0053C50.5867 24.9172 50.6264 24.8392 50.6603 24.7757L50.7196 24.7749C50.9281 24.7715 51.3018 24.8384 51.7001 24.9749C52.3018 25.1766 52.9739 25.5291 53.4357 25.8918C53.6662 26.0714 53.8433 26.2538 53.9357 26.3867C53.9797 26.4486 54.0044 26.4969 54.0152 26.5257C53.7737 27.0934 53.428 27.6639 53.1025 28.2859C52.4822 29.4722 52.1932 30.7569 52.8042 32.001C51.1611 33.4816 49.7136 35.0934 48.4907 36.8052C46.1493 40.0866 44.6255 43.7366 44.1162 47.5153C44.0459 48.0467 44.4179 48.5356 44.9501 48.6061C45.4806 48.6781 45.9696 48.3061 46.0416 47.7747C46.5034 44.3408 47.8934 40.9849 50.0721 37.9341C52.2492 34.8824 55.217 32.1375 58.8144 29.9384C59.0542 29.7935 59.2661 29.741 59.5008 29.7392C59.7949 29.7392 60.1389 29.8383 60.5051 30.0587C61.0525 30.3842 61.6153 30.9748 62.011 31.6596C62.4136 32.3427 62.6459 33.1104 62.6416 33.7392C62.6419 34.0513 62.5893 34.3258 62.491 34.5605Z" fill="white"/>
<path d="M62.6401 28.7225L62.6274 28.7114C62.6274 28.7114 62.6283 28.7131 62.6291 28.7131L62.6401 28.7225Z" fill="white"/>
</svg>
