<svg width="92" height="92" viewBox="0 0 92 92" fill="none" xmlns="http://www.w3.org/2000/svg">
<circle cx="46" cy="46" r="43" fill="#07CCEC" stroke="white" stroke-width="6"/>
<path fill-rule="evenodd" clip-rule="evenodd" d="M39.4831 49.6801C39.2104 49.1164 38.5944 48.8117 37.9939 48.9607C31.539 50.5611 25 53.8245 25 58.7337V67H68V58.7337C68 53.8245 61.461 50.5611 55.0061 48.9607C54.4056 48.8117 53.7896 49.1164 53.5169 49.6801H48.6625C47.601 49.6804 47.0606 49.6804 46.5296 49.6804C45.9789 49.6803 45.4384 49.6803 44.3372 49.6805L39.4831 49.6801ZM48.663 52.0904C47.5948 52.0906 47.0566 52.0906 46.5287 52.0906C45.9814 52.0905 45.4444 52.0905 44.3378 52.0908L37.9905 52.0903L37.7156 51.5218C34.9417 52.2768 32.3253 53.3278 30.3944 54.6166C28.2162 56.0703 27.3889 57.4789 27.3889 58.7337V64.5897H65.6111V58.7337C65.6111 57.4789 64.7838 56.0703 62.6056 54.6166C60.6747 53.3278 58.0583 52.2768 55.2844 51.5218L55.0095 52.0904H48.663Z" fill="white"/>
<path fill-rule="evenodd" clip-rule="evenodd" d="M36.9444 58.4482C37.5875 58.4482 38.1389 57.9135 38.1389 57.2163C38.1389 56.5191 37.5875 55.9844 36.9444 55.9844C36.3014 55.9844 35.75 56.5191 35.75 57.2163C35.75 57.9135 36.3014 58.4482 36.9444 58.4482ZM36.9444 60.8584C38.9235 60.8584 40.5278 59.2278 40.5278 57.2163C40.5278 55.2048 38.9235 53.5741 36.9444 53.5741C34.9654 53.5741 33.3611 55.2048 33.3611 57.2163C33.3611 59.2278 34.9654 60.8584 36.9444 60.8584Z" fill="white"/>
<path d="M36.509 50.8654C36.249 51.7504 36.2745 52.8397 36.8132 54.1782L34.5999 55.085C34.07 53.7687 33.8739 52.5099 33.9933 51.3332C34.0332 50.9395 34.1086 50.5549 34.2185 50.1806L36.509 50.8654Z" fill="white"/>
<path d="M56.6943 54.3413L59.013 54.9218C59.3123 53.7049 59.3748 52.5612 59.2208 51.5014L56.547 50.7047C56.943 51.6756 57.0564 52.8695 56.6943 54.3413Z" fill="white"/>
<path fill-rule="evenodd" clip-rule="evenodd" d="M55.3709 54.0147C55.5841 53.8394 55.8507 53.7436 56.1258 53.7436H59.5687C59.8437 53.7436 60.1103 53.8394 60.3235 54.0147L62.7827 56.0382C63.0609 56.2671 63.2222 56.61 63.2222 56.9721V62.233C63.2222 62.8986 62.6875 63.4381 62.0278 63.4381H59.5687V61.0279H60.8333V57.5444L59.1433 56.1538H56.5511L54.8611 57.5444V61.0279H56.1258V63.4381H53.6667C53.007 63.4381 52.4722 62.8986 52.4722 62.233V56.9721C52.4722 56.61 52.6336 56.2671 52.9118 56.0382L55.3709 54.0147Z" fill="white"/>
<path fill-rule="evenodd" clip-rule="evenodd" d="M38.7026 22.6635C40.203 21.3181 42.5612 20 45.9711 20C49.3671 20 51.9363 21.3066 53.6425 22.6011C54.4943 23.2474 55.1367 23.8944 55.5695 24.3844C55.7864 24.6298 55.952 24.8374 56.0663 24.9878C56.1234 25.0631 56.1679 25.1243 56.1995 25.1689C56.2154 25.1912 56.2281 25.2095 56.2375 25.2233L56.2494 25.2406L56.2535 25.2468L56.2552 25.2492L56.2559 25.2503C56.2559 25.2503 56.2565 25.2512 55.2652 25.9235C56.2923 25.3084 56.2926 25.3089 56.2926 25.3089L56.2973 25.3168L56.3084 25.336L56.3486 25.4057C56.3831 25.466 56.4327 25.5534 56.4951 25.6658C56.6199 25.8906 56.7965 26.2157 57.0076 26.6239C57.4293 27.4396 57.991 28.5919 58.5533 29.9429C59.6647 32.6134 60.8333 36.1885 60.8333 39.5067C60.8333 43.3402 57.9009 45.3914 55.4537 46.4267C54.1959 46.9589 52.9522 47.2779 52.0321 47.4643C51.5695 47.558 51.1823 47.6194 50.9078 47.6577C50.7704 47.6769 50.6608 47.6903 50.5837 47.6991C50.5451 47.7036 50.5146 47.7068 50.4927 47.7091L50.4665 47.7117L50.4584 47.7125L50.4545 47.7129C50.4545 47.7129 50.4536 47.7129 50.3448 46.5128L50.4545 47.7129L46.9734 48.0342L49.5288 45.6328L49.5297 45.6319L49.5307 45.631L49.5398 45.6222C49.5502 45.6121 49.5676 45.595 49.5915 45.5711C49.6392 45.5232 49.7124 45.448 49.8058 45.347C49.9929 45.1448 50.2595 44.8406 50.5636 44.446C51.1744 43.6536 51.9219 42.5154 52.4851 41.1243C53.5724 38.4386 53.9927 34.793 51.3051 30.7158C51.1134 30.716 50.8247 30.7432 50.4301 30.8141C49.4962 30.9817 48.2291 31.3438 46.8312 31.8195C44.038 32.77 40.9264 34.1032 39.294 34.9912C39.1429 35.0734 38.8562 35.3567 39.0044 36.5281C39.1422 37.6181 39.619 39.0043 40.246 40.4298C40.8642 41.8353 41.5903 43.1949 42.1661 44.2092C42.4531 44.7146 42.7007 45.1306 42.8757 45.419C42.9632 45.5632 43.0325 45.6753 43.0794 45.7506C43.0872 45.7631 43.0944 45.7746 43.101 45.7851C43.1141 45.8061 43.1246 45.8228 43.1325 45.8353L43.1454 45.8557L43.1483 45.8603L44.5605 48.0763L41.9761 47.706L42.1441 46.5128C41.9761 47.706 41.9761 47.706 41.9761 47.706L41.9718 47.7053L41.9638 47.7042L41.9372 47.7002C41.9148 47.6968 41.8831 47.6918 41.8428 47.6853C41.7622 47.6723 41.6469 47.6528 41.502 47.6262C41.2123 47.5732 40.8026 47.4915 40.3126 47.3756C39.3371 47.145 38.0217 46.7738 36.6938 46.2124C35.3767 45.6556 33.978 44.883 32.8927 43.8177C31.7896 42.7349 30.9722 41.3057 30.9722 39.5067C30.9722 36.4084 32.4621 32.7896 33.8366 30.0757C34.5381 28.6904 35.2384 27.4864 35.7631 26.6287C36.0258 26.1993 36.2454 25.8553 36.4002 25.6172C36.4777 25.4982 36.539 25.4055 36.5816 25.3417L36.6009 25.3129C36.6247 25.2661 36.6571 25.2047 36.6983 25.1307C36.7859 24.9733 36.9142 24.7579 37.087 24.504C37.4319 23.9973 37.9594 23.3299 38.7026 22.6635ZM38.6173 26.6074L38.6152 26.6105L38.6052 26.6252L38.5632 26.6878C38.5256 26.7441 38.4695 26.8289 38.3975 26.9397C38.2533 27.1612 38.0458 27.4863 37.7959 27.8947C37.2956 28.7126 36.6291 29.8588 35.9638 31.1724C34.6048 33.8559 33.3611 37.0287 33.3611 39.5067C33.3611 40.4958 33.7909 41.3366 34.5586 42.0902C35.3441 42.8612 36.4397 43.4917 37.617 43.9894C38.3342 44.2926 39.0561 44.5359 39.7139 44.7276C39.1898 43.7721 38.5924 42.6123 38.0625 41.4075C37.4082 39.9198 36.8172 38.2766 36.6347 36.8331C36.4625 35.4711 36.603 33.7168 38.1603 32.8697C39.9448 31.8989 43.1888 30.5154 46.0677 29.5357C47.5059 29.0462 48.9041 28.6398 50.0118 28.4411C50.5568 28.3433 51.1 28.2826 51.5689 28.3139C51.8033 28.3296 52.0801 28.3716 52.3494 28.4831C52.6063 28.5894 52.9161 28.7857 53.1289 29.1347C56.5187 34.0952 56.0444 38.7067 54.6966 42.0357C54.296 43.0252 53.8202 43.8995 53.3512 44.6383C53.7368 44.5151 54.1344 44.3713 54.53 44.204C56.7298 43.2733 58.4444 41.8214 58.4444 39.5067C58.4444 36.6767 57.4262 33.4601 56.3507 30.8761C55.8196 29.5999 55.2879 28.5092 54.8896 27.7386C54.6906 27.3538 54.5255 27.05 54.4112 26.8442C54.354 26.7413 54.3096 26.6629 54.28 26.6113L54.2585 26.5739L54.2572 26.5721C54.2399 26.5476 54.2107 26.5074 54.1699 26.4537C54.0883 26.3461 53.9602 26.185 53.7863 25.9882C53.4375 25.5934 52.9096 25.0608 52.2067 24.5275C50.8035 23.4628 48.7257 22.4103 45.9711 22.4103C43.2306 22.4103 41.4201 23.4513 40.2895 24.4651C39.7171 24.9783 39.3135 25.4905 39.0561 25.8685C38.9279 26.057 38.8372 26.2102 38.7812 26.3109C38.7532 26.3611 38.734 26.398 38.7232 26.4193L38.7134 26.439L38.6737 26.5247L38.6173 26.6074ZM55.2652 25.9235L56.2926 25.3089L56.2752 25.2793L56.2565 25.2512L55.2652 25.9235Z" fill="white"/>
</svg>
