<svg width="60" height="60" viewBox="0 0 60 60" fill="none" xmlns="http://www.w3.org/2000/svg">
<path d="M18.384 32.6646C16.0681 32.6646 14.3162 32.0643 14.1725 32.0133C13.8828 31.9109 13.6697 31.6617 13.6141 31.3595C13.5584 31.0573 13.6682 30.7483 13.9022 30.5495C14.2619 30.2443 14.6423 29.757 15.0341 29.1013C16.0607 27.3826 16.6034 25.3393 16.6034 23.193V19.9888C16.8282 14.8384 18.6336 12.5344 20.6245 10.4397C20.9516 10.0955 21.4943 10.0824 21.8384 10.4087C22.1816 10.7352 22.1959 11.2788 21.8691 11.6226C20.0444 13.5426 18.5175 15.5004 18.3199 20.0263L18.3205 23.193C18.3205 25.6492 17.6942 27.9966 16.5083 29.9818C16.3514 30.2441 16.1936 30.4876 16.034 30.7108C18.0549 31.0847 22.0361 31.3201 24.9423 28.3207C25.2731 27.9796 25.8163 27.9725 26.1566 28.3011C26.4966 28.6312 26.5052 29.1748 26.1753 29.5153C23.7383 32.0307 20.7636 32.6646 18.384 32.6646Z" fill="white"/>
<path d="M39.0169 57C38.5427 57 38.1584 56.6156 38.1584 56.1415V50.5205C38.1584 50.0462 38.5428 49.662 39.0169 49.662C39.4912 49.662 39.8754 50.0463 39.8754 50.5205V56.1415C39.8754 56.6156 39.4912 57 39.0169 57Z" fill="white"/>
<path d="M21.3719 57C20.8977 57 20.5134 56.6156 20.5134 56.1415V50.5205C20.5134 50.0462 20.8977 49.662 21.3719 49.662C21.8461 49.662 22.2304 50.0463 22.2304 50.5205V56.1415C22.2304 56.6156 21.846 57 21.3719 57Z" fill="white"/>
<path d="M30.2635 31.8422C27.5596 31.8425 25.1458 30.4008 23.8601 27.9753C23.6434 27.5663 23.4351 27.1329 23.2403 26.687C23.2067 26.6156 23.1826 26.5394 23.1692 26.461C22.8447 24.5139 22.7399 22.9276 22.8574 21.7461C22.897 21.3484 23.206 21.0308 23.6019 20.9799C23.7052 20.9656 26.2429 20.5842 27.9656 17.943C28.1353 17.6831 28.4228 17.5367 28.7434 17.5554C29.0539 17.5772 29.3283 17.7644 29.4611 18.0464C29.4638 18.0496 30.7441 20.3078 36.6733 20.1075C37.1329 20.0926 37.5333 20.4533 37.5579 20.9195C37.5633 21.0202 37.6853 23.4171 37.2676 26.4399C37.2602 26.4917 37.2479 26.5432 37.2319 26.5931C37.2345 26.5895 37.1991 26.7262 37.1301 26.9339C36.2085 29.702 33.8219 31.5723 30.9023 31.8155C30.688 31.8333 30.4749 31.8422 30.2635 31.8422ZM24.8455 26.0723C25.0137 26.4531 25.1923 26.8222 25.3774 27.1713C26.4357 29.169 28.5037 30.2945 30.7597 30.1043C32.9839 29.9192 34.8001 28.4968 35.5011 26.3922C35.5371 26.2815 35.5616 26.1996 35.5741 26.1538C35.8211 24.3428 35.8625 22.7523 35.8604 21.836C31.7733 21.8175 29.7128 20.6836 28.7242 19.7951C27.2417 21.549 25.4879 22.2551 24.5302 22.5263C24.5073 23.4641 24.6133 24.6525 24.8455 26.0723Z" fill="white"/>
<path d="M47.8322 57H12.557C12.0827 57 11.6985 56.6156 11.6985 56.1415V44.0904C11.6985 39.8252 14.8911 36.2186 19.1252 35.7007L22.6678 35.2676C23.9678 35.1086 25.521 34.1299 25.7619 32.927L26.2542 30.0056C26.3004 29.7294 26.4786 29.4933 26.7317 29.3731C26.985 29.2525 27.2798 29.2639 27.5244 29.4017C29.1656 30.3327 31.2281 30.3647 32.9082 29.4827C33.1523 29.355 33.4434 29.3522 33.6891 29.474C33.9358 29.5963 34.1088 29.8295 34.1537 30.1013L34.632 32.9535C34.8681 34.1299 36.422 35.1087 37.7219 35.2677L41.264 35.7008C45.4982 36.2187 48.6906 39.8255 48.6906 44.0905V56.1416C48.6906 56.6156 48.3064 57 47.8322 57ZM13.4154 55.283H46.9737V44.0904C46.9737 40.6919 44.4297 37.8175 41.0559 37.4048L37.5138 36.9717C35.5844 36.7359 33.3476 35.2845 32.9436 33.2636L32.6406 31.4568C31.0606 31.9861 29.3228 31.9637 27.7611 31.3949L27.45 33.2384C27.0416 35.2843 24.8045 36.7362 22.8756 36.9719L19.333 37.4049C15.9594 37.8175 13.4154 40.6919 13.4154 44.0905V55.283Z" fill="white"/>
<path d="M37.5891 14.1602C37.4206 14.1602 37.2515 14.1329 37.0893 14.0772C34.4381 13.1645 30.0314 13.0877 29.9873 13.0871C29.9692 13.0877 25.5579 13.1659 22.9107 14.0772C22.5142 14.2133 22.0721 14.1811 21.7006 13.9873C21.3277 13.7927 21.0466 13.4485 20.9306 13.0428L19.3249 7.44456C19.0171 6.37056 19.5303 5.2572 20.5442 4.797C22.0234 4.12608 25.2177 3 29.9999 3C34.7842 3 37.9783 4.12608 39.4556 4.79712C40.4698 5.25732 40.9829 6.37068 40.6757 7.44432L39.0694 13.0427C38.9534 13.4484 38.6723 13.7928 38.2994 13.9876C38.0788 14.1018 37.8344 14.1602 37.5891 14.1602ZM29.9999 4.71696C25.5411 4.71696 22.6063 5.74668 21.2539 6.36048C21.0211 6.4662 20.9038 6.723 20.9756 6.97164L22.5303 12.3938C25.4413 11.4499 29.7995 11.3731 29.9875 11.3701C30.2006 11.3731 34.5589 11.4496 37.4698 12.3935L39.0251 6.97104C39.0963 6.72312 38.9787 6.4662 38.7463 6.36048C37.3939 5.74668 34.4608 4.71696 29.9999 4.71696Z" fill="white"/>
<path d="M41.6208 32.6634C39.3451 32.6638 36.524 32.0842 34.1461 29.8334C33.8023 29.5075 33.7868 28.9643 34.1127 28.6198C34.4392 28.2748 34.9831 28.2605 35.3266 28.5864C38.2008 31.3075 42.0056 31.0735 43.9667 30.7112C43.8072 30.4879 43.6488 30.2444 43.4918 29.9822C42.3068 27.9977 41.6802 25.6501 41.6802 23.1931V19.9889C41.4831 15.4999 39.9558 13.5424 38.1301 11.6221C37.8036 11.2783 37.8175 10.7351 38.161 10.4084C38.5042 10.0813 39.0469 10.095 39.375 10.4388C41.3665 12.5339 43.1725 14.8379 43.3965 19.9513L43.3971 23.193C43.3971 25.3402 43.9398 27.383 44.9659 29.101C45.3583 29.758 45.7393 30.2453 46.0974 30.5495C46.3316 30.7483 46.4415 31.0573 46.3858 31.3595C46.3302 31.6616 46.117 31.9108 45.828 32.0132C45.6871 32.063 43.9368 32.6634 41.6208 32.6634Z" fill="white"/>
<path d="M30.1944 10.4854C29.7202 10.4854 29.3359 10.1012 29.3359 9.62694V6.60702C29.3359 6.13278 29.7202 5.74854 30.1944 5.74854C30.6685 5.74854 31.0529 6.13278 31.0529 6.60702V9.62694C31.0529 10.1012 30.6687 10.4854 30.1944 10.4854Z" fill="white"/>
<path d="M31.7043 8.97526H28.6847C28.2104 8.97526 27.8262 8.59102 27.8262 8.11678C27.8262 7.64254 28.2104 7.2583 28.6847 7.2583H31.7043C32.1786 7.2583 32.5628 7.64254 32.5628 8.11678C32.5628 8.5909 32.1785 8.97526 31.7043 8.97526Z" fill="white"/>
<path d="M23.3973 47.9385H23.1345C22.6604 47.9385 22.2761 47.5541 22.2761 47.08C22.2761 46.6058 22.6604 46.2215 23.1345 46.2215H23.3973C23.5899 46.2215 23.7469 46.0649 23.7469 45.8721V43.7184C23.7469 42.3381 22.6235 41.215 21.2431 41.215C19.8627 41.215 18.74 42.3381 18.74 43.7184V45.8721C18.74 46.065 18.8972 46.2215 19.0895 46.2215H19.3518C19.826 46.2215 20.2103 46.6059 20.2103 47.08C20.2103 47.5542 19.826 47.9385 19.3518 47.9385H19.0895C17.9499 47.9385 17.0229 47.0115 17.0229 45.872V43.7183C17.0229 41.3914 18.9164 39.4979 21.2431 39.4979C23.5706 39.4979 25.4639 41.3914 25.4639 43.7183V45.872C25.4639 47.0115 24.5369 47.9385 23.3973 47.9385Z" fill="white"/>
<path d="M21.243 41.2148C20.7688 41.2148 20.3845 40.8305 20.3845 40.3563V36.2907C20.3845 35.8165 20.7688 35.4323 21.243 35.4323C21.7172 35.4323 22.1015 35.8165 22.1015 36.2907V40.3563C22.1015 40.8305 21.7171 41.2148 21.243 41.2148Z" fill="white"/>
<path d="M39.0169 41.9778C38.5427 41.9778 38.1584 41.5934 38.1584 41.1193V36.2907C38.1584 35.8165 38.5428 35.4323 39.0169 35.4323C39.4912 35.4323 39.8754 35.8165 39.8754 36.2907V41.1193C39.8754 41.5934 39.4912 41.9778 39.0169 41.9778Z" fill="white"/>
<path d="M39.017 45.7227C37.5313 45.7227 36.3228 44.5142 36.3228 43.0281C36.3228 41.5424 37.5313 40.3339 39.017 40.3339C40.5027 40.3339 41.7112 41.5424 41.7112 43.0281C41.7112 44.5142 40.5027 45.7227 39.017 45.7227ZM39.017 42.0509C38.4786 42.0509 38.0397 42.4892 38.0397 43.0282C38.0397 43.567 38.4784 44.0057 39.017 44.0057C39.5556 44.0057 39.9943 43.567 39.9943 43.0282C39.9943 42.4891 39.5556 42.0509 39.017 42.0509Z" fill="white"/>
<path d="M54.2099 57H5.79012C5.31588 57 4.93164 56.6157 4.93164 56.1416C4.93164 55.6673 5.31588 55.2831 5.79012 55.2831H54.2099C54.6841 55.2831 55.0684 55.6673 55.0684 56.1416C55.0684 56.6157 54.6841 57 54.2099 57Z" fill="white"/>
</svg>
