<svg width="60" height="60" viewBox="0 0 60 60" fill="none" xmlns="http://www.w3.org/2000/svg">
<path d="M49.4823 41.25H45.8203V37.6172C45.8234 37.4803 45.7992 37.3441 45.7492 37.2167C45.6991 37.0892 45.6242 36.973 45.5287 36.8748C45.4332 36.7767 45.3192 36.6985 45.1932 36.6448C45.0672 36.5912 44.9317 36.5632 44.7948 36.5625H41.5136C41.2309 36.5617 40.9592 36.6717 40.7566 36.8688C40.554 37.066 40.4366 37.3346 40.4297 37.6172V41.25H36.7089C36.4262 41.2492 36.1545 41.3592 35.9519 41.5563C35.7493 41.7535 35.632 42.0221 35.625 42.3047V45.5859C35.632 45.8685 35.7493 46.1372 35.9519 46.3343C36.1545 46.5314 36.4262 46.6414 36.7089 46.6406H40.4297V50.3906C40.4366 50.6732 40.554 50.9418 40.7566 51.139C40.9592 51.3361 41.2309 51.4461 41.5136 51.4453H44.7948C44.9317 51.4446 45.0672 51.4166 45.1932 51.363C45.3192 51.3093 45.4332 51.2312 45.5287 51.133C45.6242 51.0348 45.6991 50.9186 45.7492 50.7911C45.7992 50.6637 45.8234 50.5275 45.8203 50.3906V46.6406H49.4823C49.6192 46.6399 49.7547 46.6119 49.8807 46.5583C50.0067 46.5047 50.1207 46.4265 50.2162 46.3283C50.3117 46.2301 50.3866 46.1139 50.4367 45.9865C50.4867 45.859 50.5109 45.7228 50.5078 45.5859V42.3047C50.5109 42.1678 50.4867 42.0316 50.4367 41.9042C50.3866 41.7767 50.3117 41.6605 50.2162 41.5623C50.1207 41.4642 50.0067 41.386 49.8807 41.3323C49.7547 41.2787 49.6192 41.2507 49.4823 41.25ZM48.8672 45H45.2636C44.9809 44.9992 44.7092 45.1092 44.5066 45.3063C44.304 45.5035 44.1866 45.7721 44.1797 46.0547V49.8047H42.0703V46.0547C42.0734 45.9178 42.0492 45.7816 41.9992 45.6542C41.9491 45.5267 41.8742 45.4105 41.7787 45.3123C41.6832 45.2142 41.5692 45.136 41.4432 45.0823C41.3172 45.0287 41.1817 45.0007 41.0448 45H37.2656V42.8906H41.0448C41.1817 42.8899 41.3172 42.8619 41.4432 42.8083C41.5692 42.7547 41.6832 42.6765 41.7787 42.5783C41.8742 42.4801 41.9491 42.3639 41.9992 42.2365C42.0492 42.109 42.0734 41.9728 42.0703 41.8359V38.2031H44.1797V41.8359C44.1866 42.1185 44.304 42.3872 44.5066 42.5843C44.7092 42.7814 44.9809 42.8914 45.2636 42.8906H48.8672V45Z" fill="black"/>
<path d="M43.3395 29.667C41.0734 29.6676 38.8412 30.2165 36.8333 31.2667C34.8253 32.3169 33.1013 33.8373 31.8082 35.6982C31.5873 35.6302 31.3782 35.5641 31.1811 35.4999L30.385 33.2417C32.8459 31.398 33.52 28.519 33.7039 27.1245C35.3589 26.6755 36.8787 24.731 37.4876 22.1542C37.8157 20.7605 37.3352 19.4629 36.2916 18.9251C36.0023 18.7762 35.6817 18.6984 35.3564 18.6982C35.4103 18.2938 35.4666 17.7992 35.5248 17.1918C35.661 15.7707 35.7475 14.3352 35.7475 13.9715C35.7475 13.7137 35.7526 13.4479 35.758 13.1665C35.8015 10.9225 35.8555 8.12991 33.3803 5.62632C31.1589 3.3796 28.014 2.14104 24.7533 2.23116C21.505 2.31999 18.4589 3.70608 16.3959 6.03401C16.3327 6.10565 16.2684 6.17776 16.203 6.25034C14.9588 7.64065 13.2545 9.54483 13.3768 14.4211C13.3886 14.8984 13.8456 17.0858 14.3189 18.753C14.043 18.7804 13.7754 18.863 13.5321 18.996C12.5303 19.5374 12.0709 20.8066 12.3889 22.1543C12.9983 24.7356 14.523 26.6824 16.1817 27.1265C16.38 28.4941 17.0741 31.3445 19.4722 33.1898L18.4219 35.3498C17.6719 35.5848 16.8266 35.8177 15.9541 36.0621C10.3152 37.6426 2.57812 39.807 2.57812 46.8386V54.1907C2.57812 55.9275 3.50707 57.7735 5.17453 57.7735H43.3886C43.3962 57.7735 43.4036 57.7725 43.4111 57.7723C47.1302 57.7509 50.6893 56.2561 53.3083 53.6153C55.9273 50.9745 57.3926 47.4032 57.3831 43.6839C57.3736 39.9647 55.8902 36.4009 53.2577 33.7735C50.6253 31.1461 47.0587 29.6694 43.3395 29.667ZM17.4258 7.34405C17.4928 7.26921 17.5589 7.19499 17.6242 7.12139C19.3871 5.13178 22.002 3.9469 24.7983 3.8705C27.6081 3.79245 30.3104 4.85393 32.2138 6.77921C34.202 8.79003 34.1573 11.0978 34.118 13.1339C34.1123 13.4236 34.1071 13.6973 34.1071 13.9708C34.1071 14.1447 34.0895 14.5055 34.0595 14.9645C33.6628 13.4899 33.1082 12.0658 32.3445 11.233L32.2838 11.1116C32.2145 10.973 32.1074 10.8569 31.9748 10.7767C31.8423 10.6964 31.6898 10.6554 31.5349 10.6582C31.38 10.6611 31.229 10.7077 31.0995 10.7928C30.9701 10.8779 30.8673 10.9979 30.8032 11.1389C29.4814 14.0462 28.1721 13.9292 26.003 13.7357C25.7511 13.7132 25.495 13.6903 25.2346 13.6723C24.4092 13.6137 24.1106 14.096 24.0205 14.3051C23.7531 14.9262 24.1247 15.5969 24.805 16.3921C22.6395 16.1336 22.0905 14.5497 21.596 13.1209C21.2528 12.1293 20.8638 11.0052 19.7327 11.0052C19.1877 10.9945 18.6467 11.1006 18.1461 11.3163C17.6454 11.532 17.1967 11.8523 16.8301 12.2557C15.9895 13.1581 15.5159 14.4446 15.2522 15.7053C15.1455 15.2688 15.0672 14.826 15.0178 14.3794C14.9108 10.1541 16.2469 8.66112 17.4258 7.34405ZM17.7477 26.3687C17.7378 26.1574 17.6472 25.958 17.4946 25.8115C17.3419 25.665 17.1389 25.5827 16.9274 25.5815C16.9157 25.5815 16.9039 25.5815 16.8916 25.5815C15.6902 25.5815 14.4217 23.6216 13.9854 21.777C13.8184 21.0692 14.0377 20.5872 14.312 20.4388C14.6222 20.2715 14.953 20.5662 15.0807 20.7008C15.188 20.8138 15.3251 20.8938 15.4762 20.9317C15.6272 20.9695 15.7859 20.9636 15.9337 20.9146C16.0815 20.8656 16.2123 20.7755 16.3108 20.6549C16.4093 20.5344 16.4715 20.3882 16.49 20.2336C16.5709 20.0929 16.6079 19.9313 16.5966 19.7694C16.5094 18.5112 16.5974 14.9093 18.0309 13.3731C18.2337 13.1482 18.4808 12.9676 18.7567 12.8428C19.0325 12.718 19.3313 12.6515 19.6341 12.6477C19.7573 12.8257 19.9219 13.3009 20.0453 13.6578C20.6532 15.4142 21.7848 18.6828 26.7995 17.9673C26.9532 17.9454 27.0976 17.8803 27.2158 17.7795C27.334 17.6788 27.4211 17.5466 27.4671 17.3982C27.5131 17.2499 27.5161 17.0916 27.4757 16.9416C27.4352 16.7917 27.3531 16.6563 27.2387 16.5512C26.841 16.1856 26.4636 15.7986 26.108 15.392C28.0365 15.5595 30.0037 15.6225 31.6296 13.0642C32.6571 14.9912 33.1921 18.8232 33.3231 20.3448C33.3407 20.5493 33.4343 20.7398 33.5854 20.8786C33.7366 21.0175 33.9343 21.0946 34.1395 21.0948C34.163 21.0948 34.1864 21.0938 34.2107 21.0917C34.3593 21.0789 34.5016 21.0259 34.6222 20.9382C34.7429 20.8506 34.8374 20.7317 34.8955 20.5943C35.0575 20.4342 35.3045 20.2615 35.54 20.3826C35.841 20.5376 36.058 21.0665 35.8908 21.7771C35.4547 23.6221 34.1863 25.5818 32.9845 25.5818H32.964C32.8048 25.5792 32.6482 25.6227 32.5131 25.707C32.3985 25.7785 32.3034 25.8772 32.2362 25.9944C32.1691 26.1116 32.132 26.2436 32.1284 26.3786C32.0932 27.0494 31.7755 30.4793 28.9806 32.2164C28.976 32.2191 28.9718 32.2221 28.9673 32.2249C27.8791 32.8963 26.5235 33.2369 24.9381 33.2369C23.357 33.2369 22.0044 32.8886 20.9174 32.2014C18.1622 30.4617 17.7935 27.0375 17.7476 26.3687H17.7477ZM19.7435 36.3833L20.8802 34.0462C22.0574 34.5976 23.4176 34.8773 24.9382 34.8773C26.4368 34.8773 27.7789 34.6117 28.9437 34.0883L29.767 36.4238C29.8082 36.5408 29.8755 36.6469 29.9636 36.7342C30.0518 36.8215 30.1586 36.8876 30.276 36.9277C30.4804 36.9974 30.6967 37.0685 30.9251 37.1411C30.5231 37.8959 30.1913 38.6861 29.9339 39.5017C29.1748 40.4008 27.5816 41.776 24.9382 41.776C24.0462 41.7856 23.1621 41.6071 22.3438 41.2521C21.5254 40.8971 20.791 40.3735 20.1886 39.7156C19.3233 38.7874 18.8336 37.7528 18.6684 36.9908C18.8696 36.9291 19.0669 36.8672 19.2595 36.8046C19.3644 36.7705 19.4612 36.7156 19.5444 36.6433C19.6275 36.5709 19.6953 36.4825 19.7435 36.3833ZM4.21875 54.1907V46.8386C4.21875 41.051 10.9775 39.1608 16.3966 37.6419C16.626 37.5776 16.8593 37.5142 17.0824 37.4513C17.676 39.9448 20.3498 43.4161 24.934 43.4161C26.5049 43.4359 28.0475 42.9965 29.3721 42.1517C29.0587 44.9539 29.5953 47.7857 30.9123 50.279C32.2292 52.7723 34.2655 54.8119 36.7567 56.1328H5.17453C4.65234 56.1328 4.21875 55.0888 4.21875 54.1907ZM43.3395 56.1328C40.8845 56.1328 38.4847 55.4048 36.4435 54.0409C34.4023 52.677 32.8113 50.7384 31.8719 48.4703C30.9324 46.2023 30.6866 43.7065 31.1656 41.2988C31.6445 38.891 32.8267 36.6793 34.5626 34.9434C36.2985 33.2075 38.5102 32.0253 40.918 31.5463C43.3258 31.0674 45.8215 31.3132 48.0896 32.2527C50.3577 33.1921 52.2962 34.783 53.6601 36.8242C55.024 38.8655 55.752 41.2653 55.7521 43.7202C55.7484 47.0111 54.4395 50.1662 52.1125 52.4932C49.7854 54.8202 46.6304 56.1292 43.3395 56.1328Z" fill="black"/>
</svg>
