<svg width="60" height="60" viewBox="0 0 60 60" fill="none" xmlns="http://www.w3.org/2000/svg">
<g clip-path="url(#clip0_6_150)">
<path d="M11.8579 44.6457C11.8594 44.6471 11.8607 44.6487 11.8621 44.65" stroke="white" stroke-width="2" stroke-miterlimit="10" stroke-linecap="round" stroke-linejoin="round"/>
<path d="M17.4536 53.733C17.5181 53.6685 17.7456 53.04 17.269 51.6102C15.9469 47.6437 11.8689 44.6578 11.8579 44.646C11.8591 44.6473 11.8603 44.6487 11.8616 44.6498C10.7248 43.7885 9.53039 43.111 8.3898 42.7309C6.96 42.2543 6.33152 42.4817 6.26695 42.5463M22.2718 49.9426C22.7788 51.4635 22.9444 52.8787 22.7787 54.1318C22.6056 55.441 22.071 56.5732 21.1823 57.4618C19.4433 59.2009 16.7729 59.5878 13.6631 58.5512C13.063 58.3512 12.4607 58.1003 11.8615 57.8081C7.31426 55.5908 2.96801 50.895 1.44855 46.3366C0.411914 43.2268 0.798867 40.5565 2.53793 38.8174C4.27699 37.0783 6.94734 36.6914 10.0571 37.728C10.5157 37.8809 10.9755 38.0638 11.4343 38.2718C11.5768 38.3364 11.7192 38.403 11.8615 38.4724C16.4078 40.6903 20.7526 45.3851 22.2718 49.9426Z" stroke="white" stroke-width="2" stroke-miterlimit="10" stroke-linecap="round" stroke-linejoin="round"/>
<path d="M53.7332 6.2669C53.6687 6.20233 53.0402 5.97487 51.6104 6.45147C48.0262 7.64608 43.9203 11.7629 42.7311 15.3308C42.2545 16.7605 42.4819 17.3891 42.5465 17.4536M58.5515 10.0573C57.5255 13.1353 55.21 16.2746 52.415 18.6725C51.0713 19.8253 49.6172 20.8074 48.1413 21.5275C47.5413 21.8203 46.9379 22.0715 46.3369 22.2719C43.2271 23.3085 40.5568 22.9216 38.8177 21.1825C37.0787 19.4435 36.6917 16.773 37.7283 13.6633C38.72 10.6885 40.9157 7.65569 43.5854 5.29085C45.0064 4.03202 46.5616 2.9621 48.1413 2.19183C48.7403 1.89968 49.3428 1.64878 49.9429 1.44874C53.0527 0.412099 55.7231 0.799051 57.4621 2.53811C59.2012 4.27706 59.5881 6.94741 58.5515 10.0573Z" stroke="white" stroke-width="2" stroke-miterlimit="10" stroke-linecap="round" stroke-linejoin="round"/>
<path d="M11.0388 14.4602C11.0401 14.4602 11.0415 14.4603 11.0428 14.4603C11.0416 14.4603 11.0403 14.4602 11.0388 14.4602Z" stroke="white" stroke-width="2" stroke-miterlimit="10" stroke-linecap="round" stroke-linejoin="round"/>
<path d="M17.9604 16.1061C17.9604 16.0453 17.7714 15.6417 16.8727 15.1924C15.3406 14.4263 13.0551 14.1828 11.0425 14.4603M11.0425 14.4603C11.0413 14.4603 11.0402 14.4602 11.039 14.4602M11.0425 14.4603C10.1006 14.5903 9.21826 14.8339 8.50131 15.1924C7.6026 15.6417 7.41357 16.0453 7.41357 16.1061M21.4761 16.1061C21.4761 20.9591 12.5535 22.7003 7.26697 20.3236C5.43709 19.5008 3.89795 18.0916 3.89795 16.1061C3.89795 14.4665 4.97443 13.0253 6.929 12.0479C12.1172 9.45396 21.4761 11.128 21.4761 16.1061Z" stroke="white" stroke-width="2" stroke-miterlimit="10" stroke-linecap="round" stroke-linejoin="round"/>
<path d="M22.6758 40.4076V39.0013" stroke="white" stroke-width="2" stroke-miterlimit="10" stroke-linecap="round" stroke-linejoin="round"/>
<path d="M37.3242 40.4076V39.0013" stroke="white" stroke-width="2" stroke-miterlimit="10" stroke-linecap="round" stroke-linejoin="round"/>
<path d="M28.0706 39.0454C28.5397 38.5071 29.2298 38.1664 29.9999 38.1664C30.7701 38.1664 31.4602 38.5071 31.9293 39.0454" stroke="white" stroke-width="2" stroke-miterlimit="10" stroke-linecap="round" stroke-linejoin="round"/>
<path d="M10.8496 10.9423C14.973 4.79824 22.0309 0.879137 30.0002 0.878902C34.9939 0.878551 39.7064 2.46386 43.5855 5.29066" stroke="white" stroke-width="2" stroke-miterlimit="10" stroke-linecap="round" stroke-linejoin="round"/>
<path d="M11.4346 38.272C8.29498 32.4015 6.37205 26.619 7.2669 20.3235" stroke="white" stroke-width="2" stroke-miterlimit="10" stroke-linecap="round" stroke-linejoin="round"/>
<path d="M52.4149 18.6724C52.7762 20.2767 52.9688 21.9441 52.9688 23.6563C52.9688 33.3814 45.5947 44.2697 39.368 51.691H39.3573C37.6724 53.6985 35.9665 55.58 34.327 57.2858C33.1944 58.4641 31.6337 59.1233 30 59.1211C28.3684 59.1187 26.801 58.4575 25.6724 57.2781C24.727 56.2902 23.7565 55.2375 22.7786 54.1321" stroke="white" stroke-width="2" stroke-miterlimit="10" stroke-linecap="round" stroke-linejoin="round"/>
<path d="M47.7674 39.8616C49.9024 41.7869 51.672 44.231 52.4941 46.6975C53.358 49.289 53.0355 51.5144 51.5863 52.9635C50.137 54.4128 47.9118 54.7352 45.3202 53.8714C43.5187 53.2709 41.7238 52.1593 40.1338 50.767" stroke="white" stroke-width="2" stroke-miterlimit="10" stroke-linecap="round" stroke-linejoin="round"/>
<path d="M48.4789 49.8562C48.5327 49.8024 48.7223 49.2787 48.3251 48.0873C47.8319 46.6076 46.7407 45.0215 45.4038 43.6767" stroke="white" stroke-width="2" stroke-miterlimit="10" stroke-linecap="round" stroke-linejoin="round"/>
</g>
<defs>
<clipPath id="clip0_6_150">
<rect width="60" height="60" fill="white" transform="matrix(1 0 0 -1 0 60)"/>
</clipPath>
</defs>
</svg>
