<svg width="92" height="92" viewBox="0 0 92 92" fill="none" xmlns="http://www.w3.org/2000/svg">
<circle cx="46" cy="46" r="43" fill="#07CCEC" stroke="white" stroke-width="6"/>
<path d="M52.9678 22V31.2903H54.5162V63.0323C54.5162 66.8746 57.6416 70 61.4839 70C65.3262 70 68.4516 66.8746 68.4516 63.0323V31.2903H70V22H52.9678ZM66.9033 63.0323C66.9033 66.0199 64.4715 68.4516 61.4839 68.4516C58.4963 68.4516 56.0645 66.0199 56.0645 63.0323V35.9355H66.9033V63.0323ZM66.9033 34.3871H56.0645V31.2903H66.9033V34.3871ZM68.4516 29.7419H54.5162V23.5484H56.0645V28.1935H57.6129V23.5484H59.1613V28.1935H60.7097V23.5484H62.2581V28.1935H63.8065V23.5484H65.3549V28.1935H66.9033V23.5484H68.4516V29.7419Z" fill="white"/>
<path d="M65.355 37.4839H63.8066V39.0323H65.355V37.4839Z" fill="white"/>
<path d="M65.355 40.5806H63.8066V59.9354H65.355V40.5806Z" fill="white"/>
<path d="M34.3871 31.2903H35.9355V43.2826L31.2903 36.9481L23.7985 47.1644C22.6225 48.7693 22 50.6684 22 52.6588V52.9677C22 58.0906 26.1675 62.2581 31.2903 62.2581C32.9835 62.2581 34.5667 61.7959 35.9355 61.0008V63.0323C35.9355 66.8746 39.0609 70 42.9032 70C46.7456 70 49.871 66.8746 49.871 63.0323V31.2903H51.4194V22H34.3871V31.2903ZM31.2903 60.7097C27.0214 60.7097 23.5484 57.2366 23.5484 52.9677V52.6588C23.5484 51.0005 24.0671 49.4173 25.0472 48.081L31.2903 39.5672L37.5326 48.0803C38.5135 49.4173 39.0323 51.0005 39.0323 52.6588V52.9677C39.0323 57.2366 35.5592 60.7097 31.2903 60.7097ZM48.3226 63.0323C48.3226 66.0199 45.8908 68.4516 42.9032 68.4516C39.9156 68.4516 37.4839 66.0199 37.4839 63.0323V59.8728C39.3791 58.1703 40.5806 55.7099 40.5806 52.9677V52.6588C40.5806 50.6692 39.9582 48.7693 38.7822 47.1644L37.4839 45.3946V35.9355H48.3226V63.0323ZM48.3226 34.3871H37.4839V31.2903H48.3226V34.3871ZM35.9355 23.5484H37.4839V28.1935H39.0323V23.5484H40.5806V28.1935H42.129V23.5484H43.6774V28.1935H45.2258V23.5484H46.7742V28.1935H48.3226V23.5484H49.871V29.7419H35.9355V23.5484Z" fill="white"/>
<path d="M46.774 37.4839H45.2256V39.0323H46.774V37.4839Z" fill="white"/>
<path d="M46.774 40.5806H45.2256V59.9354H46.774V40.5806Z" fill="white"/>
<path d="M31.2904 47.5483C28.3028 47.5483 25.8711 49.9801 25.8711 52.9677C25.8711 55.9553 28.3028 58.387 31.2904 58.387C34.2781 58.387 36.7098 55.9553 36.7098 52.9677C36.7098 49.9801 34.2781 47.5483 31.2904 47.5483ZM31.2904 56.8387C29.156 56.8387 27.4195 55.1021 27.4195 52.9677C27.4195 50.8332 29.156 49.0967 31.2904 49.0967C33.4249 49.0967 35.1614 50.8332 35.1614 52.9677C35.1614 55.1021 33.4249 56.8387 31.2904 56.8387Z" fill="white"/>
<path d="M28.9678 52.9676C28.9678 54.2481 30.0098 55.2902 31.2904 55.2902V53.7418C30.863 53.7418 30.5162 53.395 30.5162 52.9676C30.5162 52.5402 30.863 52.1934 31.2904 52.1934V50.645C30.0098 50.645 28.9678 51.6871 28.9678 52.9676Z" fill="white"/>
</svg>
