<svg width="59" height="59" viewBox="0 0 59 59" fill="none" xmlns="http://www.w3.org/2000/svg">
<g clip-path="url(#clip0_12_461)">
<path d="M30.4516 3.80664H28.5484V5.70987H26.6451V7.61309H28.5484V9.51632H30.4516V7.61309H32.3548V5.70987H30.4516V3.80664Z" fill="black"/>
<path d="M32.3548 19.0323V15.2258H34.2581C35.3077 15.2258 36.1613 14.3722 36.1613 13.3226V12.371H41.3617L44.0265 16.367L47.6541 6.39086L49.8082 11.4194H59V9.51613H51.0628L47.5082 1.22204L43.5228 12.1814L42.3802 10.4677H36.1613V1.90323C36.1613 0.853571 35.3077 0 34.2581 0H24.7419C23.6923 0 22.8387 0.853571 22.8387 1.90323V6.66129H14.5985L12.4435 11.6898L8.81682 1.71365L6.15203 5.70968H0V7.6129H7.17055L8.31221 5.89926L12.2976 16.8586L15.8531 8.56452H22.8387V13.3226C22.8387 14.3722 23.6923 15.2258 24.7419 15.2258H26.6452V19.0323H28.5484V24.7419H23.7903C22.1733 24.7419 20.5549 25.1234 19.1094 25.8469L18.4491 26.1768C17.8409 24.2499 16.0575 22.8387 13.9317 22.8387H10.4677C9.39253 22.8387 8.41025 23.2109 7.6129 23.815V19.9839C7.6129 18.4101 6.33185 17.129 4.75806 17.129C3.18428 17.129 1.90323 18.4101 1.90323 19.9839V34.2581C0.853571 34.2581 0 35.1116 0 36.1613V38.0645C0 39.1142 0.853571 39.9677 1.90323 39.9677H4.75806V50.4462C3.56576 51.3434 2.85484 52.7402 2.85484 54.2419C2.85484 56.8654 4.98946 59 7.6129 59C10.2363 59 12.371 56.8654 12.371 54.2419C12.371 52.7411 11.6526 51.3327 10.4677 50.4401V39.9677H48.5323V50.4401C47.3474 51.3318 46.629 52.7411 46.629 54.2419C46.629 56.8654 48.7637 59 51.3871 59C54.0105 59 56.1452 56.8654 56.1452 54.2419C56.1452 52.7411 55.4268 51.3327 54.2419 50.4401V39.9677H57.0968C58.1464 39.9677 59 39.1142 59 38.0645V36.1613C59 35.1116 58.1464 34.2581 57.0968 34.2581H57.0485C56.5657 28.9308 52.0799 24.7419 46.629 24.7419H30.4516V19.0323H32.3548ZM10.4677 24.7419H13.9317C15.5055 24.7419 16.7866 26.023 16.7866 27.5968C16.7866 29.1706 15.5055 30.4516 13.9317 30.4516H10.4677C8.89396 30.4516 7.6129 29.1706 7.6129 27.5968C7.6129 26.023 8.89396 24.7419 10.4677 24.7419ZM14.2742 32.3548C15.513 32.3548 16.5598 33.1531 16.9539 34.2581H7.78808C8.18211 33.1531 9.22897 32.3548 10.4677 32.3548H14.2742ZM7.6129 31.3786C7.62359 31.387 7.63195 31.3958 7.64218 31.4032C7.63195 31.4107 7.62359 31.4195 7.6129 31.4279V31.3786ZM3.80645 19.9839C3.80645 19.4597 4.23301 19.0323 4.75806 19.0323C5.28312 19.0323 5.70968 19.4597 5.70968 19.9839V34.2581H3.80645V19.9839ZM7.6129 57.0968C6.03912 57.0968 4.75806 55.8157 4.75806 54.2419C4.75806 53.9144 4.83241 53.6035 4.93789 53.3038C5.3347 54.4018 6.37878 55.1936 7.6129 55.1936C8.8461 55.1936 9.89018 54.4027 10.2879 53.3047C10.3934 53.6044 10.4677 53.9157 10.4677 54.2419C10.4677 55.8157 9.18669 57.0968 7.6129 57.0968ZM8.56452 52.3387C8.56452 52.8628 8.13796 53.2903 7.6129 53.2903C7.08784 53.2903 6.66129 52.8628 6.66129 52.3387V39.9677H8.56452V52.3387ZM51.3871 57.0968C49.8133 57.0968 48.5323 55.8157 48.5323 54.2419C48.5323 53.9157 48.6066 53.6044 48.7121 53.3047C49.1098 54.4027 50.1539 55.1936 51.3871 55.1936C52.6203 55.1936 53.6644 54.4027 54.0621 53.3047C54.1676 53.6044 54.2419 53.9157 54.2419 54.2419C54.2419 55.8157 52.9609 57.0968 51.3871 57.0968ZM52.3387 52.3387C52.3387 52.8628 51.9122 53.2903 51.3871 53.2903C50.862 53.2903 50.4355 52.8628 50.4355 52.3387V39.9677H52.3387V52.3387ZM55.1373 34.2581H51.3871V36.1613H57.0968V38.0645H1.90323V36.1613H49.4839V34.2581H18.9361C18.6828 33.016 17.9445 31.9487 16.9274 31.2624C17.8409 30.5143 18.4649 29.4428 18.6271 28.2162L19.9611 27.5494C21.1427 26.9583 22.4665 26.6452 23.7903 26.6452H46.629C51.0302 26.6452 54.6624 29.9823 55.1373 34.2581ZM24.7419 1.90323H34.2581L34.259 13.3226H24.7419V1.90323ZM30.4516 15.2258V17.129H28.5484V15.2258H30.4516Z" fill="black"/>
</g>
<defs>
<clipPath id="clip0_12_461">
<rect width="59" height="59" fill="white"/>
</clipPath>
</defs>
</svg>
