<svg width="66" height="66" viewBox="0 0 66 66" fill="none" xmlns="http://www.w3.org/2000/svg">
<g clip-path="url(#clip0_11_421)">
<path d="M14.1194 49.0749L8.20808 40.5615C6.69661 38.3847 3.52477 37.9947 1.53131 39.7462C-0.180357 41.2501 -0.499538 43.8014 0.788918 45.6805L7.5206 55.4988C8.75259 57.3834 10.7433 58.6946 12.6899 59.7501L17.021 62.0961C20.1757 63.8658 20.8494 64.9982 20.9145 65.1188C21.1428 65.7439 21.8366 66.0966 22.4767 65.9154C23.1616 65.7211 23.5593 65.0083 23.3652 64.3233C23.2364 63.8696 22.489 62.2055 18.2739 59.8427C18.2685 59.8397 18.2631 59.8366 18.2576 59.8336L13.9425 57.4962C12.3551 56.545 10.7261 55.612 9.65574 54.0531L2.91529 44.2225C2.36394 43.4184 2.50046 42.3265 3.23292 41.683C4.08747 40.9322 5.44218 41.0986 6.09034 42.0319L12.2975 50.9715C13.5009 52.6833 15.2641 53.9628 17.2644 54.5766C17.2701 54.5784 17.2752 54.5808 17.2809 54.5826L22.3441 56.1361C22.47 56.1748 22.5974 56.1931 22.7227 56.1931C23.274 56.1931 23.7845 55.8364 23.9547 55.2818C24.1635 54.6012 23.781 53.8802 23.1004 53.6714L18.0482 52.1212C18.0442 52.1199 18.0404 52.1182 18.0364 52.117C17.3131 51.8969 16.7859 51.3244 16.6263 50.5854C16.4765 49.8921 16.7026 49.1291 17.2327 48.6507C17.7105 48.2195 18.4546 48.0091 19.0856 48.1476C19.0856 48.1476 25.0232 50.0873 25.0542 50.0949C29.5958 51.2138 31.7111 53.7201 31.7111 57.9821V64.6752C31.7111 65.3872 32.2882 65.9643 33.0002 65.9643C33.712 65.9643 34.2893 65.3872 34.2893 64.6752V57.9821C34.2893 53.7201 36.4046 51.2138 40.9463 50.0949C40.9773 50.0873 46.9147 48.1476 46.9147 48.1476C48.3473 47.8339 49.6811 49.1638 49.3742 50.5854C49.2145 51.3244 48.6874 51.897 47.9641 52.1171C47.9445 52.123 42.9077 53.6715 42.9077 53.6715C42.2272 53.8803 41.8447 54.6013 42.0534 55.282C42.2236 55.8367 42.7339 56.1932 43.2855 56.1932C43.4107 56.1932 43.5381 56.1748 43.6641 56.1362C43.6641 56.1362 48.7911 54.5606 48.8222 54.5483C50.7867 53.9244 52.5172 52.6585 53.707 50.9655L59.91 42.0322C60.5579 41.0993 61.9138 40.9335 62.7673 41.6834C63.4998 42.3269 63.6363 43.4186 63.0849 44.2229L56.3449 54.0534C55.2731 55.6144 53.6503 56.5428 52.058 57.4966L47.743 59.834C47.7374 59.837 47.732 59.84 47.7266 59.8431C43.5116 62.2058 42.7641 63.8699 42.6354 64.3237C42.441 65.0086 42.8389 65.7213 43.5239 65.9157C44.1638 66.0973 44.8578 65.7438 45.086 65.1192C45.151 64.9987 45.8244 63.8663 48.9792 62.0967L53.3105 59.7505C55.2543 58.6964 57.2511 57.3787 58.4798 55.4993L65.2116 45.6809C66.4999 43.8015 66.1808 41.2504 64.469 39.7466C62.4764 37.9959 59.3044 38.3843 57.7924 40.5619L51.881 49.0753C51.322 46.7057 48.5802 44.8922 46.166 45.6804L40.2823 47.6037C37.5725 48.2788 35.4732 49.4512 34.0423 51.0886C33.644 51.5445 33.2972 52.0373 33.0004 52.5648C32.7037 52.0373 32.3569 51.5443 31.9586 51.0886C30.5277 49.4512 28.4284 48.2789 25.7186 47.6037L19.8347 45.6804C18.4453 45.2249 16.6567 45.7233 15.5767 46.6718C14.8322 47.3251 14.3349 48.1617 14.1194 49.0749Z" fill="white"/>
<path d="M17.2614 37.4502C17.2614 37.7921 17.3972 38.12 17.6389 38.3617L22.944 43.6667C23.4407 44.1633 24.2703 44.1634 24.767 43.6667L33.1429 35.2909L41.5185 43.6665C42.0152 44.163 42.8448 44.163 43.3417 43.6665L48.6467 38.3614C49.1501 37.7538 49.1501 37.1461 48.6467 36.5383L40.271 28.1626L43.2041 25.2296C46.0458 22.5711 47.6378 18.3613 47.6378 14.5256C47.6378 8.90988 44.3392 3.74781 39.2343 1.37471C38.5884 1.07435 37.822 1.3546 37.5219 2.00031C37.2218 2.64602 37.5019 3.41252 38.1475 3.71262C42.3466 5.66457 45.0598 9.90894 45.0598 14.5256C45.0598 15.3322 44.9837 16.13 44.8343 16.9102C43.415 11.6091 38.4513 7.228 32.7623 7.54408C27.1953 7.83323 23.0097 11.7169 21.4518 16.9097C21.3026 16.1297 21.2265 15.3319 21.2265 14.5256C21.2265 9.90997 23.9389 5.66586 28.1365 3.71352C28.782 3.41329 29.0619 2.64653 28.7617 2.00095C28.4613 1.3555 27.6944 1.07564 27.0491 1.37574C21.9458 3.74936 18.6483 8.91104 18.6483 14.5255C18.6483 18.5233 20.2584 22.4055 23.082 25.2294L26.015 28.1623L17.6392 36.5381C17.3971 36.7804 17.2614 37.1083 17.2614 37.4502ZM39.9981 13.1425C42.1179 15.409 42.8229 18.5811 42.8816 21.5998C42.4402 22.2443 41.9367 22.8509 41.3808 23.4066L38.4478 26.3396L34.966 22.8577L37.8989 19.9246C39.3411 18.4824 40.1353 16.5651 40.1353 14.5257C40.1353 14.0526 40.0882 13.5902 39.9981 13.1425ZM32.8766 10.1202C32.8849 10.1197 32.8939 10.1192 32.9017 10.1187C33.0612 10.1099 33.2199 10.1098 33.3852 10.1187C33.3868 10.1187 33.3885 10.1189 33.3903 10.1189H33.3908C33.3944 10.1192 33.3988 10.1194 33.4026 10.1196C35.7334 10.2552 37.5571 12.1873 37.5571 14.5257C37.5571 15.8764 37.031 17.1463 36.0759 18.1016L33.1429 21.0346L30.2099 18.1016C29.2546 17.1463 28.7287 15.8763 28.7287 14.5256C28.7285 12.1894 30.5486 10.2587 32.8766 10.1202ZM24.9048 23.4067C24.349 22.851 23.8453 22.2443 23.4037 21.5995C23.4632 18.579 24.1678 15.4109 26.2875 13.1423C26.1975 13.5898 26.1503 14.0525 26.1503 14.5259C26.1503 16.5652 26.9446 18.4826 28.3867 19.9247L45.9119 37.4499L42.4299 40.9319L24.9048 23.4067ZM27.8378 29.9859L31.3198 33.4679L23.8554 40.9322L20.3734 37.4502L27.8378 29.9859Z" fill="white"/>
<path d="M33.8585 2.39176C34.4447 2.00362 34.6014 1.18803 34.2143 0.605116C33.8258 0.0198814 33.0115 -0.141123 32.4277 0.248045C31.8433 0.6376 31.6808 1.4519 32.0706 2.03598C32.4633 2.62005 33.2721 2.78002 33.8585 2.39176Z" fill="white"/>
</g>
<defs>
<clipPath id="clip0_11_421">
<rect width="66" height="66" fill="white"/>
</clipPath>
</defs>
</svg>
