<svg xmlns="http://www.w3.org/2000/svg" xmlns:xlink="http://www.w3.org/1999/xlink" width="139" height="42" viewBox="0 0 491 149">
  <defs>
    <linearGradient id="linear-gradient" x1="0.396" y1="0.69" x2="0.745" y2="0.272" gradientUnits="objectBoundingBox">
      <stop offset="0" stop-color="#fff"/>
      <stop offset="1" stop-color="#37ff52"/>
    </linearGradient>
    <clipPath id="clip-plus">
      <rect width="491" height="149"/>
    </clipPath>
  </defs>
  <g id="plus" clip-path="url(#clip-plus)">
    <g id="Component_1_1" data-name="Component 1 – 1" transform="translate(4.136 4.711)">
      <path id="Path_8" data-name="Path 8" d="M120.983,141.337c-10.388,0-22.934-3.523-36.281-10.188a176.1,176.1,0,0,1-40.481-28.667,185.018,185.018,0,0,1-24-27.055A128,128,0,0,1,5.074,48.557C1.586,39.841-.119,31.891.006,24.925c.13-7.212,2.227-13.046,6.232-17.341A22.3,22.3,0,0,1,15.08,1.862,34.422,34.422,0,0,1,26.788,0C33.71,0,41.543,1.546,50.07,4.6A134.155,134.155,0,0,1,76.529,17.825c-11.781-5.54-23.064-8.47-32.632-8.47-9.326,0-16.8,2.829-21.621,8.18-7.507,8.338-8.149,21.953-1.806,38.337s18.908,33.578,35.383,48.413c22.268,20.051,48.385,32.507,68.159,32.507,8.536,0,15.583-2.389,20.38-6.907a21.123,21.123,0,0,1-2.853,3.866,22.285,22.285,0,0,1-8.842,5.721,34.446,34.446,0,0,1-11.708,1.863Zm-19.116-14.269A95.049,95.049,0,0,1,80.522,115.63l.612.2a97.766,97.766,0,0,0,10.272,4.436C96.9,122.29,104.982,124.7,112.3,124.7c6.125,0,10.822-1.67,13.96-4.963,3.514-3.687,5.108-9.462,4.739-17.163l4.049-5.038-.467-18.181c5.631,8.606,9.167,17.249,10.227,24.992a29.937,29.937,0,0,1-.316,10.759,19.73,19.73,0,0,1-4.3,8.637c-4.132,4.754-10.6,7.266-18.708,7.266A56.79,56.79,0,0,1,101.867,127.068Zm1.168-71.629L99.81,51.821V40.184l16.65,15.255ZM57.373,19.916l-5.663,5.32c-9.075-.063-11.315-1.494-22.194,4.343C36.883,13.712,57.373,19.916,57.373,19.916Z" transform="translate(0)" fill="#309bd3"/>
      <path id="Path_4" data-name="Path 4" d="M944.932,537.209h21.754V508.826c.01-5.492,6.215-4.972,6.215-4.972h29.419s5.712-.207,5.8,4.972v28.383h28.59c6.505.18,6.422,7.666,6.422,7.666v27.554s.431,6.556-6.422,6.837h-28.59v17.817C961.506,578.022,944.932,537.209,944.932,537.209Z" transform="translate(-913.135 -478.711)" fill="#51d72b"/>
      <path id="Path_5" data-name="Path 5" d="M971.14,510.01v13.256s15.741,31.813,67.272,44.406V546.463s-.118-3.611-6.793-3.645h-27.671V512.827c-.007-4.62-3.148-4.474-3.148-4.474H973.625S971.078,508.094,971.14,510.01Z" transform="translate(-913.135 -478.711)" opacity="0.34" fill="url(#linear-gradient)"/>
      <path id="Path_6" data-name="Path 6" d="M28.32-76.68a25.09,25.09,0,0,1,8.82,1.74,28.328,28.328,0,0,1,7.5,4.5,21.318,21.318,0,0,1,7.44-4.68,24.3,24.3,0,0,1,8.52-1.56,23.011,23.011,0,0,1,9.48,1.98,25.014,25.014,0,0,1,7.74,5.34,25.632,25.632,0,0,1,5.22,7.74,24.421,24.421,0,0,1,2.04,9.3V-8.16A7.761,7.761,0,0,1,82.62-2.4,7.918,7.918,0,0,1,76.92,0a7.856,7.856,0,0,1-5.76-2.4,7.856,7.856,0,0,1-2.4-5.76V-51.48a7.757,7.757,0,0,0-2.34-5.7,7.9,7.9,0,0,0-5.82-2.34,7.618,7.618,0,0,0-5.58,2.34,7.757,7.757,0,0,0-2.34,5.7v9.84a7.957,7.957,0,0,1-2.34,5.76,7.66,7.66,0,0,1-5.7,2.4,7.8,7.8,0,0,1-5.82-2.4,7.957,7.957,0,0,1-2.34-5.76v-9.84a7.57,7.57,0,0,0-2.46-5.7,8.02,8.02,0,0,0-5.7-2.34,8.02,8.02,0,0,0-5.7,2.34,7.57,7.57,0,0,0-2.46,5.7V-8.16A8.067,8.067,0,0,1,17.88-2.4,7.606,7.606,0,0,1,12.12,0,7.468,7.468,0,0,1,6.48-2.4,8.067,8.067,0,0,1,4.2-8.16V-52.32a29.106,29.106,0,0,1,2.28-9.6,25.785,25.785,0,0,1,5.1-7.74,23.012,23.012,0,0,1,7.44-5.16A22.988,22.988,0,0,1,28.32-76.68Zm93,18.6a26.385,26.385,0,0,1,11.04,2.4,31.419,31.419,0,0,1,9.3,6.42,31.663,31.663,0,0,1,6.42,9.24,25.983,25.983,0,0,1,2.4,10.98,5.871,5.871,0,0,1-2.34,4.92,8.744,8.744,0,0,1-5.82,1.68H110.4q3.96,6.84,10.92,6.84a12.493,12.493,0,0,0,3.24-.36,14.415,14.415,0,0,0,2.34-.84,21.943,21.943,0,0,1,2.04-.84,7.014,7.014,0,0,1,2.34-.36,8.059,8.059,0,0,1,4.38,1.44,8.122,8.122,0,0,1,2.76,3.3,7.675,7.675,0,0,1,.6,4.26,7.515,7.515,0,0,1-2.1,4.2,18.645,18.645,0,0,1-7.2,3.66A37.672,37.672,0,0,1,121.32,0a24.39,24.39,0,0,1-11.04-2.1,30.514,30.514,0,0,1-9.3-6.36,30.109,30.109,0,0,1-6.36-9.42,27.794,27.794,0,0,1-2.34-11.16,26.68,26.68,0,0,1,2.34-10.92,31.062,31.062,0,0,1,6.3-9.3,30.638,30.638,0,0,1,9.24-6.42A26.66,26.66,0,0,1,121.32-58.08Zm10.92,22.32a12.547,12.547,0,0,0-4.8-5.22,12.606,12.606,0,0,0-6.12-1.5,12.511,12.511,0,0,0-6.18,1.5,12.708,12.708,0,0,0-4.74,5.22Zm72.48-40.68a7.684,7.684,0,0,1,5.46,2.22,7.509,7.509,0,0,1,2.34,5.7v39.48a27.239,27.239,0,0,1-2.34,11.16,29.771,29.771,0,0,1-6.36,9.24,31.062,31.062,0,0,1-9.3,6.3A26.957,26.957,0,0,1,183.48,0a27.562,27.562,0,0,1-11.04-2.28,30.166,30.166,0,0,1-9.3-6.24,30.638,30.638,0,0,1-6.42-9.24,26.939,26.939,0,0,1-2.4-11.28,27.239,27.239,0,0,1,2.34-11.16,29.771,29.771,0,0,1,6.36-9.24,31.062,31.062,0,0,1,9.3-6.3,27.239,27.239,0,0,1,11.16-2.34,28.03,28.03,0,0,1,13.32,3.24v-13.8a7.121,7.121,0,0,1,.66-3,8.59,8.59,0,0,1,1.74-2.52,7.73,7.73,0,0,1,2.52-1.68A7.725,7.725,0,0,1,204.72-76.44ZM183.48-42.48a12.843,12.843,0,0,0-5.22,1.08,14.02,14.02,0,0,0-4.32,2.94A14.02,14.02,0,0,0,171-34.14a12.559,12.559,0,0,0-1.08,5.1A12.843,12.843,0,0,0,171-23.82a13.3,13.3,0,0,0,2.94,4.26,14.579,14.579,0,0,0,4.32,2.88,12.843,12.843,0,0,0,5.22,1.08,12.146,12.146,0,0,0,5.04-1.08,14.239,14.239,0,0,0,4.26-2.94,14.239,14.239,0,0,0,2.94-4.26,12.428,12.428,0,0,0,1.08-5.16,13.136,13.136,0,0,0-1.08-5.34,13.3,13.3,0,0,0-2.94-4.26,13.878,13.878,0,0,0-4.26-2.82A12.754,12.754,0,0,0,183.48-42.48Zm45.12-33.6a7.1,7.1,0,0,1,5.34,2.34,7.684,7.684,0,0,1,2.22,5.46,7.684,7.684,0,0,1-2.22,5.46,7.1,7.1,0,0,1-5.34,2.34,8.4,8.4,0,0,1-5.7-2.22,7.783,7.783,0,0,1-2.22-5.94,7.319,7.319,0,0,1,2.46-5.28A7.8,7.8,0,0,1,228.6-76.08Zm0,18.36a6.808,6.808,0,0,1,5.22,2.28,8.871,8.871,0,0,1,2.34,5.52V-7.44a7.557,7.557,0,0,1-2.04,5.4A8.035,8.035,0,0,1,228.6.36a7.664,7.664,0,0,1-5.28-1.92,8.483,8.483,0,0,1-2.64-5.4V-50.4a7.435,7.435,0,0,1,2.52-5.16A8.336,8.336,0,0,1,228.6-57.72Zm90-18.36a7.1,7.1,0,0,1,5.34,2.34,7.684,7.684,0,0,1,2.22,5.46,7.684,7.684,0,0,1-2.22,5.46,7.1,7.1,0,0,1-5.34,2.34,8.4,8.4,0,0,1-5.7-2.22,7.783,7.783,0,0,1-2.22-5.94,7.319,7.319,0,0,1,2.46-5.28A7.8,7.8,0,0,1,318.6-76.08Zm0,18.36a6.808,6.808,0,0,1,5.22,2.28,8.871,8.871,0,0,1,2.34,5.52V-7.44a7.557,7.557,0,0,1-2.04,5.4A8.035,8.035,0,0,1,318.6.36a7.664,7.664,0,0,1-5.28-1.92,8.483,8.483,0,0,1-2.64-5.4V-50.4a7.435,7.435,0,0,1,2.52-5.16A8.336,8.336,0,0,1,318.6-57.72Z" transform="translate(154.865 112.289)"/>
      <path id="Path_7" data-name="Path 7" d="M49.08,58.2a7.1,7.1,0,0,1,5.34-2.22,7.953,7.953,0,0,1,5.46,2.34,7.327,7.327,0,0,1,2.16,5.4,7.735,7.735,0,0,1-2.16,5.52L44.28,84.96l15.6,15.72a7.826,7.826,0,0,1,2.28,5.46A7.589,7.589,0,0,1,54.42,114a7.609,7.609,0,0,1-5.7-2.52L33.12,96.12l-15.6,15.72a8.861,8.861,0,0,1-5.4,2.16,6.939,6.939,0,0,1-5.64-2.16,7.922,7.922,0,0,1-2.34-5.34,7.218,7.218,0,0,1,2.1-5.58L22.2,84.96,6.24,69A6.461,6.461,0,0,1,4.2,63.72a9.317,9.317,0,0,1,2.28-5.4,7.054,7.054,0,0,1,5.64-2.4,8.984,8.984,0,0,1,5.4,2.4l15.6,15.6Z" transform="translate(395.865 -2.711)" fill="#38ff00"/>
    </g>
  </g>
</svg>
