<svg width="178" height="55" viewBox="0 0 178 55" fill="none" xmlns="http://www.w3.org/2000/svg">
<g clip-path="url(#clip0_162_414)">
<mask id="mask0_162_414" style="mask-type:luminance" maskUnits="userSpaceOnUse" x="0" y="0" width="178" height="55">
<path d="M178 0.344727H0V54.6549H178V0.344727Z" fill="white"/>
</mask>
<g mask="url(#mask0_162_414)">
<path d="M45.3649 53.5655C41.5946 53.5655 37.0631 52.2898 32.2052 49.8476C26.8398 47.0774 21.9095 43.5783 17.5229 39.3866C14.2965 36.3977 11.3963 33.0807 8.82233 29.5087C6.61092 26.5198 4.76204 23.2393 3.34819 19.7766C2.07935 16.569 1.46306 13.6895 1.49931 11.138C1.53557 8.51362 2.29687 6.39953 3.74697 4.83219C4.65328 3.8845 5.74086 3.1555 6.97345 2.75456C8.35104 2.28071 9.76489 2.06201 11.215 2.06201C13.7164 2.06201 16.5804 2.60876 19.6618 3.7387C23.0333 4.97799 26.2598 6.61823 29.2688 8.55007C24.991 6.54533 20.8944 5.45184 17.4504 5.45184C14.0789 5.45184 11.36 6.47243 9.61988 8.44072C6.90094 11.466 6.68343 16.4597 8.96734 22.401C11.2512 28.3423 15.8191 34.6481 21.8007 40.0426C29.8851 47.369 39.347 51.8888 46.525 51.8888C49.6064 51.8888 52.1804 51.014 53.9205 49.3738C53.6305 49.8841 53.2679 50.3579 52.8692 50.7953C51.9991 51.743 50.8753 52.4356 49.6789 52.873C48.2288 53.3833 46.815 53.602 45.3649 53.5655ZM38.4407 48.3896C35.6855 47.3326 33.1115 45.9475 30.7189 44.2344L30.9364 44.3073C32.1327 44.9269 33.4016 45.4737 34.6704 45.9111C36.6643 46.6401 39.6007 47.5148 42.2472 47.5148C44.4586 47.5148 46.1624 46.8952 47.3225 45.6924C48.5914 44.3437 49.1714 42.2296 49.0264 39.423L50.4765 37.6005L50.2952 30.9667C52.3254 34.1013 53.6305 37.236 53.993 40.0791C54.1743 41.3913 54.138 42.7035 53.8842 44.0157C53.6305 45.1821 53.0867 46.2756 52.3254 47.1503C50.839 48.8999 48.4826 49.8112 45.5462 49.8112C43.1172 49.7747 40.6883 49.2644 38.4407 48.3896ZM38.8394 22.2552L37.6794 20.943V16.7148L43.7335 22.2916L38.8394 22.2552ZM22.3083 9.31551L20.2419 11.2473C16.9429 11.2109 16.1453 10.7006 12.1938 12.8147C14.8765 7.05563 22.3083 9.31551 22.3083 9.31551Z" fill="white"/>
<path d="M13.0276 23.3851H20.9306V13.0333C20.9306 11.0286 23.1783 11.2109 23.1783 11.2109H33.8365C33.8365 11.2109 35.9029 11.138 35.9392 13.0333V23.3851H46.3074C48.6638 23.458 48.6276 26.1917 48.6276 26.1917V36.2518C48.6276 36.2518 48.7726 38.6575 46.3074 38.7304H35.9392V45.2185C19.0455 38.2566 13.0276 23.3851 13.0276 23.3851Z" fill="#07CCEC"/>
<path d="M67.9139 15.0379C69.0014 15.0379 70.089 15.2566 71.1041 15.6576C72.0829 16.0585 72.9892 16.6053 73.823 17.2978C74.5843 16.5324 75.5269 15.9492 76.5057 15.5847C77.4845 15.2202 78.5359 15.0015 79.5872 15.0015C80.7835 15.0015 81.9436 15.2566 83.0312 15.7305C84.0825 16.2043 85.0251 16.8604 85.8226 17.6623C86.6202 18.4642 87.2727 19.4483 87.7078 20.4689C88.179 21.526 88.4328 22.6924 88.4328 23.8588V39.9695C88.4328 40.7714 88.1065 41.5369 87.5265 42.0836C86.9827 42.6304 86.2214 42.9584 85.4601 42.9584C84.6625 42.9584 83.9012 42.6668 83.3575 42.0836C82.7774 41.5369 82.4874 40.7714 82.4874 39.9695V24.2232C82.4874 23.4578 82.1974 22.6924 81.6536 22.1456C81.1098 21.5989 80.3485 21.2708 79.5509 21.3073C78.7896 21.3073 78.0646 21.5989 77.5208 22.1456C76.977 22.6924 76.6507 23.4578 76.687 24.2232V27.7953C76.687 28.5972 76.397 29.3262 75.8532 29.9094C75.3094 30.4926 74.5843 30.7842 73.7868 30.7842C72.9892 30.8207 72.2279 30.4926 71.6841 29.9094C71.1403 29.3627 70.8141 28.5972 70.8503 27.7953V24.2232C70.8503 23.4214 70.524 22.6924 69.944 22.1456C69.4002 21.5989 68.6389 21.2708 67.8776 21.3073C67.1163 21.3073 66.355 21.5989 65.8112 22.1456C65.2312 22.6924 64.9049 23.4214 64.9049 24.2232V40.006C64.9049 40.7714 64.6149 41.5369 64.0711 42.1201C63.5273 42.7033 62.766 43.0313 61.9684 42.9949C61.2071 42.9949 60.4458 42.7033 59.9383 42.1201C59.3945 41.5733 59.1045 40.8079 59.1045 40.006V23.9317C59.177 22.7288 59.467 21.526 59.9383 20.4325C60.3733 19.3754 60.9896 18.4277 61.7872 17.6258C62.5485 16.824 63.4548 16.2043 64.4699 15.7305C65.5937 15.2566 66.7538 15.0379 67.9139 15.0379ZM101.629 21.8176C103.006 21.8176 104.384 22.1092 105.617 22.6924C106.885 23.2756 108.009 24.041 108.988 25.0251C109.967 26.0093 110.728 27.1392 111.308 28.3785C111.888 29.6178 112.178 31.0029 112.178 32.388C112.214 33.0805 111.888 33.7731 111.344 34.174C110.728 34.6114 110.003 34.8301 109.242 34.7937H97.6772C98.6198 36.4704 99.9611 37.2723 101.629 37.2723C102.028 37.2723 102.426 37.2358 102.789 37.1265C103.079 37.0536 103.369 36.9442 103.623 36.8349C103.876 36.7255 104.094 36.6162 104.348 36.5433C104.638 36.4339 104.891 36.3975 105.181 36.3975C105.762 36.3975 106.305 36.5797 106.777 36.9078C107.212 37.1994 107.574 37.6368 107.792 38.1106C108.009 38.5844 108.082 39.1312 108.009 39.6779C107.937 40.2611 107.647 40.8079 107.248 41.2088C106.487 41.8285 105.58 42.3023 104.638 42.5575C103.659 42.8126 102.608 42.9584 101.592 42.9584C100.215 43.0313 98.8373 42.7397 97.6047 42.193C96.3359 41.6462 95.212 40.8443 94.2332 39.8602C93.2544 38.876 92.4568 37.7097 91.913 36.4339C91.3693 35.1582 91.0792 33.7731 91.0792 32.3515C91.0792 30.9665 91.3693 29.6178 91.913 28.3785C92.4568 27.1028 93.2544 25.9728 94.197 24.9887C95.1758 24.0046 96.2996 23.2027 97.5322 22.6559C98.8373 22.1092 100.215 21.8176 101.629 21.8176ZM105.58 29.9459C105.181 29.144 104.601 28.4879 103.84 28.0505C103.151 27.686 102.39 27.5037 101.629 27.5037C100.831 27.5037 100.07 27.686 99.3811 28.0505C98.656 28.5243 98.0397 29.1804 97.6772 29.9459H105.58ZM131.863 15.1108C132.588 15.1108 133.313 15.4024 133.857 15.9127C134.437 16.4595 134.727 17.2249 134.691 17.9903V32.388C134.691 33.7731 134.401 35.1582 133.857 36.4704C133.313 37.7461 132.516 38.876 131.537 39.8237C130.558 40.7714 129.434 41.5733 128.166 42.1201C126.897 42.7033 125.555 42.9584 124.178 42.9584C122.8 42.9584 121.423 42.6668 120.19 42.1201C118.921 41.5733 117.797 40.8079 116.819 39.8602C115.84 38.876 115.042 37.7461 114.498 36.5068C113.918 35.2311 113.628 33.8095 113.628 32.388C113.628 31.0029 113.918 29.6178 114.462 28.3056C115.006 27.0299 115.803 25.8999 116.782 24.9522C117.761 24.0046 118.885 23.2027 120.154 22.6559C121.423 22.0727 122.8 21.7811 124.214 21.8176C125.882 21.8176 127.549 22.2185 129.036 22.984V17.9539C129.036 17.5894 129.108 17.1884 129.289 16.8604C129.434 16.5324 129.652 16.2043 129.906 15.9492C130.159 15.694 130.486 15.4753 130.812 15.3295C131.102 15.2202 131.501 15.1108 131.863 15.1108ZM124.142 27.5037C123.489 27.5037 122.836 27.6495 122.256 27.9047C121.676 28.1598 121.133 28.5243 120.698 28.9617C120.263 29.3991 119.9 29.9459 119.646 30.5291C119.392 31.1123 119.247 31.7319 119.247 32.388C119.247 33.0441 119.392 33.7002 119.646 34.2834C119.9 34.8666 120.263 35.3769 120.698 35.8507C121.169 36.2881 121.676 36.6526 122.256 36.9078C122.836 37.1629 123.489 37.3087 124.142 37.3087C124.758 37.3087 125.41 37.1629 125.954 36.9078C126.534 36.6526 127.042 36.2881 127.513 35.8507C127.948 35.4133 128.311 34.8666 128.564 34.2834C128.818 33.7002 128.963 33.0441 128.963 32.388C128.963 31.7319 128.818 31.0394 128.564 30.4562C128.311 29.873 127.948 29.3627 127.513 28.8888C127.078 28.4514 126.534 28.0869 125.954 27.8682C125.41 27.6495 124.794 27.5037 124.142 27.5037ZM140.528 15.2566C141.253 15.2566 141.978 15.5482 142.449 16.095C142.957 16.6417 143.247 17.3707 143.247 18.0997C143.247 18.8287 142.957 19.5577 142.449 20.1044C141.942 20.6512 141.253 20.9792 140.528 20.9428C139.766 20.9428 139.041 20.6512 138.461 20.1409C137.918 19.5577 137.591 18.7922 137.664 17.9903C137.7 17.2613 137.99 16.5688 138.57 16.0585C139.078 15.5482 139.766 15.2566 140.528 15.2566ZM140.528 21.9634C141.253 21.9634 141.942 22.255 142.413 22.8017C142.92 23.3485 143.21 24.0775 143.247 24.8064V40.2976C143.283 41.0266 142.993 41.7191 142.522 42.2659C141.978 42.8126 141.289 43.1042 140.528 43.1407C139.839 43.1771 139.15 42.922 138.606 42.4481C138.063 41.9378 137.736 41.2453 137.664 40.4798V24.6242C137.7 23.8952 138.026 23.2391 138.57 22.7288C139.078 22.255 139.803 21.9634 140.528 21.9634ZM173.155 15.2566C173.88 15.2566 174.605 15.5482 175.076 16.095C175.584 16.6417 175.874 17.3707 175.874 18.0997C175.874 18.8287 175.584 19.5577 175.076 20.1044C174.569 20.6512 173.88 20.9792 173.155 20.9428C172.394 20.9428 171.669 20.6512 171.089 20.1409C170.545 19.5577 170.219 18.7922 170.291 17.9903C170.327 17.2613 170.617 16.5688 171.197 16.0585C171.705 15.5482 172.394 15.2566 173.155 15.2566ZM173.155 21.9634C173.88 21.9634 174.569 22.255 175.04 22.8017C175.548 23.3485 175.838 24.0775 175.874 24.8064V40.2976C175.91 41.0266 175.62 41.7191 175.149 42.2659C174.605 42.8126 173.916 43.1042 173.155 43.1407C172.466 43.1771 171.777 42.922 171.234 42.4481C170.69 41.9378 170.364 41.2453 170.291 40.4798V24.6242C170.327 23.8952 170.654 23.2391 171.197 22.7288C171.705 22.255 172.43 21.9634 173.155 21.9634Z" fill="white"/>
<path d="M162.787 22.2916C163.294 21.7449 163.983 21.4533 164.708 21.4897C165.469 21.4897 166.158 21.8178 166.702 22.3281C167.21 22.8384 167.5 23.5673 167.5 24.2963C167.5 25.0618 167.246 25.7543 166.702 26.3011L161.047 32.0237L166.702 37.7827C167.21 38.3295 167.536 39.022 167.536 39.7875C167.608 41.3184 166.412 42.5941 164.889 42.667C164.853 42.667 164.781 42.667 164.744 42.667C163.947 42.667 163.222 42.339 162.678 41.7558L157.023 36.1061L151.367 41.8287C150.823 42.3025 150.135 42.5941 149.41 42.6306C148.648 42.7035 147.887 42.4119 147.379 41.8287C146.872 41.3184 146.546 40.6258 146.546 39.8968C146.509 39.1314 146.763 38.4024 147.307 37.8556L153.107 32.0237L147.307 26.1917C146.763 25.6814 146.509 24.9889 146.582 24.2599C146.654 23.5309 146.944 22.8384 147.416 22.2916C147.923 21.7084 148.685 21.3804 149.446 21.4168C150.171 21.4897 150.86 21.7813 151.403 22.2916L157.023 28.0142L162.787 22.2916Z" fill="#07CCEC"/>
</g>
</g>
<defs>
<clipPath id="clip0_162_414">
<rect width="178" height="55" fill="white"/>
</clipPath>
</defs>
</svg>
