<svg width="73" height="72" viewBox="0 0 73 72" fill="none" xmlns="http://www.w3.org/2000/svg">
<path d="M24.6746 27.4769L19.8936 32.2292C19.0097 33.1107 18.417 34.259 18.417 35.5393V37.6711C18.417 38.5001 19.0927 39.1702 19.9252 39.1702H27.222C28.0546 39.1702 28.7302 38.5376 28.7302 37.758C28.7302 36.9755 28.0546 36.3428 27.2205 36.3428H23.2554C22.4229 36.3428 21.7472 36.1629 21.7472 35.9426C21.7472 35.7192 21.7472 35.5408 21.7472 35.5408C21.7472 35.0611 21.9342 34.6068 22.257 34.313L27.038 29.5622C27.9233 28.6807 28.4874 27.5324 28.4874 26.2521V23.9554C28.4874 21.6347 26.2854 19.7383 23.5721 19.7383C20.8603 19.7383 18.6583 21.6332 18.6583 23.9554V24.8894C18.6583 25.4066 19.3325 25.8248 20.1666 25.8248H20.4803C21.3128 25.8248 21.9885 25.4066 21.9885 24.8894C21.9885 24.3737 21.9885 23.9554 21.9885 23.9554C21.9885 23.2088 22.7139 22.5672 23.5721 22.5672C24.459 22.5672 25.1573 23.2088 25.1573 23.9554V26.2521C25.1573 26.7303 24.9702 27.1576 24.6746 27.4769Z" fill="white"/>
<path d="M40.9242 19.9497H40.612C39.778 19.9497 38.7554 20.5254 38.3256 21.236L32.1961 31.3987C31.7693 32.1093 31.4209 33.3191 31.4209 34.1001C31.4209 34.8797 32.0951 35.5138 32.9291 35.5138H37.5911C38.4266 35.5138 39.0993 36.1839 39.0993 37.013V37.6711C39.0993 38.5001 39.7735 39.1702 40.6075 39.1702H40.9227C41.7568 39.1702 42.431 38.5016 42.431 37.6711V37.013C42.431 36.1839 42.6693 35.5138 42.9649 35.5138C43.2635 35.5138 43.5018 34.8812 43.5018 34.1001C43.5018 33.3176 43.2635 32.6834 42.9664 32.6834C42.6723 32.6834 42.431 32.0133 42.431 31.1843V21.4488C42.4325 20.6198 41.7598 19.9497 40.9242 19.9497ZM39.1008 31.1843C39.1008 32.0133 38.4281 32.6834 37.5926 32.6819H36.5549C35.7224 32.6819 35.3921 32.1048 35.8159 31.3927L38.3331 27.1651C38.7569 26.4545 39.1023 26.5459 39.1023 27.375L39.1008 31.1843Z" fill="white"/>
<path d="M47.3945 17.3532C46.8199 17.3532 46.3554 18.0233 46.3554 18.8523V28.7991C46.3554 29.6282 46.8214 30.2983 47.3945 30.2968C47.9691 30.2968 48.4352 29.6267 48.4352 28.7976V23.699C48.4352 23.2133 48.9058 22.8355 49.4683 22.8355C50.0279 22.8355 50.5 23.2133 50.5 23.699V28.7976C50.5 29.6267 50.966 30.2968 51.5391 30.2968C52.1107 30.2968 52.5768 29.6267 52.5768 28.7976V23.699C52.5768 22.2973 51.1847 21.164 49.4668 21.164C49.2813 21.164 49.1048 21.1865 48.9359 21.224C48.6478 21.2899 48.4337 20.7277 48.4337 19.8987V18.8523C48.4352 18.0233 47.9676 17.3532 47.3945 17.3532Z" fill="white"/>
<path d="M71.5849 38.3997L68.6032 37.4747C68.8973 34.6308 68.8445 31.757 68.4086 28.8981C65.5882 10.3716 48.132 -2.41906 29.4904 0.385845C10.8548 3.19074 -2.01338 20.5449 0.808505 39.0713C1.13127 41.1821 1.64406 43.2224 2.32578 45.1713C2.87628 46.7349 4.11453 47.7918 4.94104 47.5954C5.76604 47.399 5.84296 46.0288 5.28039 44.4712C4.60621 42.6063 4.10397 40.6499 3.79328 38.6185C1.21874 21.7307 12.9512 5.90869 29.9444 3.35265C46.9375 0.795111 62.8523 12.457 65.4268 29.3478C65.7903 31.751 65.8748 34.1691 65.6742 36.5662C65.6742 36.5662 64.4284 36.1794 62.89 35.7027C61.3501 35.226 60.4044 36.1509 60.7694 37.764L62.7437 46.498C63.1087 48.1111 64.3997 48.5129 65.6214 47.3915L72.2455 41.3245C73.4702 40.2016 73.1716 38.8929 71.5849 38.3997Z" fill="white"/>
<path d="M70.2094 62.3605C70.2909 61.9317 70.2501 61.4775 70.0556 61.0397C68.7495 58.1074 64.6139 51.0165 54.4741 48.5459C49.8258 47.4095 42.8834 46.0558 36.2125 46.0558L35.5293 46.0603C25.6158 46.2072 16.7323 48.2071 16.4503 48.2745C16.1396 48.324 8.79455 49.5773 3.89433 54.7988L3.91243 54.8168C3.06481 55.5199 2.28053 56.7972 1.93062 57.4223L1.90046 57.4028C1.25041 58.4717 0.763259 59.5211 0.410334 60.611C0.268561 61.0502 0.274594 61.4955 0.389219 61.9108C0.178068 62.272 0.0453441 62.6858 0.0423277 63.1296L9.74371e-05 68.432C-0.0119684 69.8008 1.09808 70.9266 2.48113 70.9416L18.963 71.0765H18.9766C20.3475 71.0765 21.4697 69.9702 21.4817 68.6089L21.524 63.305C21.527 62.8897 21.4169 62.5029 21.2374 62.1551C21.3173 62.0412 21.4123 61.9302 21.4742 61.8133C21.7034 61.3771 22.8044 59.9274 27.3186 59.6515C28.7664 59.5616 30.5024 59.5181 32.4782 59.5181C38.1778 59.5181 44.0825 59.8929 44.1413 59.8974L44.3253 59.8989C44.9391 59.8989 48.0144 60.0068 48.2105 62.1371C48.2331 62.3815 48.2964 62.6079 48.3749 62.8267C48.0913 63.245 47.9269 63.7487 47.9435 64.2914L48.12 69.6029C48.1697 70.9461 49.2707 72 50.6221 72L68.3362 71.4213C69.7117 71.3704 70.7946 70.219 70.7494 68.8548L70.5729 63.5493C70.5578 63.1101 70.4221 62.7098 70.2094 62.3605ZM18.4668 68.0737L3.01956 67.9478L3.05274 63.6663L18.5 63.7922L18.4668 68.0737ZM44.3494 56.9036C44.3449 56.9036 44.3389 56.9036 44.3343 56.9036C44.2755 56.9006 38.2773 56.5183 32.4767 56.5183C30.4391 56.5183 28.6398 56.5648 27.1315 56.6577C21.7049 56.9921 19.6055 58.89 18.7986 60.4266C18.7745 60.4716 18.7066 60.5345 18.7745 60.5345L3.66508 60.521C3.88981 60.0023 4.16129 59.4866 4.47952 58.9589C4.68916 58.6636 5.74643 57.2664 6.04053 56.9096L6.10388 56.8436C10.2877 52.3837 16.8801 51.2428 17.0355 51.2129C17.1245 51.1919 25.9777 49.198 35.5746 49.0571L36.2141 49.0526C42.5848 49.0526 49.2692 50.3598 53.7577 51.4572C61.4602 53.3356 65.1659 58.2199 66.7375 61.1147L51.1621 61.458C50.6055 58.1089 47.1909 56.9036 44.3494 56.9036ZM51.1168 68.9837L50.9735 64.7022L67.5746 64.1625L67.7178 68.441L51.1168 68.9837Z" fill="white"/>
</svg>
