<svg width="120" height="109" viewBox="0 0 120 109" fill="none" xmlns="http://www.w3.org/2000/svg">
<g clip-path="url(#clip0_650_66)">
<path d="M0.300003 85.9998C0.300003 85.5998 0.300003 85.1998 0.400003 84.9998C0.400003 84.7998 0.600003 84.5998 0.900003 84.4998C1.2 84.3998 1.6 84.2998 2.1 84.2998C2.6 84.2998 3.40001 84.2998 4.40001 84.2998V108.3C4.40001 108.5 4.4 108.6 4.3 108.7C4.3 108.8 4.1 108.9 3.9 108.9C3.7 108.9 3.3 109 2.7 109C2.1 109 1.4 109 0.400003 109V85.9998H0.300003Z" fill="#0D2A3E"/>
<path d="M12 99.5002C11.8 99.0002 11.6 98.4002 11.4 97.8002C11.2 97.2002 11 96.5002 10.8 95.8002C10.6 95.1002 10.5 94.4002 10.3 93.7002C10.1 93.0002 10 92.4002 9.90001 91.7002C10 93.1002 10.2 94.5002 10.3 95.9002C10.4 97.3002 10.4 98.6002 10.4 99.7002V108.2C10.4 108.4 10.4 108.5 10.3 108.6C10.3 108.7 10.1 108.8 9.90001 108.8C9.70001 108.8 9.30001 108.9 8.70001 108.9C8.20001 108.9 7.40001 108.9 6.40001 108.9V84.9002C6.40001 84.4002 6.60001 84.2002 7.10001 84.2002H10.2L13.9 93.5002C14.1 94.0002 14.3 94.6002 14.5 95.2002C14.7 95.8002 14.9 96.4002 15 97.1002C15.2 97.7002 15.3 98.4002 15.5 99.0002C15.7 99.6002 15.8 100.2 15.9 100.8C15.7 99.3002 15.6 98.0002 15.6 96.8002C15.5 95.6002 15.5 94.4002 15.5 93.2002V85.0002C15.5 84.8002 15.5 84.7002 15.6 84.6002C15.6 84.5002 15.8 84.4002 16 84.4002C16.2 84.4002 16.6 84.3002 17.2 84.3002C17.7 84.3002 18.5 84.3002 19.5 84.3002V108.3C19.5 108.8 19.3 109 18.8 109H15.7L12 99.5002Z" fill="#0D2A3E"/>
<path d="M21.6 108.9V84.9002C21.6 84.8002 21.6 84.6002 21.7 84.5002C21.7 84.4002 21.8 84.3002 21.9 84.3002C22 84.2002 22.1 84.2002 22.3 84.2002H30.8C30.8 85.0002 30.8 85.6002 30.8 86.1002C30.8 86.5002 30.8 86.9002 30.7 87.1002C30.7 87.3002 30.6 87.5002 30.5 87.5002C30.4 87.5002 30.3 87.6002 30.1 87.6002H25.6V93.8002H29.9C29.9 94.6002 29.9 95.2002 29.9 95.6002C29.9 96.1002 29.9 96.4002 29.8 96.7002C29.8 97.0002 29.7 97.2002 29.6 97.2002C29.5 97.3002 29.4 97.3002 29.2 97.3002H25.6V108.2C25.6 108.3 25.6 108.5 25.5 108.6C25.5 108.7 25.4 108.8 25.3 108.8C25.2 108.9 25.1 108.9 24.9 108.9H21.6Z" fill="#0D2A3E"/>
<path d="M32 85.9998C32 85.5998 32 85.1998 32.1 84.9998C32.1 84.7998 32.3 84.5998 32.6 84.4998C32.9 84.3998 33.3 84.2998 33.8 84.2998C34.3 84.2998 35.1 84.2998 36.1 84.2998V108.3C36.1 108.5 36.1 108.6 36 108.7C36 108.8 35.8 108.9 35.6 108.9C35.4 108.9 35 109 34.4 109C33.8 109 33.1 109 32.1 109V85.9998H32Z" fill="#0D2A3E"/>
<path d="M38.1 100.7C38.1 99.4998 38.1 98.6998 38.2 98.0998C38.3 97.5998 38.5 97.2998 38.8 97.2998H45.3C45.3 98.4998 45.3 99.2998 45.2 99.8998C45.1 100.4 44.9 100.7 44.6 100.7H38.1Z" fill="#0D2A3E"/>
<path d="M54.8 97.5002H51.4V108.2C51.4 108.4 51.4 108.5 51.3 108.6C51.3 108.7 51.1 108.8 50.9 108.8C50.7 108.8 50.3 108.9 49.7 108.9C49.2 108.9 48.4 108.9 47.4 108.9V84.9002C47.4 84.7002 47.4 84.6002 47.5 84.5002C47.5 84.4002 47.7 84.3002 47.9 84.3002C48.1 84.3002 48.5 84.2002 49.1 84.2002C49.6 84.2002 50.4 84.2002 51.4 84.2002V93.9002H54.8V84.9002C54.8 84.7002 54.8 84.6002 54.9 84.5002C54.9 84.4002 55.1 84.3002 55.3 84.3002C55.5 84.3002 55.9 84.2002 56.5 84.2002C57 84.2002 57.8 84.2002 58.8 84.2002V108.2C58.8 108.4 58.8 108.5 58.7 108.6C58.7 108.7 58.5 108.8 58.3 108.8C58.1 108.8 57.7 108.9 57.1 108.9C56.6 108.9 55.8 108.9 54.8 108.9V97.5002Z" fill="#0D2A3E"/>
<path d="M69.8 105.4C69.8 106.2 69.8 106.9 69.8 107.3C69.8 107.8 69.8 108.1 69.7 108.4C69.7 108.6 69.6 108.8 69.5 108.8C69.4 108.9 69.3 108.9 69.1 108.9H60.9V84.9002C60.9 84.8002 60.9 84.6002 61 84.5002C61 84.4002 61.1 84.3002 61.2 84.3002C61.3 84.2002 61.4 84.2002 61.6 84.2002H70C70 85.0002 70 85.6002 70 86.1002C70 86.6002 70 86.9002 69.9 87.2002C69.9 87.4002 69.8 87.6002 69.7 87.7002C69.6 87.8002 69.5 87.8002 69.3 87.8002H64.8V93.8002H69.1C69.1 94.6002 69.1 95.2002 69.1 95.6002C69.1 96.1002 69.1 96.4002 69 96.7002C69 97.0002 68.9 97.2002 68.8 97.2002C68.7 97.3002 68.6 97.3002 68.4 97.3002H64.8V105.3H69.8V105.4Z" fill="#0D2A3E"/>
<path d="M80.5 103.3H75.8L74.8 108.2C74.8 108.3 74.7 108.4 74.7 108.5C74.7 108.6 74.6 108.7 74.5 108.7C74.4 108.8 74.2 108.8 74 108.8C73.8 108.8 73.5 108.9 73.1 108.9C72.8 108.9 72.5 108.9 72 108.9C71.5 108.9 71.1 108.8 70.6 108.8L76.5 84.9002C76.6 84.4002 77.1 84.2002 78.1 84.2002C78.4 84.2002 78.8 84.2002 79.1 84.2002C79.4 84.2002 79.7 84.3002 80 84.3002L85.9 108.3C85.9 108.5 85.9 108.7 85.7 108.8C85.5 108.9 85 109 84.2 109C83.9 109 83.6 109 83.2 109C82.8 109 82.4 109 81.9 108.9L80.5 103.3ZM76.5 99.8002H79.7L79 96.5002C78.8 95.6002 78.6 94.5002 78.5 93.3002C78.3 92.1002 78.2 91.0002 78.1 89.8002C78 90.9002 77.8 92.1002 77.7 93.3002C77.5 94.5002 77.4 95.6002 77.2 96.5002L76.5 99.8002Z" fill="#0D2A3E"/>
<path d="M90.8 105.2H95.8V108.2C95.8 108.5 95.7 108.7 95.6 108.8C95.5 108.9 95.3 108.9 95.1 108.9H86.9V85.2002C86.9 85.0002 86.9 84.8002 87 84.6002C87 84.5002 87.2 84.4002 87.4 84.3002C87.6 84.2002 88 84.2002 88.6 84.2002C89.1 84.2002 89.9 84.2002 90.9 84.2002V105.2H90.8Z" fill="#0D2A3E"/>
<path d="M102.3 87.9002V108.2C102.3 108.4 102.3 108.5 102.2 108.6C102.2 108.7 102 108.8 101.8 108.8C101.6 108.8 101.2 108.9 100.6 108.9C100.1 108.9 99.3 108.9 98.3 108.9V87.9002H94V84.9002C94 84.4002 94.2 84.2002 94.7 84.2002H106.7V87.2002C106.7 87.5002 106.6 87.7002 106.5 87.8002C106.4 87.9002 106.2 87.9002 106 87.9002H102.3Z" fill="#0D2A3E"/>
<path d="M115.6 97.5002H112.2V108.2C112.2 108.4 112.2 108.5 112.1 108.6C112.1 108.7 111.9 108.8 111.7 108.8C111.5 108.8 111.1 108.9 110.5 108.9C110 108.9 109.2 108.9 108.2 108.9V84.9002C108.2 84.7002 108.2 84.6002 108.3 84.5002C108.3 84.4002 108.5 84.3002 108.7 84.3002C108.9 84.3002 109.3 84.2002 109.9 84.2002C110.4 84.2002 111.2 84.2002 112.2 84.2002V93.9002H115.6V84.9002C115.6 84.7002 115.6 84.6002 115.7 84.5002C115.7 84.4002 115.9 84.3002 116.1 84.3002C116.3 84.3002 116.7 84.2002 117.3 84.2002C117.8 84.2002 118.6 84.2002 119.6 84.2002V108.2C119.6 108.4 119.6 108.5 119.5 108.6C119.5 108.7 119.3 108.8 119.1 108.8C118.9 108.8 118.5 108.9 117.9 108.9C117.4 108.9 116.6 108.9 115.6 108.9V97.5002Z" fill="#0D2A3E"/>
<path d="M87.7 21.5H80.4C80.4 21.5 80.4 25.7 80.3 26.5H87.7C90.5 26.5 92.7 28.7 92.7 31.5V44C92.7 46.8 90.5 49 87.7 49H73.7C70.8 49 68.6 48.7 67 48.2C64.7 47.4 63.6 46.1 63 44.4C61.9 44.5 60.8 44.5 59.9 44.5C59.2 44.5 58.5 44.5 57.9 44.5C58.7 48.4 60.9 51.9 67 53.4C68.2 53.7 69.6 53.9 71.2 54V65.5C71.2 68.3 69 70.5 66.2 70.5H53.7C50.9 70.5 48.7 68.3 48.7 65.5V51.5C48.7 40.3 52.9 40.3 59.9 40.3C66.8 40.3 76.1 40.3 76.1 24V10C76.1 4.5 71.6 0 66.1 0H53.7C48.2 0 43.7 4.5 43.7 10V21.5H32.2C26.7 21.5 22.2 26 22.2 31.5V44C22.2 49.5 26.7 54 32.2 54H39.5V51.5C39.5 50.6 39.5 49.8 39.6 49H32.2C29.4 49 27.2 46.8 27.2 44V31.5C27.2 28.7 29.4 26.5 32.2 26.5H46.2C49.1 26.5 51.3 26.8 52.9 27.3C55.2 28.1 56.3 29.4 56.9 31.1C58 31 59 31 59.9 31C60.6 31 61.3 31 61.9 31C61.1 27.1 58.9 23.6 52.8 22.1C51.6 21.8 50.2 21.6 48.6 21.5V10C48.6 7.2 50.8 5 53.6 5H66.1C68.9 5 71.1 7.2 71.1 10V24C71.1 35.2 66.9 35.2 59.9 35.2C53 35.2 43.7 35.2 43.7 51.4V65.4C43.7 70.9 48.2 75.4 53.7 75.4H66.2C71.7 75.4 76.2 70.9 76.2 65.4V53.9H87.7C93.2 53.9 97.7 49.4 97.7 43.9V31.5C97.7 25.9 93.2 21.5 87.7 21.5Z" fill="#00A099"/>
</g>
<defs>
<clipPath id="clip0_650_66">
<rect width="120" height="109" fill="white"/>
</clipPath>
</defs>
</svg>
