<svg width="116" height="109" viewBox="0 0 116 109" fill="none" xmlns="http://www.w3.org/2000/svg">
<g clip-path="url(#clip0_650_29)">
<mask id="mask0_650_29" style="mask-type:luminance" maskUnits="userSpaceOnUse" x="19" y="0" width="81" height="86">
<path d="M99.4 42.7C99.4 66.3 80.3 85.4 56.7 85.4C40.9 85.4 27 76.8 19.7 64C26.3 73.2 37.1 79.2 49.3 79.2C69.4 79.2 85.8 62.9 85.8 42.7C85.8 22.5 69.4 6.2 49.3 6.2C37.1 6.2 26.3 12.2 19.7 21.4C27.1 8.6 40.9 0 56.7 0C80.3 0 99.4 19.1 99.4 42.7Z" fill="white"/>
</mask>
<g mask="url(#mask0_650_29)">
<path d="M99.5 0H19.7V85.4H99.5V0Z" fill="url(#paint0_linear_650_29)"/>
</g>
<mask id="mask1_650_29" style="mask-type:luminance" maskUnits="userSpaceOnUse" x="31" y="1" width="68" height="84">
<path d="M31 9.89961C34.4 7.99961 38 6.69961 41.9 5.89961C56.3 1.39961 72.4 5.59961 82.7 17.3996C95.3 31.8996 95.3 53.3996 82.7 67.8996C72.4 79.8996 56.3 84.0996 41.9 79.4996C38.1 78.6996 34.4 77.3996 31 75.4996C38.2 81.1996 47.2 84.3996 56.7 84.3996C79.7 84.3996 98.4 65.7996 98.4 42.6996C98.4 19.5996 79.7 1.09961 56.7 1.09961C47.2 1.09961 38.2 4.29961 31 9.89961Z" fill="white"/>
</mask>
<g mask="url(#mask1_650_29)">
<path d="M98.4 1.09961H31V84.3996H98.4V1.09961Z" fill="url(#paint1_linear_650_29)"/>
</g>
<mask id="mask2_650_29" style="mask-type:luminance" maskUnits="userSpaceOnUse" x="16" y="10" width="60" height="66">
<path d="M72.7 36.8V42.7V48.6H66.8H59.2V62.1H53.3H47.4V56.2V48.6H33.9V42.7V36.8H47.4V23.3H53.3H59.2V29.2V36.8H72.7V36.8ZM75.7 62.1C69.7 70.2 60.1 75.5 49.3 75.5C31.2 75.5 16.5 60.8 16.5 42.7C16.6 24.6 31.2 10 49.3 10C60.1 10 69.7 15.3 75.7 23.4C70.3 17.4 62.6 13.6 53.9 13.6C37.8 13.6 24.7 26.7 24.7 42.8C24.7 58.9 37.8 72 53.9 72C62.5 71.9 70.3 68.1 75.7 62.1Z" fill="white"/>
</mask>
<g mask="url(#mask2_650_29)">
<path d="M75.7 10H16.6V75.5H75.7V10Z" fill="url(#paint2_linear_650_29)"/>
</g>
<mask id="mask3_650_29" style="mask-type:luminance" maskUnits="userSpaceOnUse" x="17" y="10" width="55" height="65">
<path d="M72 37.5002H58.5V24.0002H48.1V37.5002H34.6V47.8002H48.1V61.3002H58.4V47.9002H72V37.5002ZM65.7 70.2002C62 71.8002 58 72.6002 53.8 72.6002C37.3 72.6002 23.9 59.2002 23.9 42.7002C23.9 26.2002 37.3 12.8002 53.8 12.8002C57.9 12.8002 62 13.6002 65.7 15.2002C60.8 12.3002 55.2 10.7002 49.3 10.7002C31.6 10.7002 17.3 25.0002 17.3 42.7002C17.3 60.4002 31.6 74.7002 49.3 74.7002C55.2 74.7002 60.8 73.1002 65.7 70.2002Z" fill="white"/>
</mask>
<g mask="url(#mask3_650_29)">
<path d="M72 10.7002H17.3V74.7002H72V10.7002Z" fill="url(#paint3_linear_650_29)"/>
</g>
<path d="M115.9 106.6H109.6V104H115.7V102H109.6V99.3998H115.9V97.2998H107.4C107.4 101.1 107.4 104.9 107.4 108.6H115.9V106.6ZM100.9 99.3998C102.2 99.3998 102.8 100.3 102.8 101.2C102.8 102.1 102.2 103 100.9 103H97.7V99.3998H100.9ZM105.5 108.6L102.1 104.7C104.2 104.3 105 102.7 105 101.1C105 99.0998 103.6 97.3998 100.9 97.2998C99.1 97.2998 97.3 97.2998 95.5 97.2998V108.6H97.6V105H99.7L103 108.8H105.5V108.6ZM89.3 104.6H85.1L87.2 99.7998L89.3 104.6ZM91.2 108.7H93.5L88.4 97.3998H86.1L81 108.7H83.3L84.3 106.6H90.2L91.2 108.7ZM78.9 105.9C78.2 106.6 77 107 76.1 107C73.3 107 72.2 105 72.2 103.2C72.2 101.3 73.4 99.2998 76.1 99.2998C77.1 99.2998 78.1 99.5998 78.8 100.4L80.2 98.9998C79 97.8998 77.6 97.2998 76 97.2998C71.9 97.2998 70 100.3 70 103.3C70 106.2 71.8 109.1 76 109.1C77.6 109.1 79.1 108.6 80.3 107.4L78.9 105.9ZM67.3 108.7V97.4998H65.2V102.3H59.6V97.4998H57.5V108.8H59.6V104.2H65.2V108.8H67.3V108.7ZM49.4 108.7H51.5V99.2998H55.1V97.3998C51.8 97.3998 49.1 97.3998 45.8 97.3998V99.2998H49.4V108.7ZM37.6 97.3998V108.7H45.5V106.7H39.7V97.2998H37.6V97.3998ZM31.3 104.6H27.1L29.2 99.7998L31.3 104.6ZM33.1 108.7H35.4L30.3 97.3998H28L23 108.7H25.3L26.3 106.6H32.2L33.1 108.7ZM21.4 106.6H15V104H21.1V102H15V99.3998H21.3V97.2998H12.8C12.8 101.1 12.8 104.9 12.8 108.6H21.3V106.6H21.4ZM9.9 108.7V97.4998H7.8V102.3H2.2V97.4998H0.1V108.8H2.2V104.2H7.8V108.8H9.9V108.7Z" fill="#191A1C"/>
</g>
<defs>
<linearGradient id="paint0_linear_650_29" x1="13.8498" y1="42.7154" x2="124.942" y2="42.7154" gradientUnits="userSpaceOnUse">
<stop stop-color="#021B8C"/>
<stop offset="0.1533" stop-color="#042B98"/>
<stop offset="0.4529" stop-color="#0955B6"/>
<stop offset="0.8659" stop-color="#1298E6"/>
<stop offset="1" stop-color="#15AFF7"/>
</linearGradient>
<linearGradient id="paint1_linear_650_29" x1="13.8498" y1="42.715" x2="124.942" y2="42.715" gradientUnits="userSpaceOnUse">
<stop stop-color="#021B8C"/>
<stop offset="0.3374" stop-color="#0A58B8"/>
<stop offset="0.6388" stop-color="#1087DA"/>
<stop offset="0.8687" stop-color="#14A4EF"/>
<stop offset="1" stop-color="#15AFF7"/>
</linearGradient>
<linearGradient id="paint2_linear_650_29" x1="7.7701" y1="42.7154" x2="99.4513" y2="42.7154" gradientUnits="userSpaceOnUse">
<stop stop-color="#045304"/>
<stop offset="0.1541" stop-color="#0D5D05"/>
<stop offset="0.4142" stop-color="#277708"/>
<stop offset="0.7464" stop-color="#4FA20C"/>
<stop offset="1" stop-color="#73C710"/>
</linearGradient>
<linearGradient id="paint3_linear_650_29" x1="1.1596" y1="42.7156" x2="88.5838" y2="42.7156" gradientUnits="userSpaceOnUse">
<stop stop-color="#045304"/>
<stop offset="0.1541" stop-color="#0D5D05"/>
<stop offset="0.4142" stop-color="#277708"/>
<stop offset="0.7464" stop-color="#4FA20C"/>
<stop offset="1" stop-color="#73C710"/>
</linearGradient>
<clipPath id="clip0_650_29">
<rect width="116" height="109" fill="white"/>
</clipPath>
</defs>
</svg>
