<svg width="103" height="109" viewBox="0 0 103 109" fill="none" xmlns="http://www.w3.org/2000/svg">
<g clip-path="url(#clip0_650_81)">
<path d="M11.1 104.5H9.49999V98.2H2.39999V104.5H0.799988V91H2.39999V96.7H9.49999V91H11.1V104.5Z" fill="#404041"/>
<path d="M18.8 104.6C17.3 104.6 16.1 104.1 15.3 103.2C14.4 102.3 14 101 14 99.3996C14 97.7996 14.4 96.4996 15.2 95.4996C16 94.4996 17.1 94.0996 18.4 94.0996C19.7 94.0996 20.7 94.4996 21.4 95.3996C22.1 96.1996 22.5 97.2996 22.5 98.6996V99.6996H15.5C15.5 100.9 15.8 101.8 16.4 102.4C17 103 17.8 103.3 18.8 103.3C19.9 103.3 21 103.1 22 102.6V104C21.5 104.2 20.9 104.4 20.5 104.5C20.1 104.6 19.5 104.6 18.8 104.6ZM18.4 95.3996C17.6 95.3996 16.9 95.6996 16.5 96.1996C16 96.6996 15.7 97.4996 15.6 98.3996H20.9C20.9 97.3996 20.7 96.6996 20.3 96.1996C19.8 95.6996 19.2 95.3996 18.4 95.3996Z" fill="#404041"/>
<path d="M31.4 104.5L31.1 103.1H31C30.5 103.7 30 104.2 29.5 104.4C29 104.6 28.4 104.7 27.6 104.7C26.6 104.7 25.8 104.4 25.2 103.9C24.6 103.4 24.3 102.6 24.3 101.7C24.3 99.7002 25.9 98.6002 29.2 98.5002L30.9 98.4002V97.8002C30.9 97.0002 30.7 96.4002 30.4 96.0002C30.1 95.6002 29.5 95.4002 28.8 95.4002C28 95.4002 27 95.7002 25.9 96.2002L25.4 95.0002C25.9 94.7002 26.4 94.5002 27 94.4002C27.6 94.2002 28.2 94.2002 28.8 94.2002C30 94.2002 30.9 94.5002 31.5 95.0002C32.1 95.5002 32.4 96.4002 32.4 97.6002V104.5H31.4ZM27.9 103.4C28.9 103.4 29.6 103.1 30.1 102.6C30.6 102.1 30.9 101.3 30.9 100.4V99.5002L29.4 99.6002C28.2 99.6002 27.3 99.8002 26.8 100.2C26.3 100.5 26 101.1 26 101.8C26 102.4 26.2 102.8 26.5 103.1C26.9 103.2 27.3 103.4 27.9 103.4Z" fill="#404041"/>
<path d="M37.2 104.5H35.7V90.0996H37.2V104.5Z" fill="#404041"/>
<path d="M43.7 103.4C44 103.4 44.2 103.4 44.5 103.3C44.8 103.3 45 103.2 45.1 103.2V104.4C44.9 104.5 44.7 104.5 44.4 104.6C44.1 104.7 43.8 104.7 43.5 104.7C41.5 104.7 40.6 103.7 40.6 101.6V95.5996H39.2V94.8996L40.6 94.2996L41.2 92.0996H42.1V94.3996H45V95.5996H42.1V101.6C42.1 102.2 42.2 102.7 42.5 103C42.8 103.2 43.2 103.4 43.7 103.4Z" fill="#404041"/>
<path d="M54.1 104.5V97.9996C54.1 97.1996 53.9 96.5996 53.5 96.1996C53.1 95.7996 52.5 95.5996 51.7 95.5996C50.6 95.5996 49.9 95.8996 49.4 96.4996C48.9 97.0996 48.7 97.9996 48.7 99.2996V104.6H47.2V90.0996H48.7V94.3996C48.7 94.8996 48.7 95.3996 48.6 95.6996H48.7C49 95.1996 49.4 94.7996 50 94.5996C50.6 94.2996 51.2 94.1996 51.9 94.1996C53.1 94.1996 54.1 94.4996 54.7 95.0996C55.3 95.6996 55.6 96.5996 55.6 97.8996V104.5H54.1Z" fill="#404041"/>
<path d="M57.1 94.2998H58.7L60.9 100.1C61.4 101.4 61.7 102.4 61.8 103H62C62.1 102.7 62.2 102.1 62.5 101.4C62.8 100.6 63.6 98.2998 65 94.3998H66.6L62.3 105.9C61.9 107 61.4 107.8 60.8 108.3C60.2 108.8 59.5 109 58.7 109C58.2 109 57.8 108.9 57.3 108.8V107.6C57.6 107.7 58 107.7 58.4 107.7C59.5 107.7 60.2 107.1 60.7 105.9L61.3 104.5L57.1 94.2998Z" fill="#404041"/>
<path d="M68.1 104.5V91H71.7V101.5H76.9V104.4H68.1V104.5Z" fill="#404041"/>
<path d="M78.8 91.3998C78.8 90.8998 79 90.4998 79.3 90.1998C79.6 89.8998 80.1 89.7998 80.8 89.7998C81.5 89.7998 82 89.8998 82.3 90.1998C82.6 90.4998 82.8 90.8998 82.8 91.3998C82.8 92.4998 82.2 92.9998 80.9 92.9998C79.4 92.9998 78.8 92.4998 78.8 91.3998ZM82.5 104.5H78.9V93.9998H82.5V104.5Z" fill="#404041"/>
<path d="M91.4 96.6994H89.2V104.399H85.6V96.6994H84.2V94.8994L85.7 93.9994V93.7994C85.7 92.3994 86 91.3994 86.5 90.7994C87.1 90.1994 88 89.8994 89.2 89.8994C89.7 89.8994 90.1 89.8994 90.6 89.9994C91 90.0994 91.5 90.1994 92.1 90.3994L91.3 92.6994C90.9 92.5994 90.4 92.4994 90 92.4994C89.7 92.4994 89.5 92.5994 89.4 92.7994C89.3 92.9994 89.2 93.1994 89.2 93.5994V93.9994H91.4V96.6994Z" fill="#404041"/>
<path d="M97.9 104.6C96.2 104.6 94.8 104.1 93.8 103.2C92.8 102.3 92.4 101 92.4 99.2002C92.4 97.4002 92.8 96.1002 93.7 95.1002C94.6 94.2002 95.9 93.7002 97.5 93.7002C99.1 93.7002 100.3 94.1002 101.1 94.9002C102 95.7002 102.4 96.9002 102.4 98.4002V100H96C96 100.6 96.2 101 96.6 101.4C97 101.7 97.6 101.9 98.2 101.9C98.8 101.9 99.4 101.8 99.9 101.7C100.4 101.6 101 101.4 101.6 101.1V103.7C101 104 100.4 104.2 99.8 104.3C99.4 104.6 98.7 104.6 97.9 104.6ZM97.7 96.3002C97.3 96.3002 96.9 96.4002 96.6 96.7002C96.3 97.0002 96.1 97.4002 96.1 98.0002H99.2C99.2 97.5002 99 97.1002 98.8 96.8002C98.5 96.4002 98.1 96.3002 97.7 96.3002Z" fill="#404041"/>
<path d="M51.9 12.7002C51.9 12.7002 47.1 27.0002 51.9 39.0002C56.7 51.0002 66.6 69.6002 62.5 80.1002C62.5 80.1002 75.6 66.6002 70.5 50.9002C65.4 35.1002 56.5 32.3002 51.9 12.7002Z" fill="#F7CB3B"/>
<path d="M79.6 20.7002C79.4 30.9002 74.2 35.5002 69.8 39.6002C71.4 42.4002 72.9 45.6002 74.2 49.5002C74.8 51.2002 75.1 52.9002 75.3 54.5002C78.6 51.2002 87.8 36.8002 79.6 20.7002Z" fill="#61C7F2"/>
<path d="M57.4 82.5996C57.4 82.5996 57.9 82.5996 58.9 78.5996C60.9 71.1996 55.7 57.4996 51.3 47.3996C51.1 46.8996 50.8 46.2996 50.6 45.7996C50.3 45.0996 50 44.4996 49.8 43.7996C49.3 42.5996 48.8 41.4996 48.4 40.2996C46.7 35.8996 46 31.2996 46 27.0996C33 49.9996 47 68.4996 52.3 74.0996C55.3 77.1996 57.5 80.9996 57.4 82.5996Z" fill="#F27234"/>
<path d="M32.6 44.4998C35.1405 44.4998 37.2 42.4403 37.2 39.8998C37.2 37.3593 35.1405 35.2998 32.6 35.2998C30.0595 35.2998 28 37.3593 28 39.8998C28 42.4403 30.0595 44.4998 32.6 44.4998Z" fill="#EE3E32"/>
<path d="M67.6 32.0998C70.3062 32.0998 72.5 29.906 72.5 27.1998C72.5 24.4936 70.3062 22.2998 67.6 22.2998C64.8938 22.2998 62.7 24.4936 62.7 27.1998C62.7 29.906 64.8938 32.0998 67.6 32.0998Z" fill="#5BB949"/>
<path d="M37.9 55.6004C25 48.8004 22.4 39.9004 22.4 39.9004C22.5 42.7004 22.8 45.4004 23.3 47.8004C25.1 54.8004 30.2 64.9004 44.5 70.5004C42.1 66.8004 39.4 61.7004 37.9 55.6004Z" fill="#D98DBC"/>
<path d="M53.6 82.6C53.4 81.7 52 79.3 49.6 76.8C49.1 76.3 48.4 75.5 47.6 74.5C28.4 72.9 13.4 56.9 13.4 37.3C13.4 22.7 21.8 10.1 34 4C19.6 10.7 9.60001 25.3 9.60001 42.2C9.60001 65.5 28.5 84.4 51.8 84.4C52.4 84.4 53 84.4 53.6 84.4C53.5 84.3 53.9 84.3 53.6 82.6Z" fill="#804F9F"/>
<path d="M53 0C72.5 1.3 87.9 17.5 87.9 37.3C87.9 48.7 82.8 58.9 74.7 65.7C72.7 73.6 68 79.6 66.1 81.8C82.3 75.9 93.8 60.4 93.8 42.2C93.8 19.3 75.7 0.7 53 0Z" fill="#456EB5"/>
</g>
<defs>
<clipPath id="clip0_650_81">
<rect width="103" height="109" fill="white"/>
</clipPath>
</defs>
</svg>
