<svg width="137" height="109" viewBox="0 0 137 109" fill="none" xmlns="http://www.w3.org/2000/svg">
<g clip-path="url(#clip0_650_51)">
<path d="M0.100006 108.7V90.5996H2.50001V97.9996H11.9V90.5996H14.3V108.7H11.9V100.2H2.50001V108.7H0.100006Z" fill="#1B75BB"/>
<path d="M27.6 104.5L29.9 104.8C29.5 106.1 28.9 107.2 27.9 107.9C26.9 108.6 25.7 109 24.1 109C22.2 109 20.7 108.4 19.5 107.2C18.4 106 17.8 104.4 17.8 102.2C17.8 99.9998 18.4 98.2998 19.5 97.0998C20.6 95.8998 22.1 95.2998 23.9 95.2998C25.7 95.2998 27.1 95.8998 28.2 97.0998C29.3 98.2998 29.9 99.9998 29.9 102.1C29.9 102.2 29.9 102.4 29.9 102.7H20.1C20.2 104.1 20.6 105.2 21.3 106C22 106.8 22.9 107.1 24 107.1C24.8 107.1 25.5 106.9 26.1 106.5C26.8 106.1 27.3 105.4 27.6 104.5ZM20.3 100.9H27.6C27.5 99.7998 27.2 98.9998 26.8 98.3998C26.1 97.4998 25.2 97.0998 24 97.0998C23 97.0998 22.1 97.3998 21.4 98.0998C20.8 98.7998 20.4 99.6998 20.3 100.9Z" fill="#1B75BB"/>
<path d="M41.9 107.099C41.1 107.799 40.3 108.299 39.5 108.599C38.7 108.899 37.9 108.999 37 108.999C35.6 108.999 34.5 108.599 33.7 107.899C32.9 107.199 32.5 106.299 32.5 105.199C32.5 104.599 32.6 103.999 32.9 103.399C33.2 102.899 33.6 102.399 34 102.099C34.5 101.799 35 101.499 35.6 101.399C36 101.299 36.7 101.199 37.6 101.099C39.4 100.899 40.7 100.599 41.6 100.299C41.6 99.9992 41.6 99.7992 41.6 99.6992C41.6 98.7992 41.4 98.1992 41 97.7992C40.4 97.2992 39.6 96.9992 38.5 96.9992C37.5 96.9992 36.7 97.1992 36.2 97.5992C35.7 97.9992 35.3 98.5992 35.1 99.4992L33 99.2992C33.2 98.3992 33.5 97.5992 34 96.9992C34.5 96.3992 35.1 95.9992 36 95.6992C36.9 95.3992 37.8 95.1992 39 95.1992C40.1 95.1992 41 95.2992 41.7 95.5992C42.4 95.8992 42.9 96.1992 43.2 96.5992C43.5 96.9992 43.8 97.4992 43.9 98.0992C44 98.4992 44 99.1992 44 100.199V103.199C44 105.299 44 106.599 44.1 107.099C44.2 107.599 44.4 108.199 44.7 108.699H42.4C42.1 108.199 42 107.699 41.9 107.099ZM41.7 102.099C40.9 102.399 39.7 102.699 38.1 102.899C37.2 102.999 36.5 103.199 36.2 103.299C35.8 103.499 35.5 103.699 35.3 103.999C35.1 104.299 35 104.699 35 105.099C35 105.699 35.2 106.199 35.7 106.599C36.1 106.999 36.8 107.199 37.7 107.199C38.6 107.199 39.3 106.999 40 106.599C40.7 106.199 41.2 105.699 41.5 105.099C41.7 104.599 41.9 103.899 41.9 102.899V102.099H41.7Z" fill="#1B75BB"/>
<path d="M48 108.7V90.5996H50.2V108.7H48Z" fill="#1B75BB"/>
<path d="M59.1 106.699L59.4 108.699C58.8 108.799 58.2 108.899 57.7 108.899C56.9 108.899 56.3 108.799 55.8 108.499C55.4 108.199 55 107.899 54.9 107.499C54.7 107.099 54.6 106.199 54.6 104.899V97.3992H53V95.6992H54.6V92.4992L56.8 91.1992V95.7992H59V97.4992H56.8V105.199C56.8 105.799 56.8 106.199 56.9 106.399C57 106.599 57.1 106.699 57.3 106.799C57.5 106.899 57.7 106.999 58.1 106.999C58.4 106.799 58.7 106.799 59.1 106.699Z" fill="#1B75BB"/>
<path d="M62 108.7V90.5996H64.2V97.0996C65.2 95.8996 66.5 95.2996 68.1 95.2996C69.1 95.2996 69.9 95.4996 70.6 95.8996C71.3 96.2996 71.8 96.7996 72.1 97.4996C72.4 98.1996 72.6 99.1996 72.6 100.4V108.7H70.4V100.4C70.4 99.2996 70.2 98.4996 69.7 97.9996C69.2 97.4996 68.5 97.1996 67.7 97.1996C67 97.1996 66.4 97.3996 65.8 97.6996C65.2 97.9996 64.8 98.4996 64.6 99.0996C64.4 99.6996 64.2 100.5 64.2 101.5V108.7H62Z" fill="#1B75BB"/>
<path d="M84.5 108.7V90.5996H90.4C92.6 90.5996 94.1 90.6996 94.8 90.8996C95.8 91.1996 96.7 91.7996 97.4 92.6996C98.1 93.5996 98.4 94.7996 98.4 96.1996C98.4 97.2996 98.2 98.1996 97.8 98.9996C97.4 99.7996 96.9 100.4 96.3 100.8C95.7 101.2 95 101.5 94.4 101.7C93.5 101.9 92.3 102 90.6 102H88.2V108.8H84.5V108.7ZM88.2 93.6996V98.7996H90.2C91.6 98.7996 92.6 98.6996 93.1 98.4996C93.6 98.2996 94 97.9996 94.2 97.5996C94.5 97.1996 94.6 96.6996 94.6 96.1996C94.6 95.4996 94.4 94.9996 94 94.5996C93.6 94.1996 93.1 93.8996 92.5 93.7996C92.1 93.6996 91.2 93.6996 89.9 93.6996H88.2Z" fill="#74B13C"/>
<path d="M102 108.7V90.5996H105.5V108.7H102Z" fill="#74B13C"/>
<path d="M118.3 108.7V106.7C117.8 107.4 117.2 108 116.4 108.4C115.6 108.8 114.8 109 113.9 109C113 109 112.2 108.8 111.5 108.4C110.8 108 110.3 107.5 110 106.8C109.7 106.1 109.5 105.1 109.5 103.9V95.5996H113V101.6C113 103.4 113.1 104.6 113.2 105C113.3 105.4 113.6 105.7 113.9 106C114.2 106.2 114.7 106.4 115.2 106.4C115.8 106.4 116.3 106.2 116.8 105.9C117.3 105.6 117.6 105.2 117.8 104.7C118 104.2 118.1 103 118.1 101.2V95.6996H121.6V108.8H118.3V108.7Z" fill="#74B13C"/>
<path d="M124.5 105L128 104.5C128.1 105.2 128.4 105.7 128.9 106C129.4 106.3 130 106.5 130.8 106.5C131.7 106.5 132.4 106.3 132.8 106C133.1 105.8 133.3 105.5 133.3 105.1C133.3 104.8 133.2 104.6 133.1 104.4C132.9 104.2 132.5 104.1 131.9 103.9C129.1 103.3 127.3 102.7 126.6 102.2C125.6 101.5 125 100.5 125 99.1996C125 98.0996 125.4 97.0996 126.3 96.2996C127.2 95.4996 128.6 95.0996 130.5 95.0996C132.3 95.0996 133.6 95.3996 134.5 95.9996C135.4 96.5996 136 97.3996 136.3 98.5996L133 99.1996C132.9 98.6996 132.6 98.2996 132.2 97.9996C131.8 97.6996 131.2 97.5996 130.5 97.5996C129.6 97.5996 128.9 97.6996 128.5 97.9996C128.2 98.1996 128.1 98.3996 128.1 98.6996C128.1 98.8996 128.2 99.1996 128.4 99.2996C128.7 99.4996 129.8 99.8996 131.6 100.3C133.4 100.7 134.7 101.2 135.5 101.8C136.2 102.4 136.6 103.3 136.6 104.4C136.6 105.6 136.1 106.6 135.1 107.5C134.1 108.4 132.6 108.8 130.6 108.8C128.8 108.8 127.4 108.4 126.4 107.7C125.5 107.2 124.8 106.2 124.5 105Z" fill="#74B13C"/>
<path d="M93.7 4.1002H78.3C75.7 4.1002 73.3 0.200195 73.3 0.200195C77.4 11.5002 87.2 30.4002 79.8 47.7002C79.8 47.7002 83.8 46.5002 89.8 47.7002C92 48.1002 95.8 51.0002 92.1 56.3002C92.1 56.3002 86.2 65.3002 74.7 70.3002C74.7 70.3002 80.3 67.4002 86.4 58.2002C86.4 58.2002 90 51.1002 79.7 49.8002C79.7 49.8002 72.8 64.0002 51.3 74.8002C44.2 78.4002 46.8 77.2002 41.6 80.0002C41.6 80.0002 47.8 77.5002 51.6 77.0002C55.8 77.0002 88.8 77.0002 93.7 77.0002C99.9 77.0002 104.9 72.0002 104.9 65.8002V15.3002C104.9 9.1002 99.9 4.1002 93.7 4.1002Z" fill="url(#paint0_radial_650_51)"/>
<path d="M63.8 58.2C63.8 58.2 73.2 46 73.8 40.1C73.8 40.1 63.1 31.1 55.6 47.7C55.6 47.7 54.4 21.7 75 38C75 38 78.4 23.8 75 12C72.7 4.2 74.5 9.5 71.7 0C71.7 0 72.4 3.9 69.5 4.1H43.1C36.9 4.1 31.9 9.1 31.9 15.3V65.9C31.9 69.8 33.9 73.1 36.8 75.1C39.1 76.4 38.4 78.8 36.8 80.4C51.6 70.5 51.5 71.8 63.8 58.2ZM68.4 20.8C71.2 20.8 73.4 23 73.4 25.8C73.4 28.6 71.2 30.8 68.4 30.8C65.6 30.8 63.4 28.6 63.4 25.8C63.4 23 65.7 20.8 68.4 20.8Z" fill="url(#paint1_radial_650_51)"/>
</g>
<defs>
<radialGradient id="paint0_radial_650_51" cx="0" cy="0" r="1" gradientUnits="userSpaceOnUse" gradientTransform="translate(71.4859 -1.5309) scale(99.2184 99.2184)">
<stop stop-color="#B1D23E"/>
<stop offset="0.141" stop-color="#ABCF3E"/>
<stop offset="0.3289" stop-color="#9AC740"/>
<stop offset="0.543" stop-color="#7FB941"/>
<stop offset="0.7749" stop-color="#58A644"/>
<stop offset="0.9947" stop-color="#2D9047"/>
</radialGradient>
<radialGradient id="paint1_radial_650_51" cx="0" cy="0" r="1" gradientUnits="userSpaceOnUse" gradientTransform="translate(71.4868 -1.5313) scale(99.2187 99.2187)">
<stop stop-color="#00BFF2"/>
<stop offset="0.1367" stop-color="#03B4EA"/>
<stop offset="0.3736" stop-color="#0C98D3"/>
<stop offset="0.6823" stop-color="#1A6AAF"/>
<stop offset="0.9947" stop-color="#2A3584"/>
</radialGradient>
<clipPath id="clip0_650_51">
<rect width="137" height="109" fill="white"/>
</clipPath>
</defs>
</svg>
