<svg width="144" height="109" viewBox="0 0 144 109" fill="none" xmlns="http://www.w3.org/2000/svg">
<g clip-path="url(#clip0_650_104)">
<path d="M70.5 85.4L67.4 21.1C67.4 20 68.2 19 69.1 19H75.3C76.3 19 77 20 77 21.2L73.9 85.5C73.8 88 70.7 88 70.5 85.4Z" fill="url(#paint0_linear_650_104)"/>
<path d="M72.2 15.4C76.4526 15.4 79.9 11.9526 79.9 7.7C79.9 3.44741 76.4526 0 72.2 0C67.9474 0 64.5 3.44741 64.5 7.7C64.5 11.9526 67.9474 15.4 72.2 15.4Z" fill="url(#paint1_radial_650_104)"/>
<path d="M77.1 21.3998H67.2C66.2 21.3998 65.4 20.5998 65.4 19.5998C65.4 18.5998 66.2 17.7998 67.2 17.7998H77.1C78.1 17.7998 78.9 18.5998 78.9 19.5998C79 20.5998 78.2 21.3998 77.1 21.3998Z" fill="#00868A"/>
<path d="M136.2 38.5998L90.6 20.6998C90.2 20.4998 89.7 20.5998 89.4 20.8998C84.9 25.1998 78.3 26.4998 73.3 26.7998C73 26.7998 72.6 26.7998 72.3 26.7998V40.6998C75.5 40.6998 78.7 41.6998 81.5 43.5998C83.6 45.0998 85.7 46.5998 87.5 47.9998C91.8 51.2998 97.3 52.2998 102.5 50.8998C103.5 50.5998 103.7 49.2998 102.8 48.7998L89.2 40.0998C88 39.2998 89.1 37.3998 90.4 38.0998L108 48.5998C108.3 48.6998 108.6 48.7998 108.8 48.6998L118 46.1998C119.1 45.8998 119.2 44.4998 118.2 43.9998L95.3 34.0998C94 33.3998 94.9 31.3998 96.3 31.8998L124.9 43.9998C125.2 44.0998 125.5 44.0998 125.8 43.9998L136.3 40.7998C137.2 40.3998 137.2 38.9998 136.2 38.5998Z" fill="url(#paint2_linear_650_104)"/>
<path d="M71.2 26.8994C66.2 26.5994 59.5 25.2994 55.1 20.9994C54.8 20.6994 54.3 20.5994 53.9 20.7994L8.19998 38.5994C7.19998 38.9994 7.19998 40.3994 8.19998 40.7994L18.7 43.9994C19 44.0994 19.3 44.0994 19.6 43.9994L48.1 31.9994C49.5 31.4994 50.4 33.4994 49.1 34.1994L26.2 44.0994C25.2 44.5994 25.4 45.9994 26.4 46.2994L35.6 48.7994C35.9 48.8994 36.2 48.7994 36.4 48.6994L54 38.1994C55.3 37.4994 56.4 39.3994 55.2 40.1994L41.6 48.8994C40.8 49.4994 41 50.7994 41.9 50.9994C47.1 52.3994 52.6 51.3994 56.9 48.0994C58.7 46.6994 60.8 45.1994 62.9 43.6994C65.7 41.7994 68.9 40.7994 72.1 40.7994V26.8994C71.9 26.8994 71.5 26.8994 71.2 26.8994Z" fill="url(#paint3_linear_650_104)"/>
<path d="M68.9 51.6996C66.9 51.4996 64.9 51.2996 63 50.8996C59.5 50.1996 56.9 48.7996 55.8 47.1996C54.2 44.7996 56 41.6996 58.6 39.8996C59.3 39.3996 59.5 38.3996 59 37.5996C58.5 36.8996 57.5 36.6996 56.7 37.1996C52.1 40.3996 50.6 45.2996 53 48.9996C55 51.9996 59.1 53.4996 62.2 54.0996C62.4 54.0996 62.5 54.1996 62.7 54.1996C64.5 53.2996 66.6 52.8996 68.8 52.5996L68.9 51.6996Z" fill="url(#paint4_linear_650_104)"/>
<path d="M74.7 68.8992C76.2 69.3992 77.2 69.9992 77.6 70.6992C77.8 71.1992 77.6 71.8992 76.9 72.2992C76.3 72.6992 75.4 72.9992 74.5 72.9992L74.3 76.1992H74.4C76 76.1992 77.5 75.7992 78.7 74.8992C80.6 73.5992 81.3 71.2992 80.5 69.2992C80.2 68.4992 79.6 67.7992 78.8 67.1992C77.6 67.4992 76.2 67.7992 74.7 67.9992V68.8992Z" fill="url(#paint5_linear_650_104)"/>
<path d="M83.4 55.2996C82.8 54.7996 82.2 54.3996 81.6 54.0996C79.6 54.4996 77.6 54.6996 75.6 54.8996C75.5 54.8996 75.4 54.8996 75.4 54.8996V55.6996C77.8 56.0996 79.9 56.4996 81.3 57.6996C82.1 58.3996 82.6 59.3996 82.6 60.2996C82.6 61.0996 82.3 61.7996 81.6 62.3996C80.3 63.5996 78 64.3996 74.9 64.7996C74.5 64.8996 74 64.8996 73.5 64.8996C73.1 64.8996 72.6 64.9996 72.2 64.9996C71.2 65.0996 70.4 65.2996 69.6 65.4996C67.9 65.8996 66.6 66.4996 65.6 67.2996C64.8 67.8996 64.3 68.5996 63.9 69.3996C63 71.2996 63.8 73.5996 65.7 74.9996C66.9 75.7996 68.4 76.2996 70 76.2996H70.1L69.9 72.9996C69 72.9996 68.1 72.7996 67.5 72.2996C66.9 71.7996 66.6 71.1996 66.8 70.6996C67.1 69.9996 68.1 69.2996 69.7 68.8996C70.4 68.6996 71.2 68.4996 72.2 68.3996C72.7 68.2996 73.2 68.2996 73.7 68.1996C74 68.1996 74.4 68.0996 74.7 68.0996C76.2 67.8996 77.6 67.6996 78.8 67.2996C80.8 66.6996 82.5 65.8996 83.7 64.8996C85.1 63.6996 85.8 62.0996 85.8 60.3996C85.8 58.4996 84.9 56.6996 83.4 55.2996Z" fill="url(#paint6_linear_650_104)"/>
<path d="M87.6 37.1996C86.9 36.6996 85.9 36.8996 85.3 37.5996C84.8 38.2996 85 39.2996 85.7 39.8996C88.3 41.6996 90.1 44.7996 88.5 47.1996C87.4 48.7996 84.8 50.1996 81.3 50.8996C79.4 51.2996 77.5 51.4996 75.4 51.6996C75.3 51.6996 75.2 51.6996 75.1 51.6996C74.1 51.7996 73.1 51.8996 72.1 51.9996C71.8 51.9996 71.4 52.0996 71.1 52.0996C70.7 52.1996 70.4 52.1996 70 52.2996C69.6 52.3996 69.3 52.3996 68.9 52.4996C66.8 52.7996 64.6 53.1996 62.8 54.0996C62.2 54.3996 61.5 54.7996 61 55.2996C59.4 56.5996 58.6 58.4996 58.5 60.3996C58.5 62.0996 59.2 63.6996 60.6 64.8996C61.8 65.9996 63.4 66.7996 65.5 67.2996C66.5 66.4996 67.8 65.8996 69.5 65.4996V64.7996C66.4 64.3996 64.1 63.5996 62.8 62.3996C62.2 61.7996 61.8 61.0996 61.8 60.2996C61.8 59.3996 62.3 58.3996 63.1 57.6996C64.5 56.4996 66.7 55.9996 69 55.6996C69.5 55.5996 69.9 55.5996 70.4 55.4996C70.8 55.3996 71.1 55.3996 71.5 55.2996C71.7 55.2996 71.9 55.1996 72.1 55.1996C73.1 55.0996 74.2 54.8996 75.2 54.7996C75.3 54.7996 75.4 54.7996 75.4 54.7996C77.4 54.5996 79.4 54.3996 81.4 53.9996C81.6 53.9996 81.7 53.8996 81.9 53.8996C85 53.1996 89.1 51.7996 91.1 48.7996C93.7 45.2996 92.1 40.2996 87.6 37.1996Z" fill="url(#paint7_linear_650_104)"/>
<path d="M7.59999 96.5996L2.79999 108C2.69999 108.3 2.49999 108.5 2.29999 108.7C2.09999 108.9 1.79999 108.9 1.59999 108.9C1.19999 108.9 0.899994 108.8 0.699994 108.6C0.499994 108.4 0.399994 108.1 0.399994 107.8C0.399994 107.7 0.399994 107.5 0.499994 107.4L6.09999 93.9996C6.19999 93.6996 6.39999 93.4996 6.59999 93.2996C6.79999 93.0996 7.09999 93.0996 7.39999 93.0996C7.69999 93.0996 7.89999 93.1996 8.09999 93.2996C8.29999 93.4996 8.49999 93.6996 8.59999 93.9996L14.1 107.1C14.2 107.3 14.2 107.5 14.2 107.6C14.2 108 14.1 108.3 13.8 108.6C13.5 108.8 13.3 109 12.9 109C12.6 109 12.4 108.9 12.2 108.8C12 108.6 11.8 108.4 11.7 108.1L6.99999 96.7996L7.59999 96.5996ZM3.49999 105.3L4.69999 102.7H10.7L11.1 105.3H3.49999Z" fill="black"/>
<path d="M22.6 93.0996C23.4 93.0996 24.1 93.2996 24.8 93.7996C25.5 94.1996 26 94.8996 26.4 95.5996C26.8 96.2996 27 97.1996 27 98.0996C27 98.9996 26.8 99.8996 26.4 100.6C26 101.4 25.4 102 24.8 102.4C24.1 102.9 23.4 103.1 22.6 103.1H18.5L18.7 102.7V107.3C18.7 107.7 18.6 108 18.3 108.3C18.1 108.6 17.7 108.7 17.4 108.7C17 108.7 16.7 108.6 16.5 108.3C16.3 108 16.1 107.7 16.1 107.3V94.4996C16.1 94.0996 16.2 93.7996 16.5 93.4996C16.8 93.1996 17.1 93.0996 17.5 93.0996H22.6ZM22.6 100.6C22.9 100.6 23.2 100.5 23.4 100.2C23.7 99.9996 23.9 99.6996 24.1 99.2996C24.3 98.8996 24.4 98.4996 24.4 98.0996C24.4 97.6996 24.3 97.2996 24.1 96.8996C23.9 96.4996 23.7 96.1996 23.4 95.9996C23.1 95.7996 22.9 95.6996 22.6 95.6996H18.4L18.7 95.2996V101L18.5 100.6H22.6Z" fill="black"/>
<path d="M36.1 93.0996C36.9 93.0996 37.6 93.2996 38.3 93.7996C39 94.1996 39.5 94.8996 39.9 95.5996C40.3 96.2996 40.5 97.1996 40.5 98.0996C40.5 98.9996 40.3 99.8996 39.9 100.6C39.5 101.4 38.9 102 38.3 102.4C37.6 102.9 36.9 103.1 36.1 103.1H32L32.2 102.7V107.3C32.2 107.7 32.1 108 31.8 108.3C31.6 108.6 31.2 108.7 30.9 108.7C30.5 108.7 30.2 108.6 30 108.3C29.8 108 29.6 107.7 29.6 107.3V94.4996C29.6 94.0996 29.7 93.7996 30 93.4996C30.3 93.1996 30.6 93.0996 31 93.0996H36.1ZM36.1 100.6C36.4 100.6 36.7 100.5 36.9 100.2C37.2 99.9996 37.4 99.6996 37.6 99.2996C37.8 98.8996 37.9 98.4996 37.9 98.0996C37.9 97.6996 37.8 97.2996 37.6 96.8996C37.4 96.4996 37.2 96.1996 36.9 95.9996C36.6 95.7996 36.4 95.6996 36.1 95.6996H31.9L32.2 95.2996V101L32 100.6H36.1Z" fill="black"/>
<path d="M51.7 106.2C52.1 106.2 52.4 106.3 52.7 106.6C53 106.8 53.1 107.2 53.1 107.5C53.1 107.9 53 108.2 52.7 108.4C52.4 108.6 52.1 108.8 51.7 108.8H44.4C44 108.8 43.7 108.7 43.4 108.4C43.1 108.1 43 107.8 43 107.4V94.4996C43 94.0996 43.1 93.7996 43.4 93.4996C43.7 93.1996 44 93.0996 44.4 93.0996C44.8 93.0996 45.1 93.1996 45.4 93.4996C45.7 93.7996 45.8 94.0996 45.8 94.4996V106.5L45.3 106.1H51.7V106.2Z" fill="black"/>
<path d="M69.8 101C69.8 102.1 69.6 103.2 69.2 104.1C68.8 105.1 68.3 105.9 67.6 106.7C66.9 107.4 66.1 108 65.2 108.4C64.3 108.8 63.3 109 62.1 109C61 109 60 108.8 59.1 108.4C58.2 108 57.4 107.4 56.7 106.7C56 106 55.5 105.1 55.1 104.1C54.7 103.1 54.5 102.1 54.5 101C54.5 99.9 54.7 98.8 55.1 97.9C55.5 96.9 56 96.1 56.7 95.3C57.4 94.6 58.2 94 59.1 93.6C60 93.2 61 93 62.1 93C63.2 93 64.2 93.2 65.2 93.6C66.1 94 66.9 94.6 67.6 95.3C68.3 96 68.8 96.9 69.2 97.9C69.7 98.8 69.8 99.8 69.8 101ZM66.9 101C66.9 100 66.7 99.1 66.3 98.3C65.9 97.5 65.3 96.8 64.6 96.4C63.9 95.9 63.1 95.7 62.2 95.7C61.3 95.7 60.5 95.9 59.8 96.4C59.1 96.9 58.6 97.5 58.2 98.3C57.8 99.1 57.6 100 57.6 101C57.6 102 57.8 102.9 58.2 103.7C58.6 104.5 59.1 105.2 59.8 105.6C60.5 106.1 61.3 106.3 62.2 106.3C63.1 106.3 63.9 106.1 64.6 105.6C65.3 105.1 65.9 104.5 66.3 103.7C66.7 102.9 66.9 102 66.9 101Z" fill="black"/>
<path d="M80.1 93.0996C80.3 93.0996 80.5 93.1996 80.8 93.2996C81 93.3996 81.2 93.5996 81.3 93.6996L86.7 102.1H85.6L91.2 93.7996C91.5 93.3996 91.8 93.1996 92.3 93.1996C92.7 93.1996 93 93.2996 93.3 93.5996C93.6 93.8996 93.7 94.1996 93.7 94.5996V107.5C93.7 107.9 93.6 108.2 93.3 108.5C93 108.8 92.7 108.9 92.3 108.9C91.9 108.9 91.5 108.8 91.3 108.5C91.1 108.2 90.9 107.9 90.9 107.5V96.8996L91.8 97.0996L87.2 104.1C87.1 104.3 86.9 104.4 86.7 104.5C86.5 104.6 86.3 104.7 86.1 104.7C85.9 104.7 85.7 104.7 85.5 104.5C85.3 104.4 85.1 104.2 85 104.1L80.7 97.2996L81.3 96.0996V107.4C81.3 107.8 81.2 108.1 80.9 108.4C80.6 108.7 80.3 108.8 80 108.8C79.6 108.8 79.3 108.7 79.1 108.4C78.9 108.1 78.7 107.8 78.7 107.4V94.4996C78.7 94.0996 78.8 93.7996 79.1 93.4996C79.4 93.1996 79.7 93.0996 80.1 93.0996Z" fill="black"/>
<path d="M98.3 93.0996H105.8C106.2 93.0996 106.5 93.1996 106.8 93.4996C107.1 93.6996 107.2 94.0996 107.2 94.4996C107.2 94.8996 107.1 95.1996 106.8 95.3996C106.5 95.5996 106.2 95.6996 105.8 95.6996H99.5L99.7 95.2996V99.6996L99.5 99.4996H104.7C105.1 99.4996 105.4 99.5996 105.7 99.8996C106 100.1 106.1 100.5 106.1 100.8C106.1 101.2 106 101.5 105.7 101.7C105.4 101.9 105.1 102 104.7 102H99.5L99.6 101.8V106.3L99.4 106.1H105.6C106 106.1 106.3 106.2 106.6 106.5C106.9 106.8 107 107.1 107 107.4C107 107.8 106.9 108.1 106.6 108.3C106.3 108.5 106 108.7 105.6 108.7H98.1C97.7 108.7 97.4 108.6 97.1 108.3C96.8 108 96.7 107.7 96.7 107.3V94.4996C96.7 94.0996 96.8 93.7996 97.1 93.4996C97.4 93.1996 98 93.0996 98.3 93.0996Z" fill="black"/>
<path d="M116.5 93.0996C117.6 93.0996 118.5 93.2996 119.4 93.6996C120.2 94.0996 120.9 94.6996 121.5 95.3996C122.1 96.0996 122.5 96.9996 122.8 97.8996C123.1 98.7996 123.2 99.8996 123.2 100.9C123.2 102.3 122.9 103.7 122.4 104.8C121.9 106 121.1 106.9 120.1 107.6C119.1 108.3 117.9 108.7 116.4 108.7H111.1C110.7 108.7 110.4 108.6 110.1 108.3C109.8 108 109.7 107.7 109.7 107.3V94.4996C109.7 94.0996 109.8 93.7996 110.1 93.4996C110.4 93.1996 110.7 93.0996 111.1 93.0996H116.5ZM116.3 106.2C117.2 106.2 118 106 118.6 105.5C119.2 105 119.6 104.4 119.9 103.6C120.2 102.8 120.3 101.9 120.3 101C120.3 100.3 120.2 99.5996 120.1 98.9996C119.9 98.3996 119.7 97.7996 119.4 97.2996C119.1 96.7996 118.7 96.3996 118.1 96.0996C117.6 95.7996 117 95.6996 116.3 95.6996H112.4L112.6 95.4996V106.5L112.5 106.3H116.3V106.2Z" fill="black"/>
<path d="M128.5 107.4C128.5 107.8 128.4 108.1 128.1 108.4C127.8 108.7 127.5 108.8 127.1 108.8C126.7 108.8 126.3 108.7 126.1 108.4C125.8 108.1 125.7 107.8 125.7 107.4V94.4996C125.7 94.0996 125.8 93.7996 126.1 93.4996C126.4 93.1996 126.7 93.0996 127.1 93.0996C127.5 93.0996 127.8 93.1996 128.1 93.4996C128.4 93.7996 128.5 94.0996 128.5 94.4996V107.4Z" fill="black"/>
<path d="M142.9 93.8996C143.3 94.0996 143.5 94.3996 143.6 94.7996C143.7 95.1996 143.6 95.5996 143.3 95.8996C143.1 96.1996 142.9 96.2996 142.6 96.2996C142.3 96.2996 142 96.2996 141.7 96.0996C141.3 95.8996 141 95.7996 140.6 95.6996C140.2 95.5996 139.8 95.5996 139.4 95.5996C138.6 95.5996 137.9 95.6996 137.2 95.9996C136.6 96.2996 136 96.5996 135.6 97.0996C135.2 97.5996 134.8 98.0996 134.6 98.7996C134.4 99.3996 134.3 100.1 134.3 100.9C134.3 101.8 134.4 102.6 134.7 103.3C135 104 135.3 104.5 135.8 105C136.3 105.4 136.8 105.8 137.4 106C138 106.2 138.7 106.3 139.4 106.3C139.8 106.3 140.2 106.3 140.6 106.2C141 106.1 141.4 106 141.8 105.8C142.1 105.7 142.4 105.6 142.7 105.6C143 105.6 143.3 105.8 143.5 106.1C143.8 106.5 143.9 106.9 143.8 107.3C143.7 107.7 143.5 108 143.1 108.2C142.7 108.4 142.3 108.6 141.9 108.7C141.5 108.8 141.1 108.9 140.7 109C140.3 109.1 139.9 109.1 139.4 109.1C138.3 109.1 137.3 108.9 136.3 108.6C135.3 108.3 134.5 107.8 133.7 107.1C132.9 106.4 132.4 105.6 131.9 104.6C131.5 103.6 131.3 102.4 131.3 101.1C131.3 99.9996 131.5 98.8996 131.9 97.8996C132.3 96.8996 132.9 96.0996 133.6 95.3996C134.3 94.6996 135.2 94.0996 136.2 93.6996C137.2 93.2996 138.3 93.0996 139.4 93.0996C140.1 93.0996 140.7 93.1996 141.3 93.2996C141.7 93.3996 142.3 93.5996 142.9 93.8996Z" fill="black"/>
</g>
<defs>
<linearGradient id="paint0_linear_650_104" x1="72.216" y1="87.3796" x2="72.216" y2="18.963" gradientUnits="userSpaceOnUse">
<stop stop-color="#4FBFA5"/>
<stop offset="1" stop-color="#006A65"/>
</linearGradient>
<radialGradient id="paint1_radial_650_104" cx="0" cy="0" r="1" gradientUnits="userSpaceOnUse" gradientTransform="translate(70.3135 6.6318) scale(7.6887)">
<stop stop-color="#4FBFA5"/>
<stop offset="1" stop-color="#00868A"/>
</radialGradient>
<linearGradient id="paint2_linear_650_104" x1="72.216" y1="36.1598" x2="136.991" y2="36.1598" gradientUnits="userSpaceOnUse">
<stop stop-color="#4FBFA5"/>
<stop offset="1" stop-color="#00868A"/>
</linearGradient>
<linearGradient id="paint3_linear_650_104" x1="7.44038" y1="36.1594" x2="72.216" y2="36.1594" gradientUnits="userSpaceOnUse">
<stop stop-color="#4FBFA5"/>
<stop offset="1" stop-color="#00868A"/>
</linearGradient>
<linearGradient id="paint4_linear_650_104" x1="52.0469" y1="45.5105" x2="68.9648" y2="45.5105" gradientUnits="userSpaceOnUse">
<stop stop-color="#4FBFA5"/>
<stop offset="1" stop-color="#00868A"/>
</linearGradient>
<linearGradient id="paint5_linear_650_104" x1="74.3277" y1="71.8177" x2="80.8648" y2="71.8177" gradientUnits="userSpaceOnUse">
<stop stop-color="#00868A"/>
<stop offset="1" stop-color="#4FBFA5"/>
</linearGradient>
<linearGradient id="paint6_linear_650_104" x1="63.5671" y1="65.2133" x2="85.8208" y2="65.2133" gradientUnits="userSpaceOnUse">
<stop stop-color="#00868A"/>
<stop offset="1" stop-color="#4FBFA5"/>
</linearGradient>
<linearGradient id="paint7_linear_650_104" x1="58.6112" y1="52.1152" x2="92.385" y2="52.1152" gradientUnits="userSpaceOnUse">
<stop stop-color="#4FBFA5"/>
<stop offset="1" stop-color="#00868A"/>
</linearGradient>
<clipPath id="clip0_650_104">
<rect width="144" height="109" fill="white"/>
</clipPath>
</defs>
</svg>
