<svg width="58" height="66" viewBox="0 0 58 66" fill="none" xmlns="http://www.w3.org/2000/svg">
<path d="M31.3388 62.8045C31.3388 62.8045 4.22146 56.2735 3.1772 11.1796C1.7197 12.1005 0.837388 12.9036 0.837388 13.4876C1.8649 58.6265 28.9989 65.1575 28.9989 65.1575C28.9989 65.1575 35.7559 63.5233 42.6637 55.9646C36.6494 61.5185 31.3388 62.8045 31.3388 62.8045Z" fill="#E0E1E2"/>
<path d="M28.9766 58.6096C28.4238 58.3737 27.7369 58.048 26.9607 57.6212C24.1685 56.0882 21.5607 53.9935 19.2041 51.3991C15.8759 47.7264 13.1731 43.1496 11.1739 37.7866C8.85084 31.5532 7.47152 24.2416 7.07504 16.0259C8.27007 15.3239 10.4256 14.2008 14.2229 12.5273C18.6066 10.5955 23.4649 8.6918 26.7652 7.43389C28.2053 6.88179 29.7968 6.87979 31.2382 7.42827C34.5385 8.68057 39.3913 10.5731 43.775 12.4992C47.5164 14.1446 49.6664 15.2621 50.8726 15.9585C50.2974 24.2079 48.812 31.542 46.4498 37.7979C44.406 43.1889 41.7088 47.7882 38.4308 51.4664C36.1245 54.0553 33.5836 56.1387 30.8864 57.6549C30.1549 58.0649 29.5071 58.3793 28.9766 58.6096Z" fill="#E0E1E2"/>
<path d="M39.302 23.7081C39.5241 23.7081 39.7372 23.7969 39.8943 23.9549C40.0514 24.1128 40.1396 24.3271 40.1396 24.5505V31.4578C40.1396 31.6812 40.0514 31.8954 39.8943 32.0534C39.7372 32.2114 39.5241 32.3001 39.302 32.3001H33.2709V38.3651C33.2709 38.5885 33.1827 38.8027 33.0256 38.9607C32.8685 39.1187 32.6555 39.2074 32.4333 39.2074H25.5646C25.3425 39.2074 25.1294 39.1187 24.9723 38.9607C24.8152 38.8027 24.727 38.5885 24.727 38.3651V32.3001H18.696C18.4738 32.3001 18.2607 32.2114 18.1037 32.0534C17.9466 31.8954 17.8583 31.6812 17.8583 31.4578V24.5505C17.8583 24.3271 17.9466 24.1128 18.1037 23.9549C18.2607 23.7969 18.4738 23.7081 18.696 23.7081H24.727V17.6432C24.727 17.4198 24.8152 17.2055 24.9723 17.0476C25.1294 16.8896 25.3425 16.8009 25.5646 16.8009H32.4333C32.6555 16.8009 32.8685 16.8896 33.0256 17.0476C33.1827 17.2055 33.2709 17.4198 33.2709 17.6432V23.7081" fill="#1682FC"/>
<path d="M28.9989 65.9999C28.9331 66.0008 28.8674 65.9932 28.8035 65.9774C28.7309 65.9606 26.983 65.5282 24.364 64.1804C21.9683 62.9506 18.3497 60.6762 14.6976 56.8295C10.6099 52.5279 7.30958 47.1705 4.89159 40.909C1.88166 33.1201 0.234296 23.8991 -0.000244141 13.5101V13.4876C-0.000244141 12.3645 1.13895 10.7977 9.39252 7.00715C14.3234 4.74403 20.2204 2.41914 24.297 0.869211C27.3257 -0.285855 30.6695 -0.28985 33.7009 0.857979C37.7942 2.41352 43.7135 4.73842 48.65 7.00153C51.3975 8.25945 53.553 9.37135 55.0552 10.2979C57.1605 11.6008 58.0428 12.5667 57.9981 13.527C57.5402 23.9609 55.7588 33.2043 52.6987 40.9989C50.2416 47.266 46.958 52.6177 42.9429 56.9025C40.9605 59.0196 37.716 62.0015 33.5055 64.2085C30.959 65.5394 29.267 65.9606 29.1944 65.9774C29.1305 65.9935 29.0648 66.0011 28.9989 65.9999ZM1.67504 13.5157C1.90958 23.6576 3.50669 32.6427 6.42168 40.2183C8.74475 46.2664 11.911 51.4328 15.8312 55.5828C17.7522 57.6157 20.9073 60.4909 25.0341 62.6361C27.0221 63.6638 28.4852 64.1355 28.9989 64.2871C29.4959 64.1411 30.9088 63.6806 32.8242 62.6642C35.0356 61.4961 38.3861 59.3341 41.8093 55.6558C45.6569 51.5227 48.812 46.3506 51.1741 40.2913C54.1394 32.6989 55.8705 23.6857 56.3229 13.4876C56.2838 13.3866 55.9599 12.7857 53.7764 11.4941C52.2854 10.6068 50.1857 9.54544 47.5499 8.3493C42.7195 6.15357 37.0291 3.92414 33.109 2.43599C30.4593 1.43149 27.5359 1.43549 24.8889 2.44722C20.9687 3.93537 15.2784 6.17603 10.4535 8.37176C7.81776 9.57351 5.72365 10.6349 4.22706 11.5222C2.03802 12.8194 1.71413 13.4203 1.67504 13.5157Z" fill="#2E3A58"/>
<path d="M28.9766 58.8904C28.94 58.8912 28.9037 58.8835 28.8705 58.868C28.3679 58.6546 27.8486 58.4075 27.3348 58.1435C27.3022 58.1266 27.2732 58.1033 27.2495 58.0751C27.2258 58.0469 27.2079 58.0142 27.1967 57.979C27.1856 57.9438 27.1814 57.9068 27.1845 57.87C27.1876 57.8331 27.1979 57.7973 27.2148 57.7645C27.2316 57.7317 27.2548 57.7025 27.2828 57.6787C27.3109 57.6549 27.3434 57.6368 27.3784 57.6256C27.4134 57.6144 27.4502 57.6102 27.4868 57.6133C27.5234 57.6165 27.5591 57.6268 27.5917 57.6437C28.0552 57.8852 28.5243 58.1042 28.9766 58.3008C29.4289 58.1042 29.8924 57.874 30.3559 57.6269C30.3877 57.6092 30.4227 57.5981 30.4589 57.5942C30.495 57.5903 30.5316 57.5937 30.5664 57.6041C30.6013 57.6146 30.6337 57.6319 30.6618 57.6551C30.6899 57.6783 30.7131 57.7069 30.7301 57.7392C30.7478 57.7716 30.7589 57.8073 30.7629 57.844C30.7668 57.8808 30.7635 57.918 30.7531 57.9535C30.7428 57.989 30.7255 58.022 30.7024 58.0508C30.6793 58.0796 30.6507 58.1035 30.6184 58.1211C30.1046 58.3963 29.5909 58.649 29.0883 58.868C29.0525 58.8813 29.0148 58.8889 28.9766 58.8904Z" fill="#1682FC"/>
<path d="M24.7828 56.5712C24.7267 56.5716 24.6719 56.5538 24.6264 56.5206C23.7567 55.928 22.918 55.2907 22.1135 54.6113C22.0852 54.588 22.0618 54.5592 22.0448 54.5267C22.0277 54.4941 22.0173 54.4585 22.0142 54.4219C22.0111 54.3852 22.0153 54.3483 22.0266 54.3133C22.0379 54.2783 22.0561 54.246 22.08 54.2182C22.1279 54.1608 22.1962 54.1246 22.2703 54.1172C22.3444 54.1099 22.4184 54.132 22.4765 54.1789C23.2617 54.8501 24.0839 55.4763 24.9392 56.0545C24.9698 56.0754 24.996 56.1021 25.0163 56.1332C25.0365 56.1644 25.0505 56.1992 25.0572 56.2358C25.064 56.2724 25.0634 56.3099 25.0556 56.3463C25.0478 56.3826 25.0329 56.4171 25.0118 56.4476C24.9868 56.4857 24.9528 56.5169 24.9128 56.5385C24.8728 56.56 24.8282 56.5713 24.7828 56.5712ZM20.0138 52.5391C19.9384 52.5389 19.8661 52.5086 19.8128 52.4549C19.5392 52.1741 19.2655 51.8821 18.9975 51.59C18.5619 51.1127 18.1319 50.6073 17.7187 50.0963C17.6724 50.0388 17.6505 49.9652 17.6579 49.8916C17.6652 49.818 17.7011 49.7503 17.7578 49.7032C17.7862 49.6793 17.8191 49.6613 17.8546 49.6503C17.89 49.6393 17.9273 49.6355 17.9642 49.6392C18.0011 49.6429 18.0369 49.6539 18.0696 49.6716C18.1022 49.6893 18.131 49.7134 18.1543 49.7425C18.5619 50.2423 18.9807 50.7421 19.4107 51.2138C19.6732 51.5002 19.9412 51.7866 20.2093 52.0618C20.2351 52.0882 20.2554 52.1196 20.2691 52.154C20.2828 52.1884 20.2896 52.2252 20.2891 52.2623C20.2886 52.2994 20.2808 52.336 20.2661 52.37C20.2514 52.404 20.2302 52.4347 20.2037 52.4605C20.1793 52.4863 20.1498 52.5066 20.1171 52.5202C20.0844 52.5337 20.0492 52.5402 20.0138 52.5391ZM16.0713 47.6871C16.026 47.6872 15.9813 47.676 15.9413 47.6544C15.9014 47.6329 15.8674 47.6017 15.8424 47.5636C15.2616 46.71 14.6976 45.8115 14.1727 44.8905C14.1497 44.8588 14.1336 44.8225 14.1254 44.7841C14.1173 44.7456 14.1172 44.7059 14.1253 44.6675C14.1333 44.629 14.1493 44.5927 14.1722 44.5609C14.1951 44.5291 14.2244 44.5024 14.2581 44.4827C14.2919 44.4629 14.3294 44.4505 14.3683 44.4463C14.4071 44.442 14.4464 44.446 14.4836 44.458C14.5208 44.47 14.5551 44.4897 14.5843 44.5158C14.6134 44.5419 14.6368 44.574 14.6529 44.6098C15.1778 45.5195 15.7307 46.4068 16.3003 47.2491C16.3286 47.2912 16.345 47.3402 16.3477 47.3909C16.3505 47.4416 16.3396 47.4921 16.3161 47.537C16.2926 47.582 16.2574 47.6197 16.2143 47.6461C16.1712 47.6725 16.1218 47.6867 16.0713 47.6871ZM12.9553 42.2568C12.9025 42.2557 12.8511 42.2399 12.8067 42.2112C12.7623 42.1824 12.7268 42.1418 12.704 42.0939C12.2573 41.1673 11.8273 40.1958 11.4308 39.2131C11.4163 39.1792 11.4086 39.1428 11.4084 39.1059C11.4081 39.0691 11.4152 39.0325 11.4293 38.9985C11.4434 38.9644 11.4641 38.9336 11.4902 38.9077C11.5164 38.8819 11.5475 38.8616 11.5816 38.8481C11.6505 38.8199 11.7277 38.82 11.7966 38.8483C11.8655 38.8767 11.9206 38.931 11.9501 38.9997C12.341 39.9768 12.7654 40.9315 13.2066 41.8525C13.2228 41.8856 13.2323 41.9217 13.2346 41.9586C13.2369 41.9955 13.232 42.0324 13.2201 42.0674C13.2081 42.1023 13.1894 42.1346 13.1651 42.1623C13.1407 42.19 13.1112 42.2125 13.0781 42.2287C13.0394 42.2459 12.9977 42.2555 12.9553 42.2568ZM10.5987 36.4445C10.5415 36.4437 10.4859 36.4256 10.4391 36.3926C10.3923 36.3595 10.3564 36.3131 10.3363 36.2592C10.0068 35.2821 9.69965 34.2657 9.41485 33.2436C9.40459 33.2082 9.40135 33.1711 9.40534 33.1345C9.40933 33.0978 9.42045 33.0623 9.43808 33.03C9.47369 32.9647 9.53363 32.9163 9.60472 32.8954C9.67647 32.8778 9.7522 32.8883 9.81653 32.9248C9.88085 32.9613 9.92892 33.0211 9.95095 33.092C10.2302 34.1084 10.5429 35.108 10.8668 36.0739C10.8791 36.1089 10.8844 36.1461 10.8823 36.1831C10.8803 36.2202 10.8709 36.2565 10.8548 36.29C10.8387 36.3234 10.8162 36.3533 10.7885 36.3779C10.7609 36.4025 10.7286 36.4213 10.6937 36.4333C10.6629 36.4425 10.6308 36.4463 10.5987 36.4445ZM8.91785 30.4077C8.85426 30.408 8.79247 30.3864 8.74272 30.3466C8.69296 30.3068 8.65821 30.2511 8.64422 30.1887C8.41527 29.1835 8.20865 28.1446 8.01878 27.1001C8.00815 27.0622 8.00554 27.0226 8.01112 26.9836C8.0167 26.9447 8.03035 26.9074 8.05118 26.8741C8.07201 26.8408 8.09956 26.8123 8.13204 26.7905C8.16453 26.7686 8.20123 26.7538 8.23975 26.7471C8.27828 26.7403 8.31778 26.7418 8.3557 26.7514C8.39362 26.761 8.42911 26.7786 8.45987 26.8028C8.49063 26.8271 8.51597 26.8576 8.53426 26.8924C8.55255 26.9271 8.56338 26.9654 8.56604 27.0046C8.75591 28.0379 8.96253 29.0712 9.1859 30.0651C9.19499 30.1009 9.19683 30.1382 9.1913 30.1747C9.18577 30.2112 9.17297 30.2463 9.15369 30.2777C9.13441 30.3091 9.10903 30.3364 9.07907 30.3577C9.0491 30.3791 9.01517 30.3942 8.97928 30.4021L8.91785 30.4077ZM7.801 24.2361C7.73387 24.2366 7.66891 24.2122 7.61845 24.1677C7.568 24.1232 7.53558 24.0616 7.52737 23.9946C7.38217 22.9725 7.25932 21.9224 7.15322 20.8667C7.14545 20.8282 7.14579 20.7886 7.1542 20.7502C7.16261 20.7119 7.17891 20.6758 7.20204 20.6442C7.22518 20.6127 7.25464 20.5863 7.28853 20.5669C7.32241 20.5474 7.35998 20.5354 7.39879 20.5314C7.4376 20.5275 7.4768 20.5318 7.51387 20.544C7.55094 20.5562 7.58505 20.5761 7.614 20.6024C7.64295 20.6287 7.66609 20.6608 7.68195 20.6966C7.69781 20.7325 7.70602 20.7713 7.70606 20.8105C7.81216 21.855 7.93502 22.8995 8.08021 23.916C8.08826 23.9894 8.06776 24.0631 8.02301 24.1217C7.97826 24.1804 7.91272 24.2193 7.84008 24.2304L7.801 24.2361Z" fill="#1682FC"/>
<path d="M7.16998 17.9858C7.09964 17.986 7.03181 17.9596 6.98004 17.9117C6.92828 17.8638 6.89639 17.798 6.89077 17.7275C6.85168 17.1659 6.82376 16.5987 6.79584 16.0372C6.79254 15.9859 6.80329 15.9347 6.82692 15.8892C6.85055 15.8436 6.88616 15.8055 6.92986 15.7789C7.36543 15.5318 7.86244 15.2566 8.41528 14.9702C8.44744 14.9527 8.48275 14.9419 8.51913 14.9384C8.55551 14.9349 8.59222 14.9388 8.6271 14.9498C8.66197 14.9608 8.6943 14.9787 8.72218 15.0024C8.75006 15.0262 8.77293 15.0553 8.78942 15.0881C8.82296 15.1538 8.82946 15.23 8.80751 15.3004C8.78557 15.3708 8.73694 15.4297 8.67216 15.4644C8.18632 15.7171 7.75075 15.9586 7.35985 16.1832C7.38777 16.683 7.41569 17.1884 7.4492 17.6882C7.45146 17.7251 7.44647 17.7621 7.43449 17.797C7.42252 17.8319 7.4038 17.8642 7.37942 17.8918C7.35504 17.9195 7.32546 17.942 7.2924 17.9581C7.25933 17.9743 7.22343 17.9837 7.18674 17.9858H7.16998Z" fill="#1682FC"/>
<path d="M11.5927 13.9987C11.5391 13.998 11.4868 13.9825 11.4414 13.9537C11.3961 13.925 11.3595 13.8842 11.3358 13.8358C11.3053 13.7687 11.3022 13.6922 11.3273 13.6229C11.3523 13.5535 11.4036 13.4969 11.4699 13.4652C12.2852 13.0833 13.1731 12.679 14.1112 12.2691L14.5747 12.0669C14.6085 12.052 14.6448 12.044 14.6816 12.0433C14.7184 12.0426 14.755 12.0492 14.7892 12.0628C14.8235 12.0764 14.8547 12.0966 14.8812 12.1224C14.9076 12.1481 14.9287 12.1789 14.9433 12.2129C14.9717 12.2815 14.9724 12.3586 14.9453 12.4278C14.9182 12.4969 14.8654 12.5528 14.7981 12.5835L14.3346 12.7801C13.402 13.1956 12.5197 13.5944 11.71 13.9706C11.6741 13.9903 11.6336 14 11.5927 13.9987ZM46.3549 13.9481C46.3143 13.9468 46.2744 13.9373 46.2376 13.9201C45.4391 13.5494 44.5735 13.1563 43.6633 12.7576L43.1439 12.533C43.1102 12.5182 43.0797 12.497 43.0541 12.4703C43.0286 12.4437 43.0085 12.4123 42.995 12.3779C42.9815 12.3435 42.9749 12.3067 42.9756 12.2698C42.9762 12.2328 42.9841 12.1963 42.9987 12.1624C43.0134 12.1284 43.0346 12.0977 43.061 12.072C43.0875 12.0464 43.1187 12.0261 43.153 12.0126C43.1872 11.999 43.2237 11.9924 43.2605 11.993C43.2973 11.9937 43.3336 12.0016 43.3673 12.0163L43.8866 12.241C44.8025 12.6453 45.6736 13.0384 46.4722 13.409C46.5057 13.4247 46.5358 13.4469 46.5607 13.4744C46.5857 13.5018 46.6049 13.534 46.6174 13.569C46.6298 13.604 46.6353 13.6411 46.6334 13.6783C46.6314 13.7154 46.6222 13.7518 46.6062 13.7853C46.5845 13.834 46.5492 13.8754 46.5046 13.9043C46.46 13.9332 46.408 13.9484 46.3549 13.9481ZM17.808 11.2695C17.7535 11.2697 17.7002 11.2538 17.6545 11.2239C17.6089 11.1939 17.573 11.1512 17.5512 11.101C17.5246 11.0315 17.5254 10.9545 17.5534 10.8856C17.5814 10.8167 17.6346 10.7612 17.7019 10.7304C18.7015 10.3148 19.7625 9.88239 20.8515 9.44437C20.8856 9.43072 20.922 9.42397 20.9587 9.42449C20.9954 9.425 21.0316 9.43279 21.0653 9.44739C21.099 9.46199 21.1296 9.48312 21.1551 9.50958C21.1807 9.53604 21.2009 9.56731 21.2144 9.6016C21.228 9.6359 21.2347 9.67254 21.2342 9.70944C21.2337 9.74634 21.226 9.78278 21.2114 9.81668C21.1969 9.85057 21.1759 9.88126 21.1496 9.90699C21.1233 9.93272 21.0922 9.95298 21.0581 9.96662C19.9692 10.4046 18.9137 10.8371 17.9197 11.2526C17.8835 11.2637 17.8459 11.2694 17.808 11.2695ZM40.1284 11.2245C40.0924 11.2244 40.0566 11.2187 40.0223 11.2077C39.0227 10.7921 37.9673 10.3597 36.8784 9.92731C36.8095 9.89976 36.7543 9.84582 36.725 9.77737C36.6957 9.70891 36.6946 9.63155 36.722 9.56229C36.7494 9.49304 36.803 9.43756 36.8711 9.40808C36.9392 9.37859 37.0161 9.3775 37.085 9.40506C38.1739 9.83746 39.2349 10.2699 40.2345 10.6854C40.2686 10.699 40.2997 10.7193 40.3258 10.7451C40.352 10.7709 40.3727 10.8018 40.3868 10.8358C40.4008 10.8699 40.408 10.9064 40.4077 10.9433C40.4074 10.9802 40.3998 11.0166 40.3853 11.0504C40.3657 11.1026 40.3304 11.1474 40.2844 11.1786C40.2384 11.2098 40.1839 11.2258 40.1284 11.2245ZM24.1127 8.73679C24.0466 8.73808 23.9821 8.71571 23.9309 8.67368C23.8796 8.63165 23.8448 8.57269 23.8328 8.50729C23.8207 8.44189 23.8321 8.37431 23.865 8.31658C23.8978 8.25885 23.95 8.21473 24.0122 8.19207L26.6647 7.17002C26.849 7.10263 27.0277 7.04085 27.212 6.99031C27.2831 6.96946 27.3595 6.97786 27.4244 7.01367C27.4893 7.04948 27.5375 7.10975 27.5582 7.18124C27.5789 7.25273 27.5706 7.32958 27.535 7.39488C27.4994 7.46017 27.4394 7.50857 27.3683 7.52942C27.1971 7.58183 27.0296 7.63799 26.8657 7.69789C25.9778 8.03483 25.0844 8.37739 24.2132 8.71994C24.1808 8.73095 24.1469 8.73664 24.1127 8.73679ZM33.8238 8.7031C33.789 8.7038 33.7545 8.69609 33.7232 8.68063L31.1377 7.69227C30.9516 7.61956 30.7614 7.55769 30.5681 7.50696C30.4973 7.48724 30.437 7.44021 30.4004 7.37607C30.3638 7.31194 30.3538 7.23587 30.3727 7.1644C30.381 7.12829 30.3966 7.0943 30.4186 7.06454C30.4406 7.03479 30.4684 7.00991 30.5004 6.99147C30.5324 6.97302 30.5678 6.9614 30.6044 6.95734C30.641 6.95328 30.6781 6.95685 30.7133 6.96785C30.9255 7.02401 31.1321 7.09139 31.3332 7.1644L33.9243 8.15837C33.9865 8.18103 34.0386 8.22515 34.0715 8.28288C34.1044 8.34061 34.1158 8.4082 34.1037 8.47359C34.0916 8.53899 34.0569 8.59796 34.0056 8.63999C33.9543 8.68202 33.8899 8.70438 33.8238 8.7031Z" fill="#1682FC"/>
<path d="M50.7386 17.9184H50.7162C50.6795 17.9156 50.6437 17.9055 50.6109 17.8887C50.5781 17.8719 50.5489 17.8487 50.5251 17.8206C50.5012 17.7924 50.4831 17.7597 50.4718 17.7245C50.4605 17.6892 50.4563 17.6521 50.4594 17.6152C50.504 17.121 50.5431 16.6212 50.5766 16.1158C50.1913 15.8968 49.7502 15.6553 49.2699 15.4026C49.2135 15.3638 49.1733 15.3055 49.1567 15.2389C49.1402 15.1722 49.1485 15.1017 49.1802 15.0408C49.2118 14.9799 49.2646 14.9328 49.3285 14.9084C49.3924 14.884 49.4629 14.884 49.5268 14.9084C50.0796 15.1948 50.5766 15.4644 51.0122 15.7171C51.0568 15.7441 51.093 15.7832 51.1167 15.8298C51.1404 15.8765 51.1506 15.9288 51.1462 15.981C51.1071 16.5426 51.0681 17.1098 51.0178 17.6657C51.0121 17.7357 50.98 17.8009 50.9281 17.8479C50.8762 17.8949 50.8084 17.9201 50.7386 17.9184Z" fill="#1682FC"/>
<path d="M33.5223 56.2342C33.4782 56.2338 33.4348 56.2235 33.3952 56.2041C33.3556 56.1847 33.3208 56.1566 33.2933 56.1219C33.2719 56.0917 33.2566 56.0576 33.2484 56.0214C33.2402 55.9853 33.2391 55.9479 33.2454 55.9113C33.2516 55.8748 33.265 55.8398 33.2847 55.8085C33.3044 55.7772 33.3301 55.7501 33.3603 55.7288C34.3169 55.0241 35.2323 54.2648 36.1022 53.4545C36.1284 53.4286 36.1596 53.4085 36.1938 53.3953C36.2281 53.3821 36.2647 53.3761 36.3013 53.3777C36.3379 53.3793 36.3739 53.3884 36.4069 53.4045C36.4399 53.4206 36.4692 53.4433 36.4931 53.4713C36.5184 53.4977 36.5382 53.5288 36.5514 53.563C36.5645 53.5971 36.5707 53.6336 36.5697 53.6702C36.5687 53.7068 36.5604 53.7429 36.5453 53.7762C36.5302 53.8096 36.5087 53.8395 36.4819 53.8644C35.5972 54.694 34.6629 55.4686 33.6842 56.1837C33.6364 56.2164 33.5801 56.234 33.5223 56.2342ZM38.7827 51.3486C38.7144 51.3477 38.6489 51.3217 38.5984 51.2756C38.5433 51.2269 38.5096 51.1583 38.5043 51.0848C38.4991 51.0112 38.5229 50.9386 38.5705 50.8825C39.3355 50.0008 40.0782 49.0518 40.7763 48.0634C40.8198 48.0046 40.8844 47.9651 40.9564 47.9536C41.0284 47.9421 41.1021 47.9593 41.1616 48.0016C41.1916 48.0224 41.2172 48.049 41.2368 48.0798C41.2565 48.1106 41.2699 48.1451 41.2761 48.1812C41.2823 48.2173 41.2813 48.2543 41.2732 48.29C41.265 48.3257 41.2499 48.3594 41.2286 48.3891C40.5194 49.3887 39.7711 50.3546 38.9949 51.2475C38.9692 51.2791 38.9368 51.3046 38.9001 51.3221C38.8634 51.3396 38.8233 51.3486 38.7827 51.3486ZM42.9485 45.4746C42.9001 45.4742 42.8523 45.4627 42.8089 45.4409C42.7452 45.4023 42.6989 45.3402 42.6801 45.2677C42.6614 45.1953 42.6715 45.1184 42.7084 45.0534C43.3004 44.0426 43.8644 42.9812 44.3893 41.8918C44.4033 41.8559 44.4245 41.8233 44.4516 41.796C44.4787 41.7687 44.5111 41.7473 44.5468 41.7332C44.5825 41.719 44.6207 41.7124 44.659 41.7138C44.6973 41.7152 44.735 41.7244 44.7696 41.7411C44.8042 41.7577 44.835 41.7813 44.8601 41.8104C44.8852 41.8396 44.9041 41.8736 44.9156 41.9104C44.9271 41.9472 44.9309 41.986 44.9268 42.0243C44.9227 42.0626 44.9108 42.0997 44.8919 42.1332C44.3614 43.2395 43.7862 44.3177 43.1887 45.3398C43.164 45.3816 43.1288 45.416 43.0867 45.4397C43.0445 45.4634 42.9968 45.4754 42.9485 45.4746ZM46.0925 38.9941C46.0562 38.992 46.0204 38.9844 45.9864 38.9716C45.9523 38.9581 45.9212 38.9378 45.8951 38.912C45.8689 38.8861 45.8482 38.8553 45.8341 38.8212C45.8201 38.7872 45.813 38.7506 45.8132 38.7138C45.8135 38.6769 45.8211 38.6404 45.8356 38.6066L46.1874 37.6969C46.489 36.8938 46.7794 36.0683 47.053 35.2316C47.0772 35.1604 47.1282 35.1017 47.1951 35.0681C47.262 35.0345 47.3393 35.0287 47.4104 35.0519C47.4797 35.0761 47.5367 35.1269 47.5691 35.1931C47.6015 35.2593 47.6067 35.3356 47.5835 35.4057C47.3099 36.248 47.0139 37.0904 46.7068 37.8934C46.5951 38.2023 46.4722 38.5111 46.3494 38.8144C46.3307 38.8676 46.2958 38.9136 46.2497 38.9458C46.2036 38.9781 46.1486 38.9949 46.0925 38.9941ZM48.343 32.1373H48.2704C48.1995 32.1176 48.1392 32.0706 48.1026 32.0065C48.066 31.9423 48.0561 31.8663 48.0749 31.7948C48.3765 30.6604 48.6557 29.4867 48.907 28.2962C48.9149 28.26 48.9299 28.2257 48.951 28.1954C48.9722 28.165 48.9991 28.1391 49.0303 28.1193C49.0614 28.0995 49.0962 28.086 49.1325 28.0798C49.1689 28.0735 49.2061 28.0745 49.242 28.0828C49.2778 28.0901 49.3118 28.1046 49.342 28.1253C49.3721 28.146 49.3978 28.1726 49.4176 28.2035C49.4374 28.2344 49.4508 28.2689 49.4571 28.3051C49.4634 28.3413 49.4624 28.3783 49.4542 28.4141C49.1974 29.6103 48.9181 30.7952 48.611 31.9352C48.5949 31.994 48.5599 32.0457 48.5114 32.0823C48.4628 32.1189 48.4036 32.1383 48.343 32.1373ZM49.8507 25.084H49.806C49.7696 25.0794 49.7344 25.0672 49.7028 25.0483C49.6712 25.0293 49.6438 25.0041 49.6224 24.9741C49.6009 24.944 49.5858 24.9099 49.578 24.8737C49.5702 24.8376 49.5699 24.8002 49.5771 24.7639C49.767 23.6015 49.9401 22.4054 50.0908 21.2036C50.0993 21.13 50.1363 21.0627 50.1938 21.0164C50.2513 20.9702 50.3247 20.9486 50.398 20.9565C50.4348 20.9607 50.4703 20.9722 50.5027 20.9903C50.535 21.0084 50.5634 21.0328 50.5863 21.0621C50.6091 21.0913 50.626 21.1249 50.6358 21.1607C50.6457 21.1966 50.6484 21.2341 50.6437 21.271C50.4929 22.484 50.3198 23.6857 50.1244 24.8538C50.1137 24.9187 50.0802 24.9777 50.03 25.0199C49.9798 25.0622 49.9162 25.0849 49.8507 25.084Z" fill="#1682FC"/>
</svg>
