<svg width="36" height="36" viewBox="0 0 36 36" fill="none" xmlns="http://www.w3.org/2000/svg">
<path d="M11.594 7.80707L12.8402 10.0399C13.965 12.0549 13.5135 14.6982 11.742 16.4694C11.742 16.4694 9.59357 18.6179 13.4891 22.513C17.3835 26.4068 19.5336 24.2598 19.5336 24.2598C21.3051 22.4886 23.9488 22.0372 25.9641 23.1618L28.1972 24.4079C31.2405 26.1059 31.5998 30.3729 28.925 33.0475C27.3177 34.6545 25.3487 35.905 23.172 35.9874C19.5079 36.1264 13.2852 35.1992 7.04307 28.9581C0.801017 22.7169 -0.126332 16.4952 0.0125819 12.8316C0.095097 10.6553 1.34575 8.68654 2.95305 7.0795C5.62793 4.40503 9.89561 4.76438 11.594 7.80707Z" fill="#27467C"/>
<path d="M17.781 1.20928C17.9081 0.424211 18.6503 -0.108341 19.4355 0.0187443C19.4841 0.0280563 19.6406 0.0572787 19.7224 0.0755187C19.8864 0.112018 20.1149 0.168178 20.3999 0.25118C20.9698 0.417145 21.766 0.690573 22.7215 1.12858C24.6347 2.00556 27.1806 3.53965 29.8226 6.18119C32.4645 8.82273 33.9988 11.3683 34.8758 13.2811C35.314 14.2366 35.5875 15.0326 35.7534 15.6024C35.8364 15.8874 35.8926 16.1159 35.9291 16.2797C35.9474 16.3617 35.9608 16.4274 35.97 16.476L35.9812 16.5359C36.1081 17.3209 35.5804 18.0939 34.7952 18.221C34.0123 18.3478 33.2747 17.8176 33.1445 17.0364C33.1405 17.0153 33.1293 16.959 33.1176 16.9058C33.0938 16.7995 33.0529 16.6308 32.988 16.4078C32.858 15.9617 32.6324 15.2987 32.2575 14.4814C31.509 12.8488 30.1629 10.5944 27.7857 8.21766C25.4088 5.84096 23.154 4.49506 21.5211 3.74658C20.7037 3.37188 20.0406 3.14622 19.5943 3.01627C19.3714 2.95132 19.091 2.88698 18.9846 2.86331C18.2031 2.73307 17.6543 1.9921 17.781 1.20928Z" fill="#27467C"/>
<path fill-rule="evenodd" clip-rule="evenodd" d="M18.2153 7.83228C18.4339 7.06758 19.231 6.62479 19.9958 6.84326L19.6003 8.22787C19.9958 6.84326 19.9958 6.84326 19.9958 6.84326L19.9987 6.84407L20.0079 6.84678L20.0229 6.85123L20.0609 6.86306C20.0897 6.87231 20.126 6.88437 20.1691 6.89967C20.2553 6.93028 20.3693 6.97379 20.5091 7.03369C20.7889 7.15357 21.1711 7.3387 21.6408 7.61654C22.5806 8.17273 23.8637 9.0966 25.3711 10.6037C26.8786 12.1109 27.8024 13.3938 28.3587 14.3336C28.6366 14.8031 28.8217 15.1853 28.9417 15.465C29.0016 15.6048 29.0452 15.7187 29.0758 15.805C29.0911 15.8481 29.103 15.8842 29.1124 15.9132L29.1242 15.9512L29.1286 15.966L29.1305 15.9724L29.1313 15.9754C29.1313 15.9754 29.1322 15.9782 27.7473 16.3738L29.1322 15.9782C29.3507 16.7428 28.9077 17.5398 28.1431 17.7583C27.3847 17.9749 26.5945 17.5415 26.3681 16.7888L26.361 16.7681C26.3509 16.7392 26.3297 16.6824 26.2942 16.5995C26.2232 16.4337 26.0943 16.1625 25.88 15.8004C25.4518 15.0771 24.6785 13.9841 23.3343 12.6402C21.9903 11.2963 20.897 10.5231 20.1737 10.095C19.8115 9.88071 19.5403 9.75188 19.3744 9.68084C19.2915 9.6453 19.2346 9.6241 19.2058 9.61387L19.1851 9.60678C18.4323 9.38045 17.9987 8.59047 18.2153 7.83228Z" fill="#27467C"/>
</svg>
