<svg width="30" height="38" viewBox="0 0 30 38" fill="none" xmlns="http://www.w3.org/2000/svg">
<path d="M15 0C6.725 0 0 6.62476 0 14.7764C0 19.7511 2.925 23.9132 6.325 26.8192C7.4 27.7304 9.275 29.1834 10.95 31.326C12.8 33.7148 14.475 36.2761 15 38C15.525 36.2761 17.2 33.7148 19.05 31.326C20.725 29.1834 22.6 27.7304 23.675 26.8192C27.075 23.9132 30 19.7511 30 14.7764C30 6.62476 23.275 0 15 0ZM15 7.3046C19.75 7.3046 22.6 10.0972 22.6 14.7764C22.6 19.4556 19.75 22.2482 15 22.2482C10.25 22.2482 7.4 19.4556 7.4 14.7764C7.4 10.0972 10.25 7.3046 15 7.3046Z" fill="#27467C"/>
</svg>
