<svg width="60" height="60" viewBox="0 0 60 60" fill="none" xmlns="http://www.w3.org/2000/svg">
<path d="M33.75 13.1239C33.75 6.92176 28.7021 1.8739 22.5 1.8739C16.2979 1.8739 11.25 6.92176 11.25 13.1239C11.25 13.4381 11.261 13.7559 11.2811 14.0778C11.3361 15.3499 13.2541 15.2318 13.1525 13.9623C13.1347 13.6767 13.1232 13.3966 13.1232 13.1237C13.1232 7.93504 17.3094 3.74871 22.4982 3.74871C27.687 3.74871 31.8732 7.93497 31.8732 13.1237C31.8732 14.2843 31.7145 15.5489 31.4154 16.8609C31.2584 16.8787 31.0883 16.9059 30.9338 16.947V15.9363C30.9357 15.4184 30.5179 14.9969 30 14.9951H28.125C26.0048 14.9951 25.2594 12.829 25.2594 12.829C25.1279 12.429 24.7462 12.1666 24.3256 12.1862C23.9381 12.204 23.6027 12.4605 23.4815 12.829C23.4815 12.829 22.733 14.9951 20.6232 14.9951H14.9964C14.4784 14.997 14.0605 15.4184 14.0625 15.9363V16.9397C12.1878 16.4836 10.3125 17.7999 10.3125 19.6716C10.3125 22.4133 12.2422 24.1285 14.534 24.3481C15.0089 25.711 15.8241 26.9084 16.875 27.8491V32.8131C16.8749 32.9137 16.891 33.014 16.9227 33.1097C17.7959 35.2643 19.8491 36.563 22.5019 36.563C25.1547 36.563 27.2179 35.2559 28.0793 33.1097C28.1115 33.014 28.1283 32.9137 28.1287 32.8131V27.8528C29.1797 26.9134 29.9972 25.7161 30.4706 24.3536C32.6369 24.1336 34.6875 22.477 34.6875 19.6707C34.6521 18.5884 34.05 17.747 33.2483 17.2766C33.5707 15.8602 33.75 14.453 33.75 13.1239ZM41.2482 6.5632V7.49704H40.3143C38.7724 7.49704 37.4982 8.77308 37.4982 10.315V16.8739C37.4982 22.255 41.6175 26.6657 46.875 27.1388V40.315C46.875 41.8893 45.6405 43.1239 44.0662 43.1239H43.0774C42.5979 36.8286 37.3566 31.8738 30.9375 31.8738C29.6703 31.8561 29.6703 33.7662 30.9375 33.7488C36.3502 33.7488 40.7337 37.8409 41.2024 43.1239H31.7395C31.3199 41.5155 29.8641 40.315 28.1287 40.315C26.0687 40.315 24.3768 41.9977 24.3768 44.0577C24.3768 46.1177 26.0687 47.8095 28.1287 47.8095C29.8625 47.8095 31.3165 46.6066 31.7377 44.9989H44.0662C46.6468 44.9989 48.7518 42.8956 48.7518 40.315V27.1388C54.0065 26.6623 58.1287 22.2525 58.1287 16.8739V10.315C58.1287 8.77308 56.8526 7.49704 55.3107 7.49704H54.3768V6.5632C54.3768 5.28744 52.5018 5.29378 52.5018 6.5632V10.315C52.5288 11.5376 54.3498 11.5376 54.3768 10.315V9.37391H55.3107C55.8463 9.37391 56.2537 9.77945 56.2537 10.315V16.8739C56.2537 21.5645 52.4994 25.3113 47.8088 25.3113C43.1182 25.3113 39.3732 21.5645 39.3732 16.8739V10.315C39.3732 9.77945 39.7787 9.37391 40.3143 9.37391H41.2482V10.315C41.2482 11.5662 43.125 11.5662 43.125 10.315V6.5632C43.125 5.3217 41.2482 5.27613 41.2482 6.5632ZM24.3768 15.0062C24.9728 15.8081 26.1751 16.8702 28.1268 16.8702H29.0607V21.5632C29.0606 25.2151 26.1519 28.1239 22.5 28.1239C18.8482 28.1239 15.9393 25.2151 15.9393 21.5632V16.8702H20.625C22.5797 16.8702 23.7037 15.8505 24.3768 15.0062ZM30.8972 22.3616C30.9717 21.2756 30.9357 20.1737 30.9357 19.0454C31.633 18.3257 32.8089 18.9438 32.8052 19.7083C32.7984 21.1196 31.9455 22.0536 30.8972 22.3616ZM14.1046 22.3616C13.0564 22.0536 12.1967 21.1145 12.1967 19.7083C12.1967 18.783 13.505 18.4188 14.0643 19.0419C14.0578 20.1243 14.048 21.3334 14.1046 22.3616ZM18.75 29.1236C19.8792 29.6833 21.1524 29.9989 22.5 29.9989C23.8487 29.9989 25.1211 29.6827 26.2518 29.1236V32.5843C26.2518 32.5843 25.4726 34.6882 22.5018 34.6882C19.5311 34.6882 18.75 32.5843 18.75 32.5843V29.1236ZM14.0625 31.8738C7.32683 31.8738 1.875 37.3258 1.875 44.0614V57.1864C1.87506 57.7041 2.29476 58.1239 2.8125 58.1239H9.4043H35.6543H42.1875C42.7052 58.1239 43.1249 57.7041 43.125 57.1864V47.8113C43.1427 46.5436 41.2321 46.5436 41.25 47.8113V50.6256H36.5643V47.8095C36.5643 46.4825 34.6893 46.5884 34.6893 47.8095V56.2489H10.3143V47.8095C10.3143 46.5446 8.43933 46.5418 8.43933 47.8095V50.6256H3.75V44.0614C3.75 38.3321 8.33317 33.7488 14.0625 33.7488C15.3297 33.7666 15.3297 31.8565 14.0625 31.8738ZM28.1287 42.1827C29.1753 42.1827 30.0037 43.0111 30.0037 44.0577C30.0037 45.1043 29.1753 45.9345 28.1287 45.9345C27.082 45.9345 26.2518 45.1043 26.2518 44.0577C26.2518 43.0111 27.082 42.1827 28.1287 42.1827ZM3.75 52.5025H8.43933V56.2489H3.75V52.5025ZM36.5643 52.5025H41.25V56.2489H36.5643V52.5025Z" fill="white"/>
</svg>
