<svg width="60" height="60" viewBox="0 0 60 60" fill="none" xmlns="http://www.w3.org/2000/svg">
<g clip-path="url(#clip0_12_490)">
<path d="M22.5 25C15.6075 25 10 19.3925 10 12.5C10 5.6075 15.6075 0 22.5 0C29.3925 0 35 5.6075 35 12.5C35 19.3925 29.3925 25 22.5 25ZM22.5 2.5C16.985 2.5 12.5 6.985 12.5 12.5C12.5 18.015 16.985 22.5 22.5 22.5C28.015 22.5 32.5 18.015 32.5 12.5C32.5 6.985 28.015 2.5 22.5 2.5Z" fill="black"/>
<path d="M16.25 52.5H1.25C0.56 52.5 0 51.94 0 51.25V41.25C0 35.0475 5.0475 30 11.25 30H33.75C36.8175 30 39.77 31.2625 41.8575 33.465C42.3325 33.965 42.3125 34.7575 41.81 35.2325C41.31 35.71 40.5175 35.6875 40.0425 35.185C38.4275 33.48 36.1325 32.5 33.75 32.5H11.25C6.425 32.5 2.5 36.425 2.5 41.25V50H16.25C16.94 50 17.5 50.56 17.5 51.25C17.5 51.94 16.94 52.5 16.25 52.5Z" fill="black"/>
<path d="M36.25 60C35.7775 60 35.345 59.735 35.1325 59.31L30.4775 50H23.75C23.06 50 22.5 49.44 22.5 48.75C22.5 48.06 23.06 47.5 23.75 47.5H31.25C31.7225 47.5 32.155 47.7675 32.3675 48.19L36.1625 55.78L42.6 40.7575C42.7925 40.31 43.225 40.015 43.7125 40C44.195 40.0175 44.65 40.255 44.8675 40.69L52.0225 55H58.75C59.44 55 60 55.56 60 56.25C60 56.94 59.44 57.5 58.75 57.5H51.25C50.7775 57.5 50.345 57.2325 50.1325 56.81L43.8375 44.22L37.4 59.2425C37.2075 59.69 36.775 59.985 36.2875 60C36.275 60 36.2625 60 36.25 60Z" fill="black"/>
</g>
<defs>
<clipPath id="clip0_12_490">
<rect width="60" height="60" fill="white"/>
</clipPath>
</defs>
</svg>
