<svg width="60" height="60" viewBox="0 0 60 60" fill="none" xmlns="http://www.w3.org/2000/svg">
<g clip-path="url(#clip0_12_536)">
<path d="M35.243 33.1297C34.9055 33.2473 34.6564 33.5359 34.5895 33.8869C34.5226 34.2379 34.648 34.5979 34.9185 34.8314C35.189 35.0649 35.5635 35.1363 35.901 35.0187C44.2065 32.1402 49.2196 23.6852 47.76 15.017C46.3005 6.34874 38.7952 0.00146484 30.005 0.00146484C21.2147 0.00146484 13.7094 6.34874 12.2499 15.017C10.7904 23.6852 15.8034 32.1402 24.109 35.0187C24.6309 35.2002 25.201 34.9241 25.3825 34.4022C25.5639 33.8803 25.2879 33.3102 24.766 33.1287C23.037 32.5254 21.4248 31.6289 20 30.4787V29.3897C19.9959 26.2703 21.9167 23.4716 24.829 22.3537C27.927 24.5485 32.073 24.5485 35.171 22.3537C38.0833 23.4716 40.004 26.2703 40 29.3897V30.4827C38.5776 31.631 36.9685 32.5263 35.243 33.1297ZM23 14.9997C23 11.1337 26.134 7.99973 30 7.99973C33.866 7.99973 37 11.1337 37 14.9997C37 18.8657 33.866 21.9997 30 21.9997C26.1358 21.9953 23.0044 18.8639 23 14.9997ZM36.8 20.8727C39.944 17.2415 39.6825 11.7813 36.2058 8.46719C32.7292 5.15305 27.2627 5.15305 23.7861 8.46719C20.3094 11.7813 20.0479 17.2415 23.192 20.8727C20.2474 22.3782 18.2942 25.3031 18.032 28.5997C12.3314 22.1751 12.7205 12.3956 18.9134 6.44416C25.1064 0.492683 34.8936 0.492683 41.0865 6.44416C47.2795 12.3956 47.6685 22.1751 41.968 28.5997C41.7048 25.3011 39.7481 22.3756 36.8 20.8727Z" fill="black"/>
<path d="M21.3998 59.6109C22.0113 60.0622 22.8267 60.1247 23.4998 59.7719L30.0068 56.3909L36.5128 59.7729C37.1875 60.1237 38.0027 60.0615 38.6164 59.6124C39.2301 59.1634 39.536 58.4051 39.4058 57.6559L38.1698 50.5239L43.3998 45.4829C43.9492 44.9532 44.1493 44.157 43.9156 43.4305C43.6818 42.704 43.055 42.1739 42.2998 42.0639L35.0398 41.0209L31.7998 34.5079C31.4634 33.8259 30.7672 33.3957 30.0068 33.3999C29.2486 33.3972 28.5548 33.8257 28.2178 34.5049L24.9598 41.0209L17.7158 42.0629C16.9601 42.1726 16.3328 42.7029 16.099 43.4298C15.8653 44.1567 16.0657 44.9533 16.6158 45.4829L21.8478 50.5239L20.6108 57.6559C20.4786 58.4048 20.7849 59.1635 21.3998 59.6109ZM17.9998 44.0429L25.7618 42.9259C26.0861 42.8794 26.3671 42.6769 26.5138 42.3839L30.0058 35.3999L33.4828 42.3819C33.6292 42.6759 33.9107 42.8793 34.2358 42.9259L42.0138 44.0429L36.3998 49.4519C36.161 49.6823 36.052 50.016 36.1088 50.3429L37.4358 57.9999L30.4688 54.3789C30.1798 54.2288 29.8358 54.2288 29.5468 54.3789L22.5788 57.9999L23.9058 50.3449C23.9626 50.018 23.8536 49.6843 23.6148 49.4539L17.9998 44.0429Z" fill="black"/>
<path d="M4.69982 44.2218L3.72282 49.8708C3.62852 50.3975 3.77207 50.9389 4.11492 51.3497C4.45776 51.7604 4.96478 51.9985 5.49982 51.9998C5.79195 51.9993 6.07969 51.9287 6.33882 51.7938L11.4998 49.1078L16.6578 51.7998C16.9747 51.9649 17.3556 51.9483 17.657 51.7564C17.9584 51.5645 18.1345 51.2264 18.119 50.8694C18.1035 50.5125 17.8987 50.1909 17.5818 50.0258L11.9618 47.0958C11.6723 46.945 11.3274 46.945 11.0378 47.0958L5.76082 49.8448L6.76082 44.0448C6.81764 43.7179 6.70862 43.3842 6.46982 43.1538L2.22282 39.0538L8.09982 38.2098C8.42435 38.1631 8.70533 37.9602 8.85182 37.6668L11.4998 32.3728L14.1378 37.6658C14.2844 37.9601 14.5663 38.1635 14.8918 38.2098L21.1708 39.1098C21.7176 39.188 22.2242 38.8081 22.3023 38.2613C22.3805 37.7146 22.0006 37.208 21.4538 37.1298L15.6938 36.3048L13.1168 31.1328C12.8115 30.5175 12.1827 30.1296 11.4958 30.1328H11.4898C10.8104 30.1315 10.1896 30.5172 9.88982 31.1268L7.29982 36.3048L1.55682 37.1288C0.869285 37.2205 0.295586 37.699 0.0820813 38.359C-0.131423 39.0189 0.0532588 39.7428 0.556821 40.2198L4.69982 44.2218Z" fill="black"/>
<path d="M59.91 38.356C59.7012 37.6994 59.1327 37.222 58.45 37.13L52.7 36.305L50.116 31.128C49.8171 30.5166 49.1964 30.1287 48.516 30.128H48.51C47.8227 30.1243 47.1934 30.5123 46.888 31.128L44.312 36.299L38.551 37.124C38.1973 37.1745 37.8974 37.4099 37.7643 37.7415C37.6313 38.0731 37.6852 38.4505 37.9058 38.7315C38.1265 39.0125 38.4803 39.1545 38.834 39.104L45.114 38.204C45.4394 38.1576 45.7213 37.9542 45.868 37.66L48.5 32.373L51.143 37.667C51.2894 37.9603 51.5704 38.1632 51.895 38.21L57.769 39.053L53.522 43.153C53.2832 43.3833 53.1741 43.7171 53.231 44.044L54.236 49.844L48.959 47.092C48.6694 46.9411 48.3245 46.9411 48.035 47.092L42.415 50.022C42.0981 50.187 41.8933 50.5086 41.8778 50.8656C41.8623 51.2225 42.0384 51.5607 42.3398 51.7526C42.6412 51.9445 43.0221 51.961 43.339 51.796L48.5 49.108L53.66 51.8C54.2707 52.1173 55.0087 52.0603 55.5635 51.653C56.1183 51.2457 56.3937 50.5587 56.274 49.881L55.3 44.222L59.446 40.222C59.9477 39.7416 60.1283 39.0154 59.91 38.356Z" fill="black"/>
<path d="M24.4999 47.1387C24.5481 47.1385 24.5962 47.1348 24.6439 47.1277L28.4049 46.5868C28.7292 46.5402 29.0102 46.3377 29.1569 46.0447L30.8969 42.5657C31.1454 42.0715 30.9462 41.4693 30.4519 41.2207C29.9576 40.9722 29.3554 41.1715 29.1069 41.6657L27.6069 44.6767L24.3619 45.1437C23.8421 45.2178 23.4681 45.6812 23.5055 46.2049C23.5429 46.7286 23.9789 47.1342 24.5039 47.1337L24.4999 47.1387Z" fill="black"/>
</g>
<defs>
<clipPath id="clip0_12_536">
<rect width="60" height="60" fill="white"/>
</clipPath>
</defs>
</svg>
