<svg width="60" height="60" viewBox="0 0 60 60" fill="none" xmlns="http://www.w3.org/2000/svg">
<path d="M31.8326 40.3602L31.8274 40.2899C31.8144 40.1107 31.7502 39.9391 31.6424 39.7954C31.5346 39.6516 31.3878 39.5419 31.2195 39.4792C31.0512 39.4166 30.8683 39.4036 30.6928 39.4418C30.5173 39.48 30.3565 39.5679 30.2295 39.6949L29.5139 40.4105C28.8964 41.0264 28.0599 41.3722 27.1877 41.3722C26.3156 41.3722 25.4791 41.0264 24.8616 40.4105L24.2777 39.8264C23.3083 38.8592 21.9949 38.316 20.6255 38.316C19.2561 38.316 17.9426 38.8592 16.9732 39.8264L16.3894 40.4102C15.7719 41.0261 14.9353 41.372 14.0632 41.372C13.1911 41.372 12.3545 41.0261 11.737 40.4102C11.0371 39.7154 10.1532 39.2348 9.18946 39.0251C8.2257 38.8155 7.2221 38.8854 6.29672 39.2266C6.13068 39.2878 5.98535 39.3947 5.87752 39.535C5.76968 39.6753 5.70375 39.8432 5.68734 40.0194C5.64516 40.4664 5.625 40.8688 5.625 41.25C5.625 44.731 7.00781 48.0694 9.46922 50.5308C11.9306 52.9922 15.269 54.375 18.75 54.375C22.231 54.375 25.5694 52.9922 28.0308 50.5308C30.4922 48.0694 31.875 44.731 31.875 41.25C31.875 40.9386 31.8534 40.6446 31.8326 40.3602ZM18.75 52.5C15.7673 52.4967 12.9078 51.3103 10.7987 49.2013C8.68969 47.0922 7.50335 44.2327 7.5 41.25C7.5 41.1156 7.50305 40.9771 7.50926 40.8332C8.02977 40.7396 8.56517 40.7728 9.07014 40.93C9.57511 41.0871 10.0348 41.3636 10.4102 41.7361C11.3796 42.7033 12.6931 43.2466 14.0625 43.2466C15.4319 43.2466 16.7454 42.7033 17.7148 41.7361L18.2986 41.1523C18.9161 40.5364 19.7526 40.1905 20.6248 40.1905C21.4969 40.1905 22.3334 40.5364 22.9509 41.1523L23.5348 41.7363C24.363 42.5624 25.4466 43.0834 26.609 43.2145C27.7714 43.3456 28.9438 43.079 29.9352 42.4581C29.6337 45.2152 28.3258 47.7641 26.262 49.617C24.1982 51.4698 21.5235 52.4964 18.75 52.5Z" fill="#FDFDFD"/>
<path d="M35.625 41.25C35.6396 37.4275 34.3419 33.7158 31.9487 30.7351C29.766 28.0046 26.7936 26.0144 23.4375 25.0364V22.3387C24.0627 22.1174 24.5896 21.6822 24.9251 21.11C25.2606 20.5379 25.383 19.8656 25.2709 19.2119C25.1587 18.5582 24.8191 17.9651 24.3121 17.5375C23.8051 17.1099 23.1633 16.8753 22.5 16.875H15C14.3367 16.8753 13.6949 17.1099 13.1879 17.5375C12.6809 17.9651 12.3413 18.5582 12.2291 19.2119C12.117 19.8656 12.2394 20.5379 12.5749 21.11C12.9104 21.6822 13.4373 22.1174 14.0625 22.3387V25.0364C10.7064 26.0144 7.73396 28.0046 5.55129 30.7351C3.15812 33.7158 1.8604 37.4275 1.875 41.25C1.875 50.5547 9.44531 58.125 18.75 58.125C28.0547 58.125 35.625 50.5547 35.625 41.25ZM15 18.75H22.5C22.7486 18.75 22.9871 18.8488 23.1629 19.0246C23.3387 19.2004 23.4375 19.4389 23.4375 19.6875C23.4375 19.9361 23.3387 20.1746 23.1629 20.3504C22.9871 20.5262 22.7486 20.625 22.5 20.625H15C14.7514 20.625 14.5129 20.5262 14.3371 20.3504C14.1613 20.1746 14.0625 19.9361 14.0625 19.6875C14.0625 19.4389 14.1613 19.2004 14.3371 19.0246C14.5129 18.8488 14.7514 18.75 15 18.75ZM18.75 56.25C14.7731 56.2455 10.9604 54.6637 8.14837 51.8516C5.33629 49.0396 3.7545 45.2269 3.75 41.25C3.73683 37.8527 4.89006 34.5537 7.01695 31.9045C9.09719 29.3003 11.982 27.459 15.2201 26.6688C15.4245 26.6195 15.6064 26.5028 15.7365 26.3375C15.8667 26.1723 15.9374 25.9681 15.9375 25.7578V22.5H21.5625V25.7578C21.5625 25.9682 21.6333 26.1725 21.7634 26.3378C21.8936 26.5031 22.0756 26.6198 22.2802 26.6692C25.5182 27.4594 28.403 29.3006 30.4833 31.9049C32.61 34.554 33.7632 37.8528 33.75 41.25C33.7455 45.2269 32.1637 49.0396 29.3516 51.8516C26.5396 54.6637 22.7269 56.2455 18.75 56.25Z" fill="#FDFDFD"/>
<path d="M11.25 45H13.125V46.875H11.25V45Z" fill="#FDFDFD"/>
<path d="M16.875 48.75H18.75V50.625H16.875V48.75Z" fill="#FDFDFD"/>
<path d="M19.6875 43.125H21.5625V45H19.6875V43.125Z" fill="#FDFDFD"/>
<path d="M23.4375 45.9375H25.3125V47.8125H23.4375V45.9375Z" fill="#FDFDFD"/>
<path d="M50.625 1.875H9.375C8.13223 1.8764 6.94075 2.3707 6.06198 3.24948C5.1832 4.12825 4.6889 5.31973 4.6875 6.5625V26.25H6.5625V6.5625C6.56337 5.81685 6.85996 5.10198 7.38722 4.57472C7.91448 4.04746 8.62935 3.75087 9.375 3.75H50.625C51.3707 3.75087 52.0855 4.04746 52.6128 4.57472C53.14 5.10198 53.4366 5.81685 53.4375 6.5625V53.4375C53.4366 54.1832 53.14 54.898 52.6128 55.4253C52.0855 55.9525 51.3707 56.2491 50.625 56.25H30V58.125H50.625C51.8678 58.1236 53.0592 57.6293 53.938 56.7505C54.8168 55.8717 55.3111 54.6803 55.3125 53.4375V6.5625C55.3111 5.31973 54.8168 4.12825 53.938 3.24948C53.0592 2.3707 51.8678 1.8764 50.625 1.875Z" fill="#FDFDFD"/>
<path d="M38.4375 31.875H50.625V33.75H38.4375V31.875Z" fill="#FDFDFD"/>
<path d="M38.4375 35.625H50.625V37.5H38.4375V35.625Z" fill="#FDFDFD"/>
<path d="M38.4375 39.375H48.75V41.25H38.4375V39.375Z" fill="#FDFDFD"/>
<path d="M45 28.125H50.625V30H45V28.125Z" fill="#FDFDFD"/>
<path d="M41.25 28.125H43.125V30H41.25V28.125Z" fill="#FDFDFD"/>
<path d="M31.875 13.125V15.3581L28.6432 16.974C28.4875 17.0519 28.3565 17.1716 28.265 17.3197C28.1735 17.4678 28.125 17.6384 28.125 17.8125V22.5C28.125 22.6741 28.1735 22.8447 28.265 22.9928C28.3565 23.1409 28.4875 23.2606 28.6432 23.3385L31.875 24.9544V27.1875H33.75V24.9544L36.5625 23.5481L39.8932 25.2135C40.0234 25.2786 40.1669 25.3125 40.3125 25.3125C40.4581 25.3125 40.6016 25.2786 40.7318 25.2135L44.2838 23.4375H46.875V21.5625H45V18.3919L48.0338 16.875H50.625V15H48.75V11.25C48.75 11.0759 48.7015 10.9053 48.61 10.7572C48.5185 10.6091 48.3875 10.4894 48.2318 10.4115L45 8.79562V6.5625H43.125V8.79562L40.0912 10.3125H37.5V12.1875H39.375V15.3581L36.5625 16.7644L33.75 15.3581V13.125H31.875ZM43.125 21.9206L40.3125 23.3269L37.5 21.9206V18.3919L40.3125 16.9856L43.125 18.3919V21.9206ZM41.25 11.8294L44.0625 10.4231L46.875 11.8294V15.3581L44.0625 16.7644L41.25 15.3581V11.8294ZM35.625 21.9206L32.8125 23.3269L30 21.9206V18.3919L32.8125 16.9856L35.625 18.3919V21.9206Z" fill="#FDFDFD"/>
<path d="M37.5 53.4375H50.625V51.5625H48.75V46.875H46.875V51.5625H45V45H43.125V51.5625H41.25V48.75H39.375V51.5625H37.5V53.4375Z" fill="#FDFDFD"/>
<path d="M9.375 6.5625V15.9375H11.25V14.0625H21.5625V12.1875H11.25V10.3125H25.3125V8.4375H11.25V6.5625H9.375Z" fill="#FDFDFD"/>
<path d="M23.4375 12.1875H25.3125V14.0625H23.4375V12.1875Z" fill="#FDFDFD"/>
<path d="M27.1875 8.4375H29.0625V10.3125H27.1875V8.4375Z" fill="#FDFDFD"/>
<path d="M15.2881 30.5423L14.7118 28.7578C12.2142 29.5636 10.0166 31.1017 8.40417 33.1723L9.88132 34.327C11.2634 32.552 13.1472 31.2334 15.2881 30.5423Z" fill="#FDFDFD"/>
<path d="M8.7668 36.0586L7.10402 35.1914C6.76599 35.8401 6.48293 36.5159 6.25781 37.2118L8.04211 37.7882C8.23488 37.1924 8.47729 36.6138 8.7668 36.0586Z" fill="#FDFDFD"/>
</svg>
