<svg width="50" height="50" viewBox="0 0 50 50" fill="none" xmlns="http://www.w3.org/2000/svg">
<g clip-path="url(#clip0_23_528)">
<path d="M41.2109 9.375C40.6719 9.375 40.2344 9.8125 40.2344 10.3516C40.2344 10.8906 40.6719 11.3281 41.2109 11.3281C41.75 11.3281 42.1875 10.8906 42.1875 10.3516C42.1875 9.8125 41.75 9.375 41.2109 9.375Z" fill="white"/>
<path d="M41.2109 28.9062C40.6719 28.9062 40.2344 29.3438 40.2344 29.8828C40.2344 30.4219 40.6719 30.8594 41.2109 30.8594C41.75 30.8594 42.1875 30.4219 42.1875 29.8828C42.1875 29.3438 41.75 28.9062 41.2109 28.9062Z" fill="white"/>
<path d="M6.83594 19.1406C6.29688 19.1406 5.85938 19.5781 5.85938 20.1172C5.85938 20.6562 6.29688 21.0938 6.83594 21.0938C7.375 21.0938 7.8125 20.6562 7.8125 20.1172C7.8125 19.5781 7.375 19.1406 6.83594 19.1406Z" fill="white"/>
<path d="M49.6485 29.1326L43.7892 24.2498C43.6137 24.1035 43.3926 24.0234 43.1641 24.0234H27.9297V16.2109H43.1641C43.3926 16.2109 43.6137 16.1309 43.7892 15.9846L49.6485 11.1018C49.8712 10.9162 50 10.6414 50 10.3516C50 10.0617 49.8713 9.78691 49.6485 9.60137L43.7892 4.71855C43.6137 4.57227 43.3926 4.49219 43.1641 4.49219H27.9297V2.92969C27.9297 2.14746 27.6249 1.41182 27.0713 0.858203C26.5178 0.304785 25.7822 0 25 0C23.3846 0 22.0703 1.31426 22.0703 2.92969V14.2578H6.83594C6.60752 14.2578 6.38633 14.3379 6.21074 14.4842L0.351367 19.367C0.128711 19.5525 0 19.8273 0 20.1172C0 20.407 0.128711 20.6818 0.351367 20.8674L6.21074 25.7502C6.38633 25.8965 6.60752 25.9766 6.83594 25.9766H22.0703V42.1875H16.6426C15.3788 42.1875 14.2616 42.9929 13.8626 44.1912L12.5773 48.0469H9.375C8.83564 48.0469 8.39844 48.4841 8.39844 49.0234C8.39844 49.5628 8.83564 50 9.375 50C9.6251 50 41.2259 50 41.4062 50C41.9455 50 42.3828 49.5628 42.3828 49.0234C42.3828 48.4841 41.9455 48.0469 41.4062 48.0469H37.4226L36.1375 44.1916C35.7385 42.9929 34.6212 42.1875 33.3574 42.1875H27.9297V35.7422H43.1641C43.3926 35.7422 43.6137 35.6621 43.7892 35.5158L49.6485 30.633C49.8712 30.4475 50 30.1727 50 29.8828C50 29.593 49.8713 29.3182 49.6485 29.1326ZM27.9297 6.44531H42.8105L47.498 10.3516L42.8105 14.2578H27.9297V6.44531ZM24.0234 2.92969C24.0234 2.39121 24.4615 1.95312 25 1.95312C25.2605 1.95312 25.5058 2.05479 25.6902 2.23936C25.8749 2.42393 25.9766 2.66904 25.9766 2.92969V42.1875H24.0234V2.92969ZM7.18955 24.0234L2.50205 20.1172L7.18955 16.2109H22.0703V24.0234H7.18955ZM33.3574 44.1406C33.7789 44.1406 34.1514 44.409 34.2845 44.8089L35.3639 48.0469H14.6361L15.7156 44.8085C15.8486 44.4091 16.2212 44.1406 16.6426 44.1406H33.3574ZM42.8105 33.7891H27.9297V25.9766H42.8105L47.498 29.8828L42.8105 33.7891Z" fill="white"/>
<path d="M37.3047 9.375H30.8594C30.3201 9.375 29.8828 9.81221 29.8828 10.3516C29.8828 10.8909 30.3201 11.3281 30.8594 11.3281H37.3047C37.8439 11.3281 38.2812 10.8909 38.2812 10.3516C38.2812 9.81221 37.8439 9.375 37.3047 9.375Z" fill="white"/>
<path d="M37.3047 28.9062H30.8594C30.3201 28.9062 29.8828 29.3435 29.8828 29.8828C29.8828 30.4222 30.3201 30.8594 30.8594 30.8594H37.3047C37.8439 30.8594 38.2812 30.4222 38.2812 29.8828C38.2812 29.3435 37.8439 28.9062 37.3047 28.9062Z" fill="white"/>
<path d="M19.1406 19.1406H10.7422C10.2028 19.1406 9.76562 19.5778 9.76562 20.1172C9.76562 20.6565 10.2028 21.0938 10.7422 21.0938H19.1406C19.68 21.0938 20.1172 20.6565 20.1172 20.1172C20.1172 19.5778 19.68 19.1406 19.1406 19.1406Z" fill="white"/>
</g>
<defs>
<clipPath id="clip0_23_528">
<rect width="50" height="50" fill="white"/>
</clipPath>
</defs>
</svg>
