<svg width="50" height="50" viewBox="0 0 50 50" fill="none" xmlns="http://www.w3.org/2000/svg">
<g clip-path="url(#clip0_23_524)">
<path d="M2.27269 45.554H20.4546C21.7097 45.554 22.7273 44.5365 22.7273 43.2813C22.7273 42.0261 21.7097 41.0086 20.4546 41.0086H4.70679C5.8467 33.1861 12.5494 27.382 20.4546 27.3722C26.7856 27.4271 31.9623 22.3393 32.0172 16.0084C32.0722 9.67754 26.9844 4.50072 20.6534 4.44575C14.3225 4.39089 9.14564 9.47864 9.09077 15.8095C9.06276 19.044 10.4024 22.1399 12.7795 24.3335C5.06346 27.4637 0.0111861 34.9545 0 43.2813C0 44.5365 1.01751 45.554 2.27269 45.554ZM20.4546 9.19036C24.2201 9.19036 27.2727 12.243 27.2727 16.0085C27.2727 19.7741 24.2201 22.8267 20.4546 22.8267C16.689 22.8267 13.6364 19.7741 13.6364 16.0085C13.6364 12.243 16.689 9.19036 20.4546 9.19036Z" fill="white"/>
<path d="M47.7273 31.918H40.9091V25.0998C40.9091 23.8447 39.8916 22.8271 38.6364 22.8271C37.3812 22.8271 36.3637 23.8447 36.3637 25.0998V31.918H29.5455C28.2903 31.918 27.2728 32.9355 27.2728 34.1907C27.2728 35.4459 28.2903 36.4634 29.5455 36.4634H36.3637V43.2816C36.3637 44.5368 37.3812 45.5543 38.6364 45.5543C39.8916 45.5543 40.9091 44.5368 40.9091 43.2816V36.4634H47.7273C48.9825 36.4634 50 35.4459 50 34.1907C50 32.9356 48.9825 31.918 47.7273 31.918Z" fill="white"/>
</g>
<defs>
<clipPath id="clip0_23_524">
<rect width="50" height="50" fill="white"/>
</clipPath>
</defs>
</svg>
