<svg width="50" height="50" viewBox="0 0 50 50" fill="none" xmlns="http://www.w3.org/2000/svg">
<g clip-path="url(#clip0_23_506)">
<path d="M8.32812 40C7.00204 40 5.73027 39.4732 4.79259 38.5355C3.85491 37.5979 3.32813 36.3261 3.32812 35V25C3.32813 24.5566 3.50427 24.1313 3.81781 23.8178C4.13134 23.5043 4.55659 23.3281 5 23.3281H8.32812C9.65421 23.3281 10.926 23.8549 11.8637 24.7926C12.8013 25.7303 13.3281 27.002 13.3281 28.3281V35C13.3281 36.3261 12.8013 37.5979 11.8637 38.5355C10.926 39.4732 9.65421 40 8.32812 40ZM6.65625 26.6562V35C6.69637 35.4135 6.88901 35.7973 7.19664 36.0765C7.50428 36.3558 7.90485 36.5104 8.32031 36.5104C8.73577 36.5104 9.13635 36.3558 9.44398 36.0765C9.75161 35.7973 9.94426 35.4135 9.98437 35V28.3281C9.98437 27.8847 9.80823 27.4595 9.49469 27.1459C9.18116 26.8324 8.75591 26.6562 8.3125 26.6562H6.65625Z" fill="white"/>
<path d="M5.26568 19.9844H5.00006C4.56298 19.9117 4.17265 19.6684 3.91483 19.308C3.65701 18.9477 3.55279 18.4997 3.62506 18.0625C4.28777 14.1411 6.0168 10.4776 8.62279 7.47327C11.2288 4.46896 14.6112 2.23967 18.3997 1.02954C22.1882 -0.18058 26.2366 -0.324873 30.1017 0.612466C33.9667 1.54981 37.4993 3.53263 40.3125 6.3438C43.499 9.5169 45.6087 13.6105 46.3438 18.0469C46.4054 18.2725 46.4191 18.5085 46.3838 18.7397C46.3485 18.9709 46.2652 19.1921 46.1391 19.389C46.013 19.586 45.847 19.7543 45.6518 19.8831C45.4566 20.0119 45.2366 20.0983 45.0059 20.1367C44.7752 20.1752 44.5391 20.1648 44.3126 20.1063C44.0862 20.0478 43.8746 19.9424 43.6915 19.797C43.5083 19.6516 43.3577 19.4693 43.2494 19.2621C43.1411 19.0548 43.0774 18.8272 43.0625 18.5938C42.3389 14.3249 40.1273 10.45 36.8196 7.65596C33.512 4.86188 29.322 3.329 24.9922 3.329C20.6624 3.329 16.4724 4.86188 13.1648 7.65596C9.85723 10.45 7.64561 14.3249 6.92193 18.5938C6.85531 18.9842 6.65225 19.3383 6.34893 19.593C6.04561 19.8476 5.66173 19.9864 5.26568 19.9844Z" fill="white"/>
<path d="M18.125 9.99989C17.7612 9.98697 17.4115 9.85566 17.1292 9.6259C16.8468 9.39614 16.6471 9.0805 16.5605 8.72691C16.4738 8.37332 16.505 8.00113 16.6492 7.66686C16.7934 7.33259 17.0427 7.05452 17.3594 6.87489C19.726 5.67882 22.3405 5.05566 24.9922 5.05566C27.6439 5.05566 30.2584 5.67882 32.625 6.87489C32.8282 6.97209 33.0097 7.10935 33.1585 7.27842C33.3073 7.4475 33.4205 7.64491 33.4911 7.85879C33.5617 8.07268 33.5884 8.29864 33.5696 8.5231C33.5507 8.74755 33.4867 8.96589 33.3813 9.16498C33.276 9.36408 33.1315 9.53984 32.9565 9.68171C32.7816 9.82358 32.5798 9.92862 32.3632 9.99055C32.1466 10.0525 31.9198 10.07 31.6963 10.0421C31.4727 10.0141 31.2572 9.94133 31.0625 9.82801C29.1743 8.86003 27.0828 8.35518 24.9609 8.35518C22.8391 8.35518 20.7476 8.86003 18.8594 9.82801C18.6311 9.94102 18.3798 9.99984 18.125 9.99989Z" fill="white"/>
<path d="M45.0156 23.3281H41.6719C40.3458 23.3281 39.074 23.8549 38.1363 24.7926C37.1987 25.7303 36.6719 27.002 36.6719 28.3281V35C36.6719 36.3261 37.1987 37.5979 38.1363 38.5355C39.074 39.4732 40.3458 40 41.6719 40C42.16 39.9934 42.6444 39.9144 43.1094 39.7656C42.8064 40.7958 42.1789 41.7006 41.3202 42.3453C40.4615 42.9901 39.4175 43.3402 38.3438 43.3438H29.6875C29.2949 42.2313 28.5215 41.2935 27.5042 40.6961C26.4869 40.0988 25.2912 39.8804 24.1284 40.0796C22.9656 40.2788 21.9107 40.8827 21.1502 41.7845C20.3897 42.6864 19.9725 43.8281 19.9725 45.0078C19.9725 46.1875 20.3897 47.3292 21.1502 48.2311C21.9107 49.133 22.9656 49.7369 24.1284 49.936C25.2912 50.1352 26.4869 49.9168 27.5042 49.3195C28.5215 48.7221 29.2949 47.7843 29.6875 46.6719H38.3438C40.5512 46.6677 42.6671 45.789 44.2281 44.2281C45.789 42.6671 46.6677 40.5512 46.6719 38.3438V25C46.6719 24.5593 46.4979 24.1364 46.1877 23.8233C45.8776 23.5102 45.4563 23.3322 45.0156 23.3281ZM25 46.6719C24.6693 46.6719 24.3461 46.5738 24.0712 46.3901C23.7962 46.2064 23.5819 45.9453 23.4554 45.6398C23.3288 45.3343 23.2957 44.9981 23.3602 44.6738C23.4248 44.3495 23.584 44.0516 23.8178 43.8178C24.0516 43.584 24.3495 43.4248 24.6738 43.3602C24.9981 43.2957 25.3343 43.3288 25.6398 43.4554C25.9453 43.5819 26.2064 43.7962 26.3901 44.0712C26.5738 44.3461 26.6719 44.6693 26.6719 45C26.6719 45.4434 26.4957 45.8687 26.1822 46.1822C25.8687 46.4957 25.4434 46.6719 25 46.6719ZM43.3438 35C43.3036 35.4135 43.111 35.7973 42.8034 36.0765C42.4957 36.3558 42.0951 36.5104 41.6797 36.5104C41.2642 36.5104 40.8637 36.3558 40.556 36.0765C40.2484 35.7973 40.0557 35.4135 40.0156 35V28.3281C40.0156 27.8847 40.1918 27.4595 40.5053 27.1459C40.8188 26.8324 41.2441 26.6562 41.6875 26.6562H43.3594L43.3438 35Z" fill="white"/>
</g>
<defs>
<clipPath id="clip0_23_506">
<rect width="50" height="50" fill="white"/>
</clipPath>
</defs>
</svg>
